Recursive Sans-Casual Italic.ufo
<glyph name="exclam" format="2">
  <advance width="537.5"/>
  <unicode hex="0021"/>
  <outline>
    <contour>
      <point x="298.01253929245" y="252.5" type="line"/>
      <point x="325.89161456249997" y="327.25"/>
      <point x="353.2080330914" y="410.5"/>
      <point x="371.89955611442497" y="484.75" type="curve"/>
      <point x="416.410005524825" y="662.75" type="line" smooth="yes"/>
      <point x="425.224125183425" y="698.0"/>
      <point x="405.16209540687504" y="710.0"/>
      <point x="355.412095406875" y="710.0" type="curve"/>
      <point x="342.412095406875" y="710.0"/>
      <point x="332.22454315985" y="709.0"/>
      <point x="321.09943866572496" y="706.0" type="curve"/>
      <point x="319.035110018875" y="670.75"/>
      <point x="311.9707813721" y="635.25"/>
      <point x="302.531348231125" y="597.5" type="curve" smooth="yes"/>
      <point x="274.46200386732494" y="485.5" type="line"/>
      <point x="246.76818197407505" y="375.0"/>
      <point x="230.45134546875" y="284.5"/>
      <point x="242.575614010025" y="268.5" type="curve" smooth="yes"/>
      <point x="251.137643786575" y="257.0"/>
      <point x="268.76253929245" y="252.5"/>
      <point x="291.26253929245" y="252.5" type="curve"/>
    </contour>
    <contour>
      <point x="182.75" y="6.75" type="curve"/>
      <point x="202.5" y="83.25" type="line" smooth="yes"/>
      <point x="212.0" y="123.75"/>
      <point x="188.25" y="145.25"/>
      <point x="135.0" y="145.25" type="curve"/>
      <point x="110.25" y="145.25"/>
      <point x="88.0" y="140.25"/>
      <point x="69.5" y="131.25" type="curve"/>
      <point x="49.75" y="55.25" type="line" smooth="yes"/>
      <point x="40.25" y="14.75"/>
      <point x="64.5" y="-6.5"/>
      <point x="119.75" y="-6.5" type="curve" smooth="yes"/>
      <point x="143.75" y="-6.5"/>
      <point x="166.25" y="-1.5"/>
    </contour>
  </outline>
</glyph>
<glyph name="quotedbl" format="2">
  <advance width="600.0"/>
  <unicode hex="0022"/>
  <outline>
    <contour>
      <point x="269.25" y="440.0" type="curve"/>
      <point x="340.25" y="678.25" type="line" smooth="yes"/>
      <point x="355.75" y="729.0"/>
      <point x="338.0" y="754.0"/>
      <point x="281.75" y="754.0" type="curve" smooth="yes"/>
      <point x="266.5" y="754.0"/>
      <point x="254.5" y="752.25"/>
      <point x="245.75" y="750.0" type="curve"/>
      <point x="248.0" y="726.5"/>
      <point x="246.75" y="714.0"/>
      <point x="235.5" y="658.25" type="curve" smooth="yes"/>
      <point x="200.5" y="478.75" type="line" smooth="yes"/>
      <point x="194.75" y="449.25"/>
      <point x="207.0" y="438.5"/>
      <point x="247.75" y="438.5" type="curve" smooth="yes"/>
      <point x="255.75" y="438.5"/>
      <point x="263.0" y="439.0"/>
    </contour>
    <contour>
      <point x="494.25" y="440.0" type="curve"/>
      <point x="563.75" y="669.25" type="line" smooth="yes"/>
      <point x="581.5" y="728.25"/>
      <point x="564.0" y="754.0"/>
      <point x="509.0" y="754.0" type="curve" smooth="yes"/>
      <point x="498.25" y="754.0"/>
      <point x="489.0" y="753.0"/>
      <point x="479.0" y="750.25" type="curve"/>
      <point x="426.25" y="478.75" type="line"/>
      <point x="420.5" y="449.75"/>
      <point x="433.25" y="438.5"/>
      <point x="473.5" y="438.5" type="curve" smooth="yes"/>
      <point x="481.5" y="438.5"/>
      <point x="488.0" y="439.0"/>
    </contour>
  </outline>
</glyph>
<glyph name="numbersign" format="2">
  <advance width="600.0"/>
  <unicode hex="0023"/>
  <outline>
    <contour>
      <point x="216.5" y="715.25" type="curve"/>
      <point x="211.5" y="513.25"/>
      <point x="175.5" y="239.5"/>
      <point x="61.5" y="-12.0" type="curve"/>
      <point x="69.25" y="-16.25"/>
      <point x="76.0" y="-19.5"/>
      <point x="89.25" y="-19.5" type="curve"/>
      <point x="112.25" y="-19.75"/>
      <point x="127.5" y="-14.75"/>
      <point x="141.0" y="14.25" type="curve" smooth="yes"/>
      <point x="242.0" y="252.5"/>
      <point x="276.0" y="521.5"/>
      <point x="279.75" y="687.5" type="curve" smooth="yes"/>
      <point x="281.25" y="716.5"/>
      <point x="263.75" y="720.0"/>
      <point x="246.0" y="720.0" type="curve" smooth="yes"/>
      <point x="236.0" y="720.0"/>
      <point x="225.75" y="718.5"/>
    </contour>
    <contour>
      <point x="415.5" y="714.75" type="curve"/>
      <point x="410.25" y="515.75"/>
      <point x="374.5" y="239.25"/>
      <point x="260.25" y="-12.5" type="curve"/>
      <point x="268.0" y="-16.75"/>
      <point x="274.75" y="-20.0"/>
      <point x="288.0" y="-20.0" type="curve"/>
      <point x="311.0" y="-20.0"/>
      <point x="326.0" y="-15.0"/>
      <point x="339.25" y="13.5" type="curve" smooth="yes"/>
      <point x="440.75" y="252.25"/>
      <point x="474.75" y="521.25"/>
      <point x="478.75" y="687.5" type="curve" smooth="yes"/>
      <point x="480.0" y="716.0"/>
      <point x="462.5" y="719.75"/>
      <point x="444.75" y="719.75" type="curve" smooth="yes"/>
      <point x="434.75" y="719.75"/>
      <point x="424.5" y="718.0"/>
    </contour>
    <contour>
      <point x="566.75" y="442.5" type="line"/>
      <point x="566.75" y="446.25"/>
      <point x="566.75" y="450.75"/>
      <point x="566.75" y="454.75" type="curve" smooth="yes"/>
      <point x="566.75" y="478.75"/>
      <point x="562.0" y="493.75"/>
      <point x="552.0" y="503.75" type="curve" smooth="yes"/>
      <point x="546.0" y="509.75"/>
      <point x="538.0" y="512.5"/>
      <point x="522.75" y="512.5" type="curve"/>
      <point x="80.0" y="512.5" type="line"/>
      <point x="77.75" y="505.0"/>
      <point x="76.75" y="496.25"/>
      <point x="76.75" y="489.25" type="curve" smooth="yes"/>
      <point x="76.75" y="460.0"/>
      <point x="84.75" y="442.5"/>
      <point x="112.25" y="442.5" type="curve" smooth="yes"/>
    </contour>
    <contour>
      <point x="33.0" y="257.5" type="line"/>
      <point x="33.0" y="253.75"/>
      <point x="33.0" y="249.25"/>
      <point x="33.0" y="245.25" type="curve" smooth="yes"/>
      <point x="33.0" y="221.25"/>
      <point x="37.75" y="206.25"/>
      <point x="47.75" y="196.25" type="curve" smooth="yes"/>
      <point x="53.75" y="190.25"/>
      <point x="61.75" y="187.5"/>
      <point x="77.0" y="187.5" type="curve"/>
      <point x="530.0" y="187.5" type="line"/>
      <point x="531.0" y="195.0"/>
      <point x="531.75" y="203.75"/>
      <point x="531.75" y="210.75" type="curve" smooth="yes"/>
      <point x="531.75" y="240.0"/>
      <point x="523.75" y="257.5"/>
      <point x="496.25" y="257.5" type="curve"/>
    </contour>
  </outline>
</glyph>
<glyph name="dollar" format="2">
  <advance width="600.0"/>
  <unicode hex="0024"/>
  <outline>
    <contour>
      <point x="227.00000000000003" y="-14.181818181818182" type="curve" smooth="yes"/>
      <point x="370.90909090909093" y="-14.181818181818182"/>
      <point x="476.00000000000006" y="50.63636363636363"/>
      <point x="504.00000000000006" y="160.18181818181816" type="curve" smooth="yes"/>
      <point x="505.81818181818187" y="168.1818181818182" type="line" smooth="yes"/>
      <point x="520.1818181818182" y="235.8181818181818"/>
      <point x="496.0909090909091" y="300.72727272727275"/>
      <point x="390.7272727272728" y="343.3636363636364" type="curve" smooth="yes"/>
      <point x="312.0909090909091" y="375.1818181818182" type="line" smooth="yes"/>
      <point x="219.9090909090909" y="412.00000000000006"/>
      <point x="199.72727272727272" y="445.4545454545454"/>
      <point x="215.54545454545453" y="506.2727272727273" type="curve" smooth="yes"/>
      <point x="218.27272727272728" y="515.1818181818181" type="line" smooth="yes"/>
      <point x="238.72727272727272" y="582.0909090909091"/>
      <point x="342.00000000000006" y="645.5454545454546"/>
      <point x="469.72727272727275" y="645.5454545454546" type="curve" smooth="yes"/>
      <point x="535.0909090909091" y="645.5454545454546"/>
      <point x="564.4545454545454" y="633.5454545454546"/>
      <point x="592.7272727272726" y="610.2727272727274" type="curve"/>
      <point x="598.7272727272727" y="610.2727272727274" type="line"/>
      <point x="608.4545454545455" y="619.4545454545454"/>
      <point x="617.1818181818182" y="633.2727272727274"/>
      <point x="621.0000000000001" y="646.8181818181818" type="curve" smooth="yes"/>
      <point x="625.0909090909091" y="660.7272727272726"/>
      <point x="625.909090909091" y="673.5454545454546"/>
      <point x="613.6363636363636" y="687.2727272727273" type="curve" smooth="yes"/>
      <point x="599.7272727272727" y="703.3636363636364"/>
      <point x="557.7272727272727" y="720.0"/>
      <point x="485.54545454545456" y="720.0" type="curve" smooth="yes"/>
      <point x="312.0" y="720.0"/>
      <point x="178.90909090909093" y="634.6363636363636"/>
      <point x="148.90909090909093" y="527.8181818181819" type="curve" smooth="yes"/>
      <point x="146.63636363636365" y="519.4545454545455" type="line" smooth="yes"/>
      <point x="124.36363636363637" y="438.8181818181818"/>
      <point x="143.45454545454547" y="370.18181818181824"/>
      <point x="275.0" y="316.54545454545456" type="curve" smooth="yes"/>
      <point x="354.63636363636357" y="283.99999999999994" type="line" smooth="yes"/>
      <point x="433.90909090909093" y="251.63636363636363"/>
      <point x="448.0909090909091" y="213.36363636363637"/>
      <point x="434.00000000000006" y="155.0909090909091" type="curve" smooth="yes"/>
      <point x="432.2727272727273" y="147.9090909090909" type="line" smooth="yes"/>
      <point x="397.1818181818182" y="92.63636363636364"/>
      <point x="328.2727272727273" y="60.27272727272727"/>
      <point x="245.54545454545456" y="60.27272727272727" type="curve" smooth="yes"/>
      <point x="142.72727272727272" y="60.27272727272727"/>
      <point x="79.45454545454545" y="87.63636363636364"/>
      <point x="52.54545454545454" y="146.8181818181818" type="curve"/>
      <point x="46.54545454545454" y="146.8181818181818" type="line"/>
      <point x="37.72727272727273" y="135.45454545454547"/>
      <point x="30.363636363636356" y="123.90909090909092"/>
      <point x="25.818181818181813" y="107.36363636363636" type="curve" smooth="yes"/>
      <point x="18.81818181818181" y="82.36363636363636"/>
      <point x="24.36363636363636" y="59.63636363636364"/>
      <point x="36.272727272727266" y="45.54545454545455" type="curve" smooth="yes"/>
      <point x="69.09090909090908" y="4.727272727272728"/>
      <point x="134.18181818181816" y="-14.181818181818182"/>
    </contour>
    <contour>
      <point x="377.45454545454544" y="411.7272727272727" type="curve"/>
      <point x="430.54545454545456" y="525.0909090909091"/>
      <point x="494.72727272727275" y="702.9090909090909"/>
      <point x="522.181818181818" y="815.7272727272727" type="curve" smooth="yes"/>
      <point x="534.9999999999999" y="866.1818181818182"/>
      <point x="522.181818181818" y="887.7272727272727"/>
      <point x="485.09090909090907" y="887.7272727272727" type="curve" smooth="yes"/>
      <point x="470.7272727272727" y="887.7272727272727"/>
      <point x="457.1818181818182" y="885.1818181818182"/>
      <point x="447.4545454545455" y="881.2727272727273" type="curve"/>
      <point x="451.0" y="856.7272727272726"/>
      <point x="451.0" y="833.0909090909091"/>
      <point x="438.9090909090909" y="770.7272727272727" type="curve" smooth="yes"/>
      <point x="420.2727272727273" y="674.7272727272726"/>
      <point x="382.1818181818182" y="548.0909090909091"/>
      <point x="344.18181818181813" y="447.81818181818187" type="curve" smooth="yes"/>
      <point x="338.8181818181818" y="434.6363636363636"/>
      <point x="342.2727272727273" y="423.90909090909093"/>
      <point x="355.4545454545455" y="418.0" type="curve" smooth="yes"/>
      <point x="363.27272727272725" y="413.8181818181818"/>
      <point x="371.09090909090907" y="411.99999999999994"/>
    </contour>
    <contour>
      <point x="267.45454545454544" y="251.27272727272728" type="curve"/>
      <point x="209.99999999999997" y="121.0909090909091"/>
      <point x="153.27272727272725" y="-21.545454545454543"/>
      <point x="129.1818181818182" y="-123.81818181818181" type="curve" smooth="yes"/>
      <point x="116.81818181818183" y="-173.45454545454547"/>
      <point x="128.18181818181816" y="-195.0"/>
      <point x="163.0909090909091" y="-195.0" type="curve" smooth="yes"/>
      <point x="177.45454545454544" y="-195.0"/>
      <point x="191.0" y="-192.45454545454547"/>
      <point x="200.72727272727272" y="-188.54545454545456" type="curve"/>
      <point x="199.36363636363635" y="-164.0"/>
      <point x="200.0909090909091" y="-140.36363636363637"/>
      <point x="207.8181818181818" y="-98.54545454545456" type="curve" smooth="yes"/>
      <point x="225.4545454545455" y="-1.4210854715202004e-14"/>
      <point x="273.0" y="137.00000000000003"/>
      <point x="298.18181818181813" y="209.90909090909088" type="curve" smooth="yes"/>
      <point x="303.2727272727273" y="225.7272727272727"/>
      <point x="302.6363636363637" y="236.90909090909088"/>
      <point x="287.27272727272725" y="244.27272727272725" type="curve" smooth="yes"/>
      <point x="280.1818181818182" y="248.45454545454547"/>
      <point x="273.8181818181818" y="250.27272727272728"/>
    </contour>
  </outline>
</glyph>
<glyph name="percent" format="2">
  <advance width="600.0"/>
  <unicode hex="0025"/>
  <outline>
    <contour>
      <point x="293.25" y="710.0" type="curve" smooth="yes"/>
      <point x="199.25" y="710.0"/>
      <point x="118.25" y="637.0"/>
      <point x="91.25" y="529.0" type="curve" smooth="yes"/>
      <point x="89.25" y="523.0" type="line" smooth="yes"/>
      <point x="64.25" y="420.0"/>
      <point x="105.25" y="356.0"/>
      <point x="198.25" y="356.0" type="curve" smooth="yes"/>
      <point x="295.25" y="356.0"/>
      <point x="373.5" y="423.0"/>
      <point x="400.0" y="528.5" type="curve" smooth="yes"/>
      <point x="401.75" y="534.5" type="line" smooth="yes"/>
      <point x="427.5" y="639.25"/>
      <point x="382.75" y="710.0"/>
    </contour>
    <contour>
      <point x="148.5" y="519.5" type="curve" smooth="yes"/>
      <point x="150.25" y="525.0" type="line" smooth="yes"/>
      <point x="168.5" y="599.5"/>
      <point x="222.0" y="650.25"/>
      <point x="282.0" y="650.25" type="curve" smooth="yes"/>
      <point x="298.0" y="650.25"/>
      <point x="309.5" y="648.5"/>
      <point x="319.75" y="645.0" type="curve" smooth="yes"/>
      <point x="345.75" y="620.0"/>
      <point x="345.5" y="583.5"/>
      <point x="335.25" y="543.5" type="curve" smooth="yes"/>
      <point x="334.25" y="538.0" type="line" smooth="yes"/>
      <point x="316.75" y="467.25"/>
      <point x="271.25" y="424.75"/>
      <point x="201.0" y="424.75" type="curve" smooth="yes"/>
      <point x="191.25" y="424.75"/>
      <point x="172.5" y="425.75"/>
      <point x="156.25" y="435.0" type="curve" smooth="yes"/>
      <point x="138.5" y="456.0"/>
      <point x="141.5" y="490.25"/>
    </contour>
    <contour>
      <point x="442.75" y="344.0" type="curve" smooth="yes"/>
      <point x="348.75" y="344.0"/>
      <point x="267.75" y="271.0"/>
      <point x="240.75" y="163.0" type="curve" smooth="yes"/>
      <point x="239.75" y="157.0" type="line" smooth="yes"/>
      <point x="213.75" y="54.0"/>
      <point x="254.75" y="-10.0"/>
      <point x="347.75" y="-10.0" type="curve" smooth="yes"/>
      <point x="444.75" y="-10.0"/>
      <point x="523.0" y="57.0"/>
      <point x="549.5" y="162.5" type="curve" smooth="yes"/>
      <point x="551.25" y="168.5" type="line" smooth="yes"/>
      <point x="577.75" y="273.25"/>
      <point x="532.25" y="344.0"/>
    </contour>
    <contour>
      <point x="298.0" y="153.5" type="curve" smooth="yes"/>
      <point x="299.75" y="159.0" type="line" smooth="yes"/>
      <point x="318.25" y="233.5"/>
      <point x="371.5" y="284.25"/>
      <point x="431.5" y="284.25" type="curve" smooth="yes"/>
      <point x="447.5" y="284.25"/>
      <point x="459.0" y="282.5"/>
      <point x="469.25" y="279.0" type="curve" smooth="yes"/>
      <point x="495.25" y="254.0"/>
      <point x="495.0" y="217.5"/>
      <point x="485.5" y="177.5" type="curve" smooth="yes"/>
      <point x="483.75" y="172.0" type="line" smooth="yes"/>
      <point x="466.25" y="101.25"/>
      <point x="421.0" y="58.75"/>
      <point x="350.75" y="58.75" type="curve" smooth="yes"/>
      <point x="341.0" y="58.75"/>
      <point x="322.0" y="59.75"/>
      <point x="305.75" y="69.0" type="curve" smooth="yes"/>
      <point x="289.0" y="90.0"/>
      <point x="291.0" y="124.25"/>
    </contour>
    <contour>
      <point x="402.25" y="411.75" type="curve"/>
      <point x="411.5" y="406.5"/>
      <point x="423.0" y="403.75"/>
      <point x="437.75" y="403.75" type="curve" smooth="yes"/>
      <point x="456.5" y="403.75"/>
      <point x="466.25" y="407.25"/>
      <point x="477.75" y="417.75" type="curve" smooth="yes"/>
      <point x="542.5" y="473.0"/>
      <point x="624.0" y="605.75"/>
      <point x="641.0" y="674.75" type="curve" smooth="yes"/>
      <point x="646.5" y="697.0"/>
      <point x="636.25" y="707.75"/>
      <point x="615.5" y="707.75" type="curve" smooth="yes"/>
      <point x="599.5" y="707.75"/>
      <point x="586.75" y="705.75"/>
      <point x="576.5" y="702.5" type="curve"/>
      <point x="538.5" y="592.75"/>
      <point x="484.25" y="504.0"/>
    </contour>
    <contour>
      <point x="237.75" y="288.25" type="curve"/>
      <point x="228.5" y="293.5"/>
      <point x="218.5" y="295.5"/>
      <point x="204.5" y="295.5" type="curve" smooth="yes"/>
      <point x="186.5" y="295.5"/>
      <point x="176.75" y="292.0"/>
      <point x="164.5" y="281.5" type="curve" smooth="yes"/>
      <point x="101.25" y="226.25"/>
      <point x="18.25" y="92.75"/>
      <point x="1.25" y="24.5" type="curve" smooth="yes"/>
      <point x="-4.25" y="0.75"/>
      <point x="5.25" y="-8.5"/>
      <point x="28.25" y="-8.5" type="curve" smooth="yes"/>
      <point x="42.75" y="-8.5"/>
      <point x="54.75" y="-6.5"/>
      <point x="65.75" y="-3.25" type="curve"/>
      <point x="103.75" y="104.25"/>
      <point x="157.25" y="193.75"/>
    </contour>
  </outline>
</glyph>
<glyph name="ampersand" format="2">
  <advance width="600.0"/>
  <unicode hex="0026"/>
  <outline>
    <contour>
      <point x="256.81818181818176" y="357.0" type="curve" smooth="yes"/>
      <point x="240.0909090909091" y="419.6363636363637"/>
      <point x="239.0909090909091" y="483.4545454545455"/>
      <point x="250.27272727272725" y="528.1818181818182" type="curve" smooth="yes"/>
      <point x="253.72727272727272" y="541.0"/>
      <point x="257.45454545454544" y="554.4545454545454"/>
      <point x="264.3636363636364" y="566.090909090909" type="curve"/>
      <point x="290.00000000000006" y="607.8181818181818"/>
      <point x="342.72727272727275" y="633.4545454545454"/>
      <point x="412.72727272727275" y="633.4545454545454" type="curve" smooth="yes"/>
      <point x="472.5454545454545" y="633.4545454545454"/>
      <point x="506.0" y="622.2727272727274"/>
      <point x="530.3636363636365" y="597.9090909090909" type="curve"/>
      <point x="536.3636363636365" y="597.9090909090909" type="line"/>
      <point x="544.0909090909091" y="605.6363636363635"/>
      <point x="552.0000000000001" y="616.6363636363636"/>
      <point x="555.8181818181819" y="632.181818181818" type="curve" smooth="yes"/>
      <point x="560.4545454545455" y="650.7272727272727"/>
      <point x="559.9090909090909" y="666.6363636363636"/>
      <point x="548.6363636363637" y="678.909090909091" type="curve" smooth="yes"/>
      <point x="533.2727272727273" y="696.0000000000001"/>
      <point x="490.4545454545455" y="710.0"/>
      <point x="422.36363636363643" y="710.0" type="curve" smooth="yes"/>
      <point x="291.0" y="710.0"/>
      <point x="205.27272727272728" y="639.5454545454545"/>
      <point x="180.54545454545456" y="541.9090909090909" type="curve" smooth="yes"/>
      <point x="178.8181818181818" y="535.1818181818181" type="line" smooth="yes"/>
      <point x="165.45454545454547" y="476.09090909090907"/>
      <point x="170.1818181818182" y="407.1818181818182"/>
      <point x="189.0" y="336.9090909090909" type="curve" smooth="yes"/>
      <point x="214.7272727272727" y="240.90909090909088"/>
      <point x="264.45454545454544" y="143.54545454545456"/>
      <point x="316.0909090909091" y="74.90909090909092" type="curve" smooth="yes"/>
      <point x="362.6363636363636" y="12.363636363636363"/>
      <point x="394.8181818181818" y="-10.0"/>
      <point x="441.5454545454545" y="-10.0" type="curve" smooth="yes"/>
      <point x="458.18181818181824" y="-10.0"/>
      <point x="471.81818181818176" y="-6.1818181818181825"/>
      <point x="482.18181818181813" y="0.45454545454545475" type="curve" smooth="yes"/>
      <point x="496.8181818181818" y="10.363636363636363"/>
      <point x="506.7272727272727" y="24.818181818181817"/>
      <point x="511.3636363636363" y="46.45454545454545" type="curve" smooth="yes"/>
      <point x="514.4545454545454" y="61.63636363636363"/>
      <point x="514.1818181818181" y="75.27272727272728"/>
      <point x="511.36363636363626" y="87.00000000000001" type="curve"/>
      <point x="505.3636363636364" y="87.00000000000001" type="line"/>
      <point x="495.09090909090907" y="73.72727272727273"/>
      <point x="484.6363636363636" y="70.00000000000001"/>
      <point x="464.3636363636363" y="70.00000000000001" type="curve" smooth="yes"/>
      <point x="434.27272727272725" y="70.00000000000001"/>
      <point x="397.2727272727273" y="88.90909090909092"/>
      <point x="369.45454545454544" y="126.72727272727272" type="curve" smooth="yes"/>
      <point x="317.45454545454544" y="195.27272727272725"/>
      <point x="276.8181818181818" y="279.54545454545456"/>
    </contour>
    <contour>
      <point x="140.9090909090909" y="-9.727272727272727" type="curve" smooth="yes"/>
      <point x="213.45454545454547" y="-9.727272727272727"/>
      <point x="273.0909090909091" y="19.545454545454543"/>
      <point x="311.3636363636363" y="74.0" type="curve"/>
      <point x="343.6363636363636" y="74.0" type="line"/>
      <point x="311.3636363636364" y="131.9090909090909" type="line"/>
      <point x="267.8181818181818" y="76.81818181818183"/>
      <point x="220.45454545454547" y="59.727272727272734"/>
      <point x="165.0" y="59.727272727272734" type="curve" smooth="yes"/>
      <point x="94.0909090909091" y="59.727272727272734"/>
      <point x="60.81818181818182" y="105.27272727272728"/>
      <point x="80.72727272727272" y="171.27272727272728" type="curve" smooth="yes"/>
      <point x="82.45454545454545" y="177.1818181818182" type="line" smooth="yes"/>
      <point x="100.81818181818181" y="239.99999999999997"/>
      <point x="159.27272727272725" y="280.1818181818182"/>
      <point x="224.63636363636365" y="294.00000000000006" type="curve"/>
      <point x="201.45454545454547" y="354.8181818181818" type="line"/>
      <point x="184.45454545454547" y="331.81818181818187" type="line"/>
      <point x="102.54545454545455" y="310.2727272727273"/>
      <point x="28.818181818181817" y="250.81818181818184"/>
      <point x="6.727272727272729" y="166.0" type="curve" smooth="yes"/>
      <point x="4.7272727272727275" y="157.36363636363637" type="line" smooth="yes"/>
      <point x="-16.09090909090909" y="71.9090909090909"/>
      <point x="31.272727272727273" y="-9.727272727272727"/>
    </contour>
    <contour>
      <point x="457.7272727272727" y="387.5454545454545" type="curve"/>
      <point x="455.99999999999994" y="373.09090909090907"/>
      <point x="454.0" y="362.0"/>
      <point x="448.8181818181818" y="340.90909090909093" type="curve" smooth="yes"/>
      <point x="434.18181818181813" y="282.81818181818176"/>
      <point x="393.3636363636363" y="217.27272727272728"/>
      <point x="331.09090909090907" y="151.36363636363635" type="curve"/>
      <point x="363.45454545454544" y="96.63636363636364" type="line"/>
      <point x="372.0" y="133.0909090909091" type="line"/>
      <point x="454.72727272727275" y="191.0909090909091"/>
      <point x="509.6363636363635" y="267.00000000000006"/>
      <point x="525.8181818181819" y="338.7272727272727" type="curve" smooth="yes"/>
      <point x="527.8181818181819" y="347.7272727272727" type="line" smooth="yes"/>
      <point x="534.1818181818182" y="375.5454545454545"/>
      <point x="519.6363636363636" y="391.09090909090907"/>
      <point x="485.81818181818176" y="391.09090909090907" type="curve"/>
      <point x="472.2727272727272" y="391.09090909090907"/>
      <point x="465.09090909090907" y="389.81818181818176"/>
    </contour>
  </outline>
</glyph>
<glyph name="quotesingle" format="2">
  <advance width="263.6363636363636"/>
  <unicode hex="0027"/>
  <outline>
    <contour>
      <point x="206.27272727272728" y="440.1818181818182" type="curve"/>
      <point x="274.8181818181818" y="668.2727272727273" type="line" smooth="yes"/>
      <point x="292.81818181818187" y="728.6363636363636"/>
      <point x="274.6363636363637" y="754.0"/>
      <point x="213.54545454545456" y="754.0" type="curve" smooth="yes"/>
      <point x="201.90909090909093" y="754.0"/>
      <point x="189.8181818181818" y="752.2727272727273"/>
      <point x="180.8181818181818" y="750.0" type="curve"/>
      <point x="183.09090909090912" y="726.4545454545455"/>
      <point x="181.81818181818184" y="713.4545454545455"/>
      <point x="170.63636363636363" y="657.8181818181819" type="curve" smooth="yes"/>
      <point x="135.9090909090909" y="479.45454545454544" type="line" smooth="yes"/>
      <point x="130.09090909090912" y="449.72727272727275"/>
      <point x="142.72727272727272" y="438.54545454545456"/>
      <point x="183.63636363636365" y="438.54545454545456" type="curve" smooth="yes"/>
      <point x="192.09090909090907" y="438.54545454545456"/>
      <point x="199.7272727272727" y="439.09090909090907"/>
    </contour>
  </outline>
</glyph>
<glyph name="parenleft" format="2">
  <advance width="387.5"/>
  <unicode hex="0028"/>
  <outline>
    <contour>
      <point x="368.25" y="747.0" type="curve" smooth="yes"/>
      <point x="235.0" y="648.25"/>
      <point x="129.5" y="485.25"/>
      <point x="87.75" y="315.25" type="curve" smooth="yes"/>
      <point x="84.25" y="301.0" type="line" smooth="yes"/>
      <point x="42.5" y="128.75"/>
      <point x="70.75" y="-44.75"/>
      <point x="143.75" y="-144.75" type="curve" smooth="yes"/>
      <point x="158.25" y="-165.25"/>
      <point x="173.0" y="-172.25"/>
      <point x="192.25" y="-172.25" type="curve" smooth="yes"/>
      <point x="210.0" y="-172.25"/>
      <point x="227.0" y="-167.0"/>
      <point x="239.0" y="-156.25" type="curve"/>
      <point x="240.25" y="-150.25" type="line"/>
      <point x="149.25" y="-33.5"/>
      <point x="124.5" y="124.0"/>
      <point x="167.25" y="299.5" type="curve" smooth="yes"/>
      <point x="170.75" y="313.75" type="line" smooth="yes"/>
      <point x="210.75" y="476.5"/>
      <point x="312.5" y="624.25"/>
      <point x="478.0" y="741.25" type="curve"/>
      <point x="479.25" y="747.25" type="line"/>
      <point x="469.5" y="760.75"/>
      <point x="451.0" y="770.0"/>
      <point x="430.5" y="770.0" type="curve" smooth="yes"/>
      <point x="408.5" y="770.0"/>
      <point x="391.25" y="764.25"/>
    </contour>
  </outline>
</glyph>
<glyph name="parenright" format="2">
  <advance width="387.5"/>
  <unicode hex="0029"/>
  <outline>
    <contour>
      <point x="60.75" y="-149.25" type="curve" smooth="yes"/>
      <point x="194.0" y="-50.5"/>
      <point x="299.5" y="112.5"/>
      <point x="341.25" y="282.5" type="curve" smooth="yes"/>
      <point x="344.75" y="296.75" type="line" smooth="yes"/>
      <point x="386.5" y="469.0"/>
      <point x="358.25" y="642.5"/>
      <point x="285.25" y="742.5" type="curve" smooth="yes"/>
      <point x="270.75" y="763.0"/>
      <point x="256.0" y="770.0"/>
      <point x="236.75" y="770.0" type="curve" smooth="yes"/>
      <point x="219.0" y="770.0"/>
      <point x="202.0" y="764.75"/>
      <point x="190.0" y="754.0" type="curve"/>
      <point x="188.75" y="748.0" type="line"/>
      <point x="279.75" y="631.25"/>
      <point x="304.5" y="473.75"/>
      <point x="261.75" y="298.25" type="curve" smooth="yes"/>
      <point x="258.25" y="284.0" type="line" smooth="yes"/>
      <point x="218.25" y="121.25"/>
      <point x="116.5" y="-26.5"/>
      <point x="-49.0" y="-143.5" type="curve"/>
      <point x="-50.25" y="-149.5" type="line"/>
      <point x="-40.5" y="-163.0"/>
      <point x="-22.0" y="-172.25"/>
      <point x="-1.5" y="-172.25" type="curve" smooth="yes"/>
      <point x="20.5" y="-172.25"/>
      <point x="37.75" y="-166.5"/>
    </contour>
  </outline>
</glyph>
<glyph name="asterisk" format="2">
  <advance width="600.0"/>
  <unicode hex="002A"/>
  <outline>
    <contour>
      <point x="363.45454545454544" y="576.5454545454546" type="curve" smooth="yes"/>
      <point x="346.0909090909091" y="576.5454545454545"/>
      <point x="332.18181818181824" y="574.2727272727273"/>
      <point x="321.6363636363636" y="570.1818181818181" type="curve"/>
      <point x="325.0" y="550.0909090909091"/>
      <point x="324.81818181818176" y="534.4545454545455"/>
      <point x="322.6363636363636" y="507.0" type="curve" smooth="yes"/>
      <point x="316.0909090909091" y="449.09090909090907"/>
      <point x="306.27272727272725" y="401.18181818181824"/>
      <point x="299.3636363636364" y="355.4545454545455" type="curve"/>
      <point x="292.3636363636363" y="351.72727272727275" type="line"/>
      <point x="255.54545454545462" y="383.1818181818182"/>
      <point x="215.63636363636365" y="415.3636363636363"/>
      <point x="174.9090909090909" y="446.3636363636363" type="curve" smooth="yes"/>
      <point x="147.9090909090909" y="467.99999999999994"/>
      <point x="123.18181818181817" y="464.4545454545454"/>
      <point x="105.45454545454545" y="437.5454545454545" type="curve" smooth="yes"/>
      <point x="97.36363636363635" y="425.1818181818182"/>
      <point x="93.72727272727272" y="412.4545454545454"/>
      <point x="91.45454545454545" y="400.2727272727273" type="curve"/>
      <point x="153.8181818181818" y="365.5454545454545"/>
      <point x="202.7272727272727" y="343.8181818181818"/>
      <point x="259.45454545454544" y="313.8181818181818" type="curve"/>
      <point x="257.72727272727275" y="307.81818181818187" type="line"/>
      <point x="195.1818181818182" y="285.54545454545456"/>
      <point x="138.1818181818182" y="262.72727272727275"/>
      <point x="78.36363636363636" y="239.18181818181822" type="curve" smooth="yes"/>
      <point x="48.45454545454545" y="230.0909090909091"/>
      <point x="38.27272727272727" y="204.00000000000003"/>
      <point x="48.63636363636363" y="173.45454545454547" type="curve" smooth="yes"/>
      <point x="52.727272727272734" y="160.36363636363637"/>
      <point x="62.727272727272734" y="150.45454545454544"/>
      <point x="73.54545454545455" y="144.99999999999997" type="curve"/>
      <point x="143.27272727272728" y="186.18181818181816"/>
      <point x="207.27272727272728" y="225.36363636363635"/>
      <point x="270.81818181818187" y="268.0909090909091" type="curve"/>
      <point x="276.0909090909091" y="264.36363636363643" type="line"/>
      <point x="254.63636363636368" y="212.54545454545456"/>
      <point x="234.09090909090912" y="160.8181818181818"/>
      <point x="220.99999999999997" y="118.0" type="curve" smooth="yes"/>
      <point x="202.8181818181818" y="69.45454545454547"/>
      <point x="215.72727272727272" y="43.18181818181818"/>
      <point x="254.18181818181822" y="43.18181818181818" type="curve" smooth="yes"/>
      <point x="269.6363636363636" y="43.18181818181818"/>
      <point x="285.99999999999994" y="44.45454545454545"/>
      <point x="298.7272727272727" y="48.81818181818182" type="curve"/>
      <point x="295.5454545454545" y="67.36363636363636"/>
      <point x="295.00000000000006" y="85.45454545454545"/>
      <point x="299.0909090909091" y="113.18181818181819" type="curve" smooth="yes"/>
      <point x="306.27272727272725" y="165.27272727272728"/>
      <point x="316.36363636363643" y="213.45454545454547"/>
      <point x="324.6363636363636" y="264.6363636363637" type="curve"/>
      <point x="331.3636363636364" y="267.81818181818187" type="line"/>
      <point x="368.3636363636364" y="231.54545454545453"/>
      <point x="400.45454545454544" y="202.99999999999997"/>
      <point x="439.1818181818182" y="171.0" type="curve" smooth="yes"/>
      <point x="465.3636363636363" y="147.0909090909091"/>
      <point x="492.81818181818187" y="152.81818181818184"/>
      <point x="514.8181818181819" y="182.36363636363635" type="curve" smooth="yes"/>
      <point x="522.0" y="191.81818181818178"/>
      <point x="526.6363636363636" y="202.36363636363637"/>
      <point x="529.7272727272726" y="215.45454545454547" type="curve"/>
      <point x="467.72727272727275" y="249.72727272727275"/>
      <point x="412.90909090909093" y="281.90909090909093"/>
      <point x="360.0909090909091" y="307.0" type="curve"/>
      <point x="361.81818181818187" y="313.0" type="line"/>
      <point x="421.81818181818187" y="334.2727272727273"/>
      <point x="479.54545454545456" y="356.90909090909093"/>
      <point x="545.1818181818181" y="383.6363636363637" type="curve" smooth="yes"/>
      <point x="576.1818181818181" y="394.0"/>
      <point x="588.8181818181818" y="420.45454545454544"/>
      <point x="575.3636363636363" y="449.00000000000006" type="curve" smooth="yes"/>
      <point x="569.7272727272726" y="461.0909090909091"/>
      <point x="562.3636363636364" y="468.72727272727275"/>
      <point x="553.0" y="475.0909090909091" type="curve"/>
      <point x="464.18181818181813" y="423.6363636363636"/>
      <point x="400.72727272727275" y="384.90909090909093"/>
      <point x="350.3636363636364" y="351.45454545454544" type="curve"/>
      <point x="345.0909090909091" y="355.45454545454544" type="line"/>
      <point x="363.27272727272725" y="396.3636363636364"/>
      <point x="384.90909090909093" y="451.1818181818182"/>
      <point x="400.09090909090907" y="500.27272727272725" type="curve" smooth="yes"/>
      <point x="417.6363636363637" y="549.2727272727273"/>
      <point x="405.72727272727275" y="576.5454545454546"/>
    </contour>
  </outline>
</glyph>
<glyph name="plus" format="2">
  <advance width="600.0"/>
  <unicode hex="002B"/>
  <outline>
    <contour>
      <point x="312.5454545454545" y="537.8181818181819" type="curve"/>
      <point x="316.8181818181818" y="514.9090909090909"/>
      <point x="317.0" y="492.1818181818182"/>
      <point x="309.99999999999994" y="451.90909090909093" type="curve" smooth="yes"/>
      <point x="291.54545454545456" y="347.54545454545456"/>
      <point x="232.63636363636365" y="225.36363636363637"/>
      <point x="218.4545454545455" y="126.0" type="curve" smooth="yes"/>
      <point x="211.72727272727275" y="80.27272727272727"/>
      <point x="229.18181818181822" y="57.27272727272727"/>
      <point x="272.0" y="57.27272727272727" type="curve" smooth="yes"/>
      <point x="279.8181818181818" y="57.27272727272727"/>
      <point x="285.6363636363636" y="58.27272727272727"/>
      <point x="292.6363636363636" y="60.27272727272727" type="curve"/>
      <point x="297.45454545454544" y="185.0909090909091"/>
      <point x="364.63636363636357" y="311.0"/>
      <point x="391.3636363636363" y="447.27272727272725" type="curve" smooth="yes"/>
      <point x="405.9090909090909" y="512.4545454545454"/>
      <point x="388.99999999999994" y="541.6363636363636"/>
      <point x="340.6363636363636" y="541.6363636363636" type="curve" smooth="yes"/>
      <point x="329.1818181818182" y="541.6363636363636"/>
      <point x="320.4545454545454" y="540.3636363636363"/>
    </contour>
    <contour>
      <point x="76.63636363636364" y="338.6363636363636" type="line"/>
      <point x="72.45454545454547" y="328.81818181818176"/>
      <point x="68.0909090909091" y="316.72727272727275"/>
      <point x="65.27272727272728" y="306.9090909090909" type="curve" smooth="yes"/>
      <point x="57.54545454545455" y="278.7272727272727"/>
      <point x="69.18181818181819" y="261.3636363636364"/>
      <point x="96.27272727272728" y="261.3636363636364" type="curve"/>
      <point x="541.090909090909" y="261.3636363636364" type="line"/>
      <point x="544.7272727272727" y="271.2727272727273"/>
      <point x="548.5454545454546" y="282.5454545454545"/>
      <point x="551.3636363636364" y="293.09090909090907" type="curve" smooth="yes"/>
      <point x="558.6363636363636" y="322.6363636363636"/>
      <point x="547.5454545454545" y="338.6363636363636"/>
      <point x="517.6363636363636" y="338.6363636363636" type="curve"/>
    </contour>
  </outline>
</glyph>
<glyph name="comma" format="2">
  <advance width="375.0"/>
  <unicode hex="002C"/>
  <outline>
    <contour>
      <point x="42.5" y="-192.5" type="curve" smooth="yes"/>
      <point x="56.25" y="-192.5"/>
      <point x="65.5" y="-189.75"/>
      <point x="74.25" y="-181.0" type="curve"/>
      <point x="151.5" y="-114.25"/>
      <point x="216.25" y="-3.25"/>
      <point x="244.75" y="119.25" type="curve"/>
      <point x="252.0" y="153.75"/>
      <point x="232.25" y="170.5"/>
      <point x="189.0" y="170.5" type="curve" smooth="yes"/>
      <point x="172.25" y="170.5"/>
      <point x="158.0" y="167.75"/>
      <point x="143.0" y="161.75" type="curve"/>
      <point x="108.0" y="5.5"/>
      <point x="73.5" y="-70.75"/>
      <point x="-9.25" y="-173.5" type="curve"/>
      <point x="4.5" y="-186.25"/>
      <point x="21.25" y="-192.5"/>
    </contour>
  </outline>
</glyph>
<glyph name="hyphen" format="2">
  <advance width="600.0"/>
  <unicode hex="002D"/>
  <outline>
    <contour>
      <point x="124.36363636363636" y="338.3636363636364" type="line"/>
      <point x="123.09090909090908" y="334.54545454545456"/>
      <point x="122.0909090909091" y="330.0"/>
      <point x="120.81818181818183" y="325.90909090909093" type="curve" smooth="yes"/>
      <point x="108.0909090909091" y="278.45454545454544"/>
      <point x="115.0" y="261.0909090909091"/>
      <point x="150.45454545454547" y="261.0909090909091" type="curve"/>
      <point x="490.6363636363637" y="261.0909090909091" type="line"/>
      <point x="493.8181818181818" y="269.0"/>
      <point x="497.0" y="278.1818181818182"/>
      <point x="499.0909090909092" y="285.54545454545456" type="curve" smooth="yes"/>
      <point x="509.2727272727273" y="320.90909090909093"/>
      <point x="501.8181818181818" y="338.3636363636364"/>
      <point x="475.72727272727275" y="338.3636363636364" type="curve"/>
    </contour>
  </outline>
</glyph>
<glyph name="period" format="2">
  <advance width="350.0"/>
  <unicode hex="002E"/>
  <outline>
    <contour>
      <point x="183.63636363636363" y="6.545454545454544" type="curve"/>
      <point x="203.72727272727275" y="84.45454545454545" type="line" smooth="yes"/>
      <point x="213.36363636363637" y="125.36363636363636"/>
      <point x="189.36363636363635" y="147.0909090909091"/>
      <point x="135.54545454545456" y="147.0909090909091" type="curve"/>
      <point x="110.54545454545455" y="147.0909090909091"/>
      <point x="87.81818181818181" y="142.0909090909091"/>
      <point x="69.0" y="133.0909090909091" type="curve"/>
      <point x="48.909090909090914" y="55.727272727272734" type="line" smooth="yes"/>
      <point x="39.27272727272728" y="14.81818181818182"/>
      <point x="63.81818181818182" y="-6.636363636363637"/>
      <point x="119.81818181818181" y="-6.636363636363637" type="curve" smooth="yes"/>
      <point x="144.0" y="-6.636363636363637"/>
      <point x="167.0" y="-1.6363636363636362"/>
    </contour>
  </outline>
</glyph>
<glyph name="slash" format="2">
  <advance width="600.0"/>
  <unicode hex="002F"/>
  <outline>
    <contour>
      <point x="527.25" y="750.25" type="curve"/>
      <point x="515.75" y="756.25"/>
      <point x="505.75" y="759.0"/>
      <point x="491.25" y="759.0" type="curve" smooth="yes"/>
      <point x="466.25" y="759.0"/>
      <point x="443.75" y="751.25"/>
      <point x="436.75" y="727.0" type="curve" smooth="yes"/>
      <point x="360.0" y="444.0"/>
      <point x="252.75" y="182.5"/>
      <point x="113.0" y="-53.75" type="curve" smooth="yes"/>
      <point x="93.75" y="-85.75"/>
      <point x="79.0" y="-107.25"/>
      <point x="59.24999999999999" y="-128.0" type="curve"/>
      <point x="72.0" y="-135.0"/>
      <point x="84.75" y="-138.0"/>
      <point x="102.0" y="-138.0" type="curve" smooth="yes"/>
      <point x="131.0" y="-138.0"/>
      <point x="152.75" y="-127.75"/>
      <point x="171.25" y="-99.0" type="curve"/>
      <point x="324.0" y="146.75"/>
      <point x="442.5" y="429.75"/>
    </contour>
  </outline>
</glyph>
<glyph name="zero" format="2">
  <advance width="600.0"/>
  <unicode hex="0030"/>
  <outline>
    <contour>
      <point x="403.90909090909093" y="720.0" type="curve" smooth="yes"/>
      <point x="269.45454545454544" y="720.0"/>
      <point x="156.27272727272728" y="614.4545454545455"/>
      <point x="95.63636363636363" y="375.72727272727275" type="curve" smooth="yes"/>
      <point x="85.63636363636363" y="336.45454545454544" type="line" smooth="yes"/>
      <point x="29.727272727272727" y="117.9090909090909"/>
      <point x="101.81818181818181" y="-20.0"/>
      <point x="240.81818181818184" y="-20.0" type="curve" smooth="yes"/>
      <point x="367.0" y="-20.0"/>
      <point x="484.18181818181824" y="73.09090909090911"/>
      <point x="541.7272727272727" y="310.2727272727273" type="curve" smooth="yes"/>
      <point x="553.1818181818182" y="358.0909090909091" type="line" smooth="yes"/>
      <point x="607.909090909091" y="581.8181818181818"/>
      <point x="546.5454545454546" y="720.0"/>
    </contour>
    <contour>
      <point x="399.09090909090907" y="647.2727272727273" type="curve" smooth="yes"/>
      <point x="424.8181818181818" y="647.2727272727273"/>
      <point x="445.0" y="642.1818181818181"/>
      <point x="462.4545454545454" y="631.7272727272727" type="curve" smooth="yes"/>
      <point x="502.8181818181818" y="579.0"/>
      <point x="507.99999999999994" y="489.09090909090907"/>
      <point x="477.1818181818182" y="356.81818181818176" type="curve" smooth="yes"/>
      <point x="469.8181818181818" y="325.6363636363636" type="line" smooth="yes"/>
      <point x="431.6363636363636" y="161.4545454545455"/>
      <point x="354.7272727272727" y="55.63636363636364"/>
      <point x="244.36363636363635" y="55.63636363636364" type="curve" smooth="yes"/>
      <point x="216.8181818181818" y="55.63636363636364"/>
      <point x="191.45454545454547" y="61.72727272727273"/>
      <point x="174.63636363636363" y="74.63636363636363" type="curve" smooth="yes"/>
      <point x="138.36363636363637" y="125.9090909090909"/>
      <point x="132.72727272727272" y="213.9090909090909"/>
      <point x="161.63636363636365" y="326.1818181818182" type="curve" smooth="yes"/>
      <point x="169.72727272727272" y="358.09090909090907" type="line" smooth="yes"/>
      <point x="216.36363636363637" y="540.3636363636364"/>
      <point x="293.8181818181818" y="647.2727272727273"/>
    </contour>
  </outline>
</glyph>
<glyph name="one" format="2">
  <advance width="600.0"/>
  <unicode hex="0031"/>
  <outline>
    <contour>
      <point x="387.75" y="704.5" type="curve"/>
      <point x="364.25" y="675.75"/>
      <point x="332.5" y="643.75"/>
      <point x="289.25" y="608.75" type="curve" smooth="yes"/>
      <point x="245.25" y="573.25"/>
      <point x="203.5" y="550.0"/>
      <point x="158.0" y="531.0" type="curve"/>
      <point x="154.75" y="519.5" type="line" smooth="yes"/>
      <point x="142.25" y="477.0"/>
      <point x="150.0" y="460.0"/>
      <point x="169.5" y="460.0" type="curve" smooth="yes"/>
      <point x="194.75" y="460.0"/>
      <point x="243.25" y="482.0"/>
      <point x="292.5" y="522.75" type="curve" smooth="yes"/>
      <point x="335.75" y="558.75"/>
      <point x="364.0" y="588.25"/>
      <point x="400.5" y="642.75" type="curve"/>
      <point x="360.25" y="617.75" type="line"/>
      <point x="414.5" y="617.75" type="line"/>
      <point x="394.75" y="647.5" type="line"/>
      <point x="365.0" y="467.25"/>
      <point x="248.0" y="271.25"/>
      <point x="227.25" y="146.25" type="curve" smooth="yes"/>
      <point x="221.0" y="110.25"/>
      <point x="225.25" y="91.0"/>
      <point x="239.75" y="76.75" type="curve"/>
      <point x="230.25" y="48.25" type="line"/>
      <point x="285.25" y="48.25" type="line"/>
      <point x="298.0" y="226.5"/>
      <point x="442.25" y="470.75"/>
      <point x="476.25" y="656.75" type="curve" smooth="yes"/>
      <point x="483.0" y="693.0"/>
      <point x="465.0" y="710.0"/>
      <point x="431.0" y="710.0" type="curve" smooth="yes"/>
      <point x="414.75" y="710.0"/>
      <point x="399.0" y="708.0"/>
    </contour>
    <contour>
      <point x="35.0" y="70.75" type="curve"/>
      <point x="32.0" y="64.75"/>
      <point x="28.0" y="56.0"/>
      <point x="25.5" y="46.25" type="curve" smooth="yes"/>
      <point x="22.0" y="32.5"/>
      <point x="21.25" y="20.0"/>
      <point x="26.0" y="11.75" type="curve" smooth="yes"/>
      <point x="30.5" y="4.25"/>
      <point x="38.75" y="0.0"/>
      <point x="61.5" y="0.0" type="curve" smooth="yes"/>
      <point x="95.0" y="0.0"/>
      <point x="480.0" y="0.0"/>
      <point x="490.5" y="0.0" type="curve"/>
      <point x="493.0" y="4.5"/>
      <point x="496.0" y="12.0"/>
      <point x="497.0" y="19.0" type="curve" smooth="yes"/>
      <point x="501.0" y="48.25"/>
      <point x="450.75" y="70.75"/>
      <point x="327.25" y="70.75" type="curve" smooth="yes"/>
      <point x="312.0" y="70.75"/>
      <point x="45.5" y="70.75"/>
    </contour>
  </outline>
</glyph>
<glyph name="two" format="2">
  <advance width="600.0"/>
  <unicode hex="0032"/>
  <outline>
    <contour>
      <point x="397.1818181818182" y="720.0" type="curve" smooth="yes"/>
      <point x="324.90909090909093" y="720.0"/>
      <point x="271.5454545454545" y="701.3636363636365"/>
      <point x="228.2727272727273" y="664.6363636363636" type="curve" smooth="yes"/>
      <point x="190.18181818181816" y="633.0909090909092"/>
      <point x="163.45454545454544" y="594.5454545454545"/>
      <point x="155.63636363636365" y="557.0" type="curve" smooth="yes"/>
      <point x="148.1818181818182" y="523.0909090909091"/>
      <point x="165.0" y="495.3636363636364"/>
      <point x="202.45454545454547" y="489.72727272727275" type="curve"/>
      <point x="207.72727272727275" y="489.72727272727275" type="line"/>
      <point x="235.00000000000003" y="585.6363636363636"/>
      <point x="296.9090909090909" y="644.3636363636364"/>
      <point x="394.2727272727273" y="644.3636363636364" type="curve" smooth="yes"/>
      <point x="445.7272727272727" y="644.3636363636364"/>
      <point x="480.8181818181818" y="631.3636363636364"/>
      <point x="502.1818181818182" y="603.2727272727274" type="curve" smooth="yes"/>
      <point x="509.54545454545456" y="581.909090909091"/>
      <point x="511.54545454545456" y="551.9090909090909"/>
      <point x="505.3636363636363" y="525.8181818181818" type="curve" smooth="yes"/>
      <point x="504.3636363636363" y="521.5454545454545" type="line" smooth="yes"/>
      <point x="482.6363636363636" y="430.54545454545456"/>
      <point x="437.3636363636363" y="384.1818181818182"/>
      <point x="278.0909090909091" y="300.3636363636364" type="curve" smooth="yes"/>
      <point x="121.36363636363636" y="219.45454545454544"/>
      <point x="41.90909090909091" y="160.0909090909091"/>
      <point x="17.363636363636356" y="62.909090909090914" type="curve" smooth="yes"/>
      <point x="16.090909090909086" y="57.81818181818182" type="line" smooth="yes"/>
      <point x="9.909090909090903" y="34.09090909090909"/>
      <point x="16.63636363636363" y="0.0"/>
      <point x="37.99999999999999" y="0.0" type="curve" smooth="yes"/>
      <point x="58.0909090909091" y="0.0"/>
      <point x="414.2193636363637" y="0.0"/>
      <point x="459.00000000000006" y="0.0" type="curve"/>
      <point x="464.81818181818187" y="6.545454545454546"/>
      <point x="469.4545454545455" y="14.909090909090905"/>
      <point x="472.5454545454546" y="26.454545454545453" type="curve" smooth="yes"/>
      <point x="479.81818181818187" y="56.81818181818181"/>
      <point x="468.36363636363643" y="73.0"/>
      <point x="421.8181818181818" y="73.0" type="curve"/>
      <point x="249.63636363636365" y="73.0" type="line" smooth="yes"/>
      <point x="171.45454545454547" y="73.0"/>
      <point x="119.45454545454545" y="68.0909090909091"/>
      <point x="58.27272727272727" y="52.545454545454554" type="curve"/>
      <point x="108.27272727272728" y="59.81818181818183" type="line"/>
      <point x="62.00000000000001" y="59.81818181818183" type="line"/>
      <point x="72.54545454545455" y="34.272727272727266" type="line"/>
      <point x="103.63636363636363" y="119.36363636363635"/>
      <point x="142.54545454545456" y="158.54545454545456"/>
      <point x="318.6363636363636" y="246.45454545454544" type="curve" smooth="yes"/>
      <point x="461.6363636363637" y="316.72727272727275"/>
      <point x="548.9090909090909" y="380.8181818181818"/>
      <point x="576.2727272727273" y="496.27272727272737" type="curve" smooth="yes"/>
      <point x="578.7272727272727" y="506.3636363636364" type="line" smooth="yes"/>
      <point x="607.1818181818181" y="628.8181818181819"/>
      <point x="537.1818181818182" y="720.0"/>
    </contour>
  </outline>
</glyph>
<glyph name="three" format="2">
  <advance width="600.0"/>
  <unicode hex="0033"/>
  <outline>
    <contour>
      <point x="381.5" y="719.25" type="curve" smooth="yes"/>
      <point x="297.5" y="719.25"/>
      <point x="230.0" y="693.0"/>
      <point x="199.5" y="667.0" type="curve" smooth="yes"/>
      <point x="177.25" y="648.0"/>
      <point x="168.0" y="627.0"/>
      <point x="163.5" y="605.25" type="curve" smooth="yes"/>
      <point x="160.5" y="589.5"/>
      <point x="161.25" y="575.0"/>
      <point x="164.75" y="561.25" type="curve"/>
      <point x="170.75" y="561.25" type="line"/>
      <point x="221.5" y="620.25"/>
      <point x="284.25" y="645.5"/>
      <point x="374.5" y="645.5" type="curve" smooth="yes"/>
      <point x="471.75" y="645.5"/>
      <point x="518.0" y="599.5"/>
      <point x="518.0" y="537.25" type="curve" smooth="yes"/>
      <point x="517.0" y="532.25" type="line" smooth="yes"/>
      <point x="479.75" y="407.5"/>
      <point x="368.25" y="355.5"/>
      <point x="199.25" y="354.75" type="curve"/>
      <point x="193.25" y="347.0"/>
      <point x="188.0" y="336.75"/>
      <point x="185.25" y="324.5" type="curve" smooth="yes"/>
      <point x="181.0" y="304.75"/>
      <point x="183.5" y="287.25"/>
      <point x="204.25" y="286.5" type="curve" smooth="yes"/>
      <point x="359.0" y="284.5"/>
      <point x="446.75" y="238.25"/>
      <point x="436.5" y="150.5" type="curve" smooth="yes"/>
      <point x="435.5" y="144.5" type="line" smooth="yes"/>
      <point x="410.5" y="76.75"/>
      <point x="346.0" y="53.75"/>
      <point x="248.0" y="53.75" type="curve" smooth="yes"/>
      <point x="145.25" y="53.75"/>
      <point x="88.0" y="84.25"/>
      <point x="56.25" y="150.75" type="curve"/>
      <point x="50.25" y="150.75" type="line"/>
      <point x="40.75" y="138.0"/>
      <point x="36.5" y="129.0"/>
      <point x="32.75" y="114.0" type="curve" smooth="yes"/>
      <point x="27.5" y="91.25"/>
      <point x="32.0" y="62.25"/>
      <point x="54.0" y="38.75" type="curve" smooth="yes"/>
      <point x="82.25" y="8.25"/>
      <point x="147.25" y="-20.0"/>
      <point x="244.25" y="-20.0" type="curve" smooth="yes"/>
      <point x="380.75" y="-20.0"/>
      <point x="474.0" y="27.0"/>
      <point x="499.25" y="129.0" type="curve" smooth="yes"/>
      <point x="501.75" y="139.0" type="line" smooth="yes"/>
      <point x="522.5" y="222.75"/>
      <point x="472.75" y="300.0"/>
      <point x="340.0" y="327.0" type="curve"/>
      <point x="361.0" y="298.0" type="line"/>
      <point x="374.0" y="349.75" type="line"/>
      <point x="340.25" y="318.75" type="line"/>
      <point x="487.0" y="353.5"/>
      <point x="559.5" y="415.5"/>
      <point x="583.0" y="508.5" type="curve" smooth="yes"/>
      <point x="585.5" y="518.5" type="line" smooth="yes"/>
      <point x="612.0" y="623.5"/>
      <point x="544.0" y="719.25"/>
    </contour>
  </outline>
</glyph>
<glyph name="four" format="2">
  <advance width="600.0"/>
  <unicode hex="0034"/>
  <outline>
    <contour>
      <point x="524.25" y="714.5" type="curve" smooth="yes"/>
      <point x="493.0" y="714.5"/>
      <point x="464.25" y="702.25"/>
      <point x="407.25" y="656.75" type="curve" smooth="yes"/>
      <point x="229.75" y="513.5"/>
      <point x="61.25" y="300.0"/>
      <point x="39.0" y="223.75" type="curve" smooth="yes"/>
      <point x="35.75" y="212.5" type="line"/>
      <point x="25.75" y="176.25"/>
      <point x="37.5" y="151.25"/>
      <point x="63.25" y="151.25" type="curve" smooth="yes"/>
      <point x="534.5" y="151.25" type="line"/>
      <point x="538.75" y="158.75"/>
      <point x="542.5" y="167.5"/>
      <point x="545.0" y="178.0" type="curve" smooth="yes"/>
      <point x="550.5" y="203.0"/>
      <point x="547.5" y="225.0"/>
      <point x="520.5" y="225.0" type="curve" smooth="yes"/>
      <point x="267.5" y="225.0" type="line" smooth="yes"/>
      <point x="174.75" y="225.0"/>
      <point x="133.0" y="222.5"/>
      <point x="86.75" y="212.5" type="curve"/>
      <point x="107.0" y="198.5" type="line"/>
      <point x="118.25" y="243.5" type="line"/>
      <point x="94.25" y="193.5" type="line"/>
      <point x="206.75" y="376.5"/>
      <point x="426.75" y="600.25"/>
      <point x="587.25" y="687.25" type="curve"/>
      <point x="588.25" y="693.25" type="line"/>
      <point x="575.5" y="706.5"/>
      <point x="556.0" y="714.5"/>
    </contour>
    <contour>
      <point x="439.25" y="383.25" type="curve"/>
      <point x="420.5" y="348.75"/>
      <point x="389.75" y="263.5"/>
      <point x="373.25" y="197.0" type="curve" smooth="yes"/>
      <point x="358.0" y="135.75"/>
      <point x="347.5" y="87.25"/>
      <point x="342.0" y="46.25" type="curve" smooth="yes"/>
      <point x="337.5" y="7.0"/>
      <point x="352.0" y="-9.5"/>
      <point x="382.25" y="-9.5" type="curve" smooth="yes"/>
      <point x="398.0" y="-9.5"/>
      <point x="409.5" y="-7.0"/>
      <point x="419.5" y="-3.75" type="curve"/>
      <point x="418.0" y="39.75"/>
      <point x="421.75" y="72.5"/>
      <point x="448.0" y="178.0" type="curve" smooth="yes"/>
      <point x="490.25" y="345.25" type="line"/>
      <point x="495.75" y="367.5"/>
      <point x="485.75" y="384.75"/>
      <point x="455.0" y="384.75" type="curve" smooth="yes"/>
      <point x="448.5" y="384.75"/>
      <point x="443.5" y="384.0"/>
    </contour>
  </outline>
</glyph>
<glyph name="five" format="2">
  <advance width="600.0"/>
  <unicode hex="0035"/>
  <outline>
    <contour>
      <point x="214.72727272727272" y="700.0" type="curve"/>
      <point x="208.9090909090909" y="691.5454545454545"/>
      <point x="203.8181818181818" y="680.5454545454545"/>
      <point x="201.0" y="667.2727272727273" type="curve" smooth="yes"/>
      <point x="195.72727272727272" y="641.8181818181819"/>
      <point x="201.0" y="624.090909090909"/>
      <point x="232.09090909090912" y="624.090909090909" type="curve" smooth="yes"/>
      <point x="267.54545454545456" y="624.090909090909"/>
      <point x="578.4545454545456" y="624.090909090909"/>
      <point x="591.8181818181819" y="624.090909090909" type="curve"/>
      <point x="597.9090909090909" y="633.2727272727273"/>
      <point x="603.8181818181819" y="645.9090909090909"/>
      <point x="606.909090909091" y="659.4545454545454" type="curve" smooth="yes"/>
      <point x="612.909090909091" y="683.3636363636364"/>
      <point x="602.4545454545456" y="700.0"/>
      <point x="569.0000000000001" y="700.0" type="curve"/>
      <point x="539.1818181818181" y="700.0"/>
      <point x="233.99999999999997" y="700.0"/>
    </contour>
    <contour>
      <point x="259.27272727272725" y="646.9090909090909" type="line"/>
      <point x="204.00000000000003" y="559.6363636363637"/>
      <point x="151.1818181818182" y="447.9090909090909"/>
      <point x="113.45454545454547" y="335.27272727272725" type="curve" smooth="yes"/>
      <point x="105.63636363636364" y="312.4545454545454"/>
      <point x="113.63636363636363" y="301.8181818181818"/>
      <point x="157.9090909090909" y="301.8181818181818" type="curve" smooth="yes"/>
      <point x="186.27272727272728" y="301.8181818181818" type="line"/>
      <point x="211.45454545454547" y="301.8181818181818"/>
      <point x="236.63636363636363" y="301.8181818181818"/>
      <point x="264.0" y="301.8181818181818" type="curve" smooth="yes"/>
      <point x="390.99999999999994" y="301.8181818181818"/>
      <point x="449.9090909090909" y="263.54545454545456"/>
      <point x="443.0909090909091" y="178.8181818181818" type="curve" smooth="yes"/>
      <point x="441.3636363636364" y="171.90909090909093" type="line" smooth="yes"/>
      <point x="424.0909090909091" y="101.72727272727273"/>
      <point x="355.6363636363637" y="55.90909090909091"/>
      <point x="246.27272727272725" y="55.90909090909091" type="curve" smooth="yes"/>
      <point x="144.36363636363635" y="55.90909090909091"/>
      <point x="87.18181818181819" y="86.36363636363637"/>
      <point x="51.54545454545455" y="150.72727272727275" type="curve"/>
      <point x="45.54545454545455" y="150.72727272727275" type="line"/>
      <point x="39.272727272727266" y="141.1818181818182"/>
      <point x="34.45454545454545" y="130.1818181818182"/>
      <point x="31.36363636363636" y="116.90909090909092" type="curve" smooth="yes"/>
      <point x="24.999999999999996" y="91.18181818181819"/>
      <point x="27.909090909090907" y="60.81818181818183"/>
      <point x="48.090909090909086" y="39.18181818181818" type="curve" smooth="yes"/>
      <point x="74.54545454545455" y="10.545454545454545"/>
      <point x="132.0909090909091" y="-20.0"/>
      <point x="236.1818181818182" y="-20.0" type="curve" smooth="yes"/>
      <point x="378.7272727272727" y="-20.0"/>
      <point x="473.1818181818182" y="38.45454545454545"/>
      <point x="501.3636363636364" y="152.27272727272728" type="curve" smooth="yes"/>
      <point x="504.1818181818182" y="163.8181818181818" type="line" smooth="yes"/>
      <point x="530.3636363636364" y="267.90909090909093"/>
      <point x="470.3636363636364" y="365.8181818181818"/>
      <point x="308.81818181818176" y="365.8181818181818" type="curve" smooth="yes"/>
      <point x="253.27272727272734" y="365.8181818181818"/>
      <point x="214.27272727272728" y="358.45454545454544"/>
      <point x="174.1818181818182" y="342.8181818181818" type="curve"/>
      <point x="232.54545454545456" y="352.72727272727275" type="line"/>
      <point x="171.09090909090907" y="352.72727272727275" type="line"/>
      <point x="187.54545454545453" y="326.00000000000006" type="line"/>
      <point x="214.63636363636363" y="413.5454545454545"/>
      <point x="253.27272727272725" y="490.00000000000006"/>
      <point x="283.8181818181818" y="546.1818181818181" type="curve" smooth="yes"/>
      <point x="300.5454545454545" y="577.3636363636364"/>
      <point x="303.0" y="599.4545454545455"/>
      <point x="295.63636363636357" y="618.0909090909091" type="curve"/>
      <point x="304.9090909090909" y="646.9090909090909" type="line"/>
    </contour>
  </outline>
</glyph>
<glyph name="six" format="2">
  <advance width="600.0"/>
  <unicode hex="0036"/>
  <outline>
    <contour>
      <point x="440.75" y="720.0" type="curve" smooth="yes"/>
      <point x="272.5" y="720.0"/>
      <point x="152.0" y="613.75"/>
      <point x="90.75" y="354.0" type="curve" smooth="yes"/>
      <point x="88.0" y="342.25" type="line" smooth="yes"/>
      <point x="33.5" y="110.75"/>
      <point x="101.25" y="-20.0"/>
      <point x="259.5" y="-20.0" type="curve" smooth="yes"/>
      <point x="389.0" y="-20.0"/>
      <point x="477.25" y="43.75"/>
      <point x="505.25" y="170.0" type="curve" smooth="yes"/>
      <point x="508.25" y="183.5" type="line" smooth="yes"/>
      <point x="537.75" y="315.5"/>
      <point x="459.75" y="389.0"/>
      <point x="343.75" y="389.0" type="curve" smooth="yes"/>
      <point x="251.75" y="389.0"/>
      <point x="195.5" y="363.5"/>
      <point x="146.25" y="305.75" type="curve"/>
      <point x="193.75" y="328.5" type="line"/>
      <point x="129.5" y="328.5" type="line"/>
      <point x="109.0" y="254.0" type="line"/>
      <point x="174.0" y="298.5"/>
      <point x="244.75" y="322.75"/>
      <point x="317.75" y="322.75" type="curve" smooth="yes"/>
      <point x="377.5" y="322.75"/>
      <point x="418.75" y="304.5"/>
      <point x="437.75" y="279.25" type="curve" smooth="yes"/>
      <point x="442.0" y="252.0"/>
      <point x="442.0" y="221.0"/>
      <point x="435.75" y="186.75" type="curve" smooth="yes"/>
      <point x="434.5" y="180.0" type="line" smooth="yes"/>
      <point x="421.75" y="105.75"/>
      <point x="361.5" y="48.75"/>
      <point x="267.75" y="48.75" type="curve" smooth="yes"/>
      <point x="231.25" y="48.75"/>
      <point x="200.5" y="57.25"/>
      <point x="174.75" y="78.0" type="curve" smooth="yes"/>
      <point x="144.0" y="121.0"/>
      <point x="130.5" y="208.0"/>
      <point x="164.25" y="341.25" type="curve" smooth="yes"/>
      <point x="167.0" y="352.25" type="line" smooth="yes"/>
      <point x="198.25" y="478.0"/>
      <point x="242.5" y="561.5"/>
      <point x="284.25" y="606.5" type="curve" smooth="yes"/>
      <point x="321.5" y="631.75"/>
      <point x="372.5" y="648.5"/>
      <point x="430.5" y="648.5" type="curve" smooth="yes"/>
      <point x="496.5" y="648.5"/>
      <point x="544.5" y="632.25"/>
      <point x="574.0" y="599.75" type="curve"/>
      <point x="580.0" y="599.75" type="line"/>
      <point x="586.25" y="608.0"/>
      <point x="591.5" y="620.0"/>
      <point x="593.75" y="634.0" type="curve" smooth="yes"/>
      <point x="598.0" y="655.25"/>
      <point x="595.5" y="669.0"/>
      <point x="584.75" y="680.75" type="curve" smooth="yes"/>
      <point x="573.0" y="694.0"/>
      <point x="518.0" y="720.0"/>
    </contour>
  </outline>
</glyph>
<glyph name="seven" format="2">
  <advance width="600.0"/>
  <unicode hex="0037"/>
  <outline>
    <contour>
      <point x="210.5" y="720.0" type="curve"/>
      <point x="177.0" y="657.75"/>
      <point x="145.0" y="574.75"/>
      <point x="134.0" y="512.0" type="curve" smooth="yes"/>
      <point x="127.5" y="480.5"/>
      <point x="140.0" y="471.0"/>
      <point x="166.75" y="471.0" type="curve" smooth="yes"/>
      <point x="179.25" y="471.0"/>
      <point x="189.75" y="472.25"/>
      <point x="198.25" y="474.75" type="curve"/>
      <point x="212.25" y="558.5"/>
      <point x="264.5" y="663.25"/>
      <point x="271.0" y="689.25" type="curve" smooth="yes"/>
      <point x="277.0" y="711.25"/>
      <point x="250.0" y="720.0"/>
    </contour>
    <contour>
      <point x="247.5" y="-4.5" type="curve"/>
      <point x="271.75" y="91.5"/>
      <point x="316.0" y="188.75"/>
      <point x="440.75" y="344.0" type="curve" smooth="yes"/>
      <point x="529.75" y="455.25"/>
      <point x="605.25" y="550.25"/>
      <point x="621.75" y="629.5" type="curve" smooth="yes"/>
      <point x="624.0" y="640.0" type="line"/>
      <point x="629.0" y="664.0"/>
      <point x="624.75" y="700.0"/>
      <point x="602.0" y="700.0" type="curve" smooth="yes"/>
      <point x="208.5" y="700.0" type="line"/>
      <point x="198.75" y="658.25"/>
      <point x="199.75" y="630.0"/>
      <point x="222.0" y="630.0" type="curve" smooth="yes"/>
      <point x="408.75" y="630.0" type="line" smooth="yes"/>
      <point x="469.0" y="630.0"/>
      <point x="515.0" y="633.25"/>
      <point x="580.0" y="645.75" type="curve"/>
      <point x="548.5" y="657.75" type="line"/>
      <point x="544.25" y="606.25" type="line"/>
      <point x="560.5" y="668.25" type="line"/>
      <point x="534.0" y="575.75"/>
      <point x="475.5" y="492.5"/>
      <point x="370.75" y="367.5" type="curve" smooth="yes"/>
      <point x="260.5" y="236.25"/>
      <point x="194.5" y="115.5"/>
      <point x="178.25" y="35.5" type="curve" smooth="yes"/>
      <point x="172.25" y="6.25"/>
      <point x="182.25" y="-10.0"/>
      <point x="212.75" y="-10.0" type="curve" smooth="yes"/>
      <point x="226.5" y="-10.0"/>
      <point x="238.25" y="-7.25"/>
    </contour>
  </outline>
</glyph>
<glyph name="eight" format="2">
  <advance width="600.0"/>
  <unicode hex="0038"/>
  <outline>
    <contour>
      <point x="405.75" y="720.0" type="curve" smooth="yes"/>
      <point x="265.25" y="720.0"/>
      <point x="166.5" y="642.75"/>
      <point x="142.75" y="529.25" type="curve" smooth="yes"/>
      <point x="141.5" y="523.5" type="line" smooth="yes"/>
      <point x="124.5" y="444.25"/>
      <point x="149.5" y="354.75"/>
      <point x="272.5" y="304.0" type="curve" smooth="yes"/>
      <point x="362.25" y="267.0" type="line" smooth="yes"/>
      <point x="426.5" y="240.5"/>
      <point x="439.75" y="197.5"/>
      <point x="434.5" y="147.0" type="curve" smooth="yes"/>
      <point x="412.25" y="87.25"/>
      <point x="359.25" y="48.0"/>
      <point x="252.0" y="48.0" type="curve" smooth="yes"/>
      <point x="144.75" y="48.0"/>
      <point x="101.75" y="98.75"/>
      <point x="109.25" y="156.25" type="curve" smooth="yes"/>
      <point x="124.5" y="221.0"/>
      <point x="184.5" y="275.5"/>
      <point x="315.0" y="303.75" type="curve"/>
      <point x="232.5" y="346.75" type="line"/>
      <point x="222.25" y="309.0" type="line"/>
      <point x="255.0" y="326.25" type="line"/>
      <point x="137.0" y="310.25"/>
      <point x="64.0" y="249.25"/>
      <point x="45.25" y="173.75" type="curve" smooth="yes"/>
      <point x="43.25" y="165.75" type="line" smooth="yes"/>
      <point x="20.0" y="73.75"/>
      <point x="79.25" y="-20.0"/>
      <point x="244.0" y="-20.0" type="curve" smooth="yes"/>
      <point x="393.25" y="-20.0"/>
      <point x="473.75" y="35.25"/>
      <point x="498.5" y="130.75" type="curve" smooth="yes"/>
      <point x="500.75" y="139.5" type="line" smooth="yes"/>
      <point x="517.75" y="205.75"/>
      <point x="496.25" y="279.0"/>
      <point x="404.0" y="315.75" type="curve" smooth="yes"/>
      <point x="306.0" y="355.0" type="line" smooth="yes"/>
      <point x="210.25" y="393.5"/>
      <point x="196.5" y="462.0"/>
      <point x="212.25" y="524.0" type="curve"/>
      <point x="235.0" y="612.75"/>
      <point x="312.5" y="650.5"/>
      <point x="398.75" y="650.5" type="curve" smooth="yes"/>
      <point x="445.5" y="650.5"/>
      <point x="478.5" y="636.75"/>
      <point x="505.5" y="617.0" type="curve" smooth="yes"/>
      <point x="521.0" y="588.0"/>
      <point x="527.0" y="549.0"/>
      <point x="518.5" y="515.0" type="curve" smooth="yes"/>
      <point x="516.5" y="507.25" type="line" smooth="yes"/>
      <point x="496.0" y="426.5"/>
      <point x="425.0" y="371.75"/>
      <point x="304.0" y="336.5" type="curve"/>
      <point x="394.0" y="299.5" type="line"/>
      <point x="406.25" y="345.5" type="line"/>
      <point x="373.0" y="316.25" type="line"/>
      <point x="485.75" y="344.25"/>
      <point x="563.5" y="401.75"/>
      <point x="589.0" y="505.0" type="curve" smooth="yes"/>
      <point x="591.0" y="513.0" type="line" smooth="yes"/>
      <point x="618.5" y="622.0"/>
      <point x="551.0" y="720.0"/>
    </contour>
  </outline>
</glyph>
<glyph name="nine" format="2">
  <advance width="600.0"/>
  <unicode hex="0039"/>
  <outline>
    <contour>
      <point x="399.75" y="720.0" type="curve" smooth="yes"/>
      <point x="273.75" y="720.0"/>
      <point x="160.5" y="638.25"/>
      <point x="120.25" y="478.25" type="curve" smooth="yes"/>
      <point x="118.0" y="469.25" type="line" smooth="yes"/>
      <point x="81.75" y="326.0"/>
      <point x="140.25" y="233.75"/>
      <point x="279.0" y="233.75" type="curve" smooth="yes"/>
      <point x="361.75" y="233.75"/>
      <point x="428.0" y="258.25"/>
      <point x="476.0" y="325.25" type="curve"/>
      <point x="429.5" y="302.75" type="line"/>
      <point x="490.5" y="302.75" type="line"/>
      <point x="501.75" y="370.0" type="line"/>
      <point x="437.75" y="326.0"/>
      <point x="369.0" y="303.25"/>
      <point x="296.75" y="303.25" type="curve" smooth="yes"/>
      <point x="247.75" y="303.25"/>
      <point x="208.0" y="318.75"/>
      <point x="185.75" y="347.0" type="curve" smooth="yes"/>
      <point x="175.5" y="381.5"/>
      <point x="179.75" y="420.75"/>
      <point x="190.5" y="465.5" type="curve" smooth="yes"/>
      <point x="192.25" y="472.5" type="line" smooth="yes"/>
      <point x="221.0" y="586.25"/>
      <point x="303.25" y="652.25"/>
      <point x="393.25" y="652.25" type="curve" smooth="yes"/>
      <point x="436.0" y="652.25"/>
      <point x="472.75" y="638.25"/>
      <point x="489.25" y="617.0" type="curve" smooth="yes"/>
      <point x="504.5" y="578.5"/>
      <point x="510.0" y="487.25"/>
      <point x="478.25" y="358.5" type="curve" smooth="yes"/>
      <point x="475.5" y="347.25" type="line" smooth="yes"/>
      <point x="447.0" y="229.75"/>
      <point x="412.25" y="148.5"/>
      <point x="365.75" y="99.0" type="curve" smooth="yes"/>
      <point x="327.25" y="68.5"/>
      <point x="271.25" y="53.5"/>
      <point x="214.75" y="53.5" type="curve" smooth="yes"/>
      <point x="142.0" y="53.5"/>
      <point x="97.5" y="73.25"/>
      <point x="66.25" y="107.75" type="curve"/>
      <point x="60.25" y="107.75" type="line"/>
      <point x="53.75" y="97.5"/>
      <point x="49.75" y="88.25"/>
      <point x="46.5" y="75.5" type="curve" smooth="yes"/>
      <point x="41.0" y="51.5"/>
      <point x="47.0" y="33.25"/>
      <point x="58.25" y="20.25" type="curve" smooth="yes"/>
      <point x="70.5" y="6.5"/>
      <point x="120.5" y="-20.0"/>
      <point x="204.75" y="-20.0" type="curve" smooth="yes"/>
      <point x="379.0" y="-20.0"/>
      <point x="478.0" y="55.25"/>
      <point x="551.0" y="346.25" type="curve" smooth="yes"/>
      <point x="553.75" y="357.25" type="line" smooth="yes"/>
      <point x="611.75" y="590.25"/>
      <point x="557.75" y="720.0"/>
    </contour>
  </outline>
</glyph>
<glyph name="colon" format="2">
  <advance width="400.7272727272727"/>
  <unicode hex="003A"/>
  <outline>
    <contour>
      <point x="329.3636363636364" y="396.90909090909093" type="curve"/>
      <point x="349.45454545454544" y="474.8181818181818" type="line" smooth="yes"/>
      <point x="359.09090909090907" y="515.7272727272727"/>
      <point x="335.0909090909091" y="537.4545454545454"/>
      <point x="281.27272727272725" y="537.4545454545454" type="curve"/>
      <point x="256.2727272727273" y="537.4545454545454"/>
      <point x="233.54545454545456" y="532.4545454545455"/>
      <point x="214.72727272727272" y="523.4545454545454" type="curve"/>
      <point x="194.63636363636363" y="446.0909090909091" type="line" smooth="yes"/>
      <point x="185.0" y="405.18181818181813"/>
      <point x="209.54545454545456" y="383.72727272727275"/>
      <point x="265.5454545454545" y="383.72727272727275" type="curve" smooth="yes"/>
      <point x="289.7272727272727" y="383.72727272727275"/>
      <point x="312.72727272727275" y="388.72727272727275"/>
    </contour>
    <contour>
      <point x="232.4545454545455" y="6.545454545454544" type="curve"/>
      <point x="252.54545454545456" y="84.45454545454545" type="line" smooth="yes"/>
      <point x="262.1818181818182" y="125.36363636363636"/>
      <point x="238.18181818181816" y="147.0909090909091"/>
      <point x="184.36363636363637" y="147.0909090909091" type="curve"/>
      <point x="159.3636363636364" y="147.0909090909091"/>
      <point x="136.63636363636365" y="142.0909090909091"/>
      <point x="117.81818181818184" y="133.0909090909091" type="curve"/>
      <point x="97.72727272727273" y="55.727272727272734" type="line" smooth="yes"/>
      <point x="88.0909090909091" y="14.81818181818182"/>
      <point x="112.63636363636364" y="-6.636363636363637"/>
      <point x="168.63636363636363" y="-6.636363636363637" type="curve" smooth="yes"/>
      <point x="192.8181818181818" y="-6.636363636363637"/>
      <point x="215.81818181818184" y="-1.6363636363636362"/>
    </contour>
  </outline>
</glyph>
<glyph name="semicolon" format="2">
  <advance width="350.0"/>
  <unicode hex="003B"/>
  <outline>
    <contour>
      <point x="295.5454545454545" y="395.6363636363636" type="curve"/>
      <point x="315.63636363636357" y="473.5454545454545" type="line" smooth="yes"/>
      <point x="325.27272727272725" y="514.4545454545454"/>
      <point x="301.27272727272725" y="536.1818181818181"/>
      <point x="247.45454545454547" y="536.1818181818181" type="curve"/>
      <point x="222.45454545454547" y="536.1818181818181"/>
      <point x="199.72727272727275" y="531.1818181818181"/>
      <point x="180.9090909090909" y="522.1818181818181" type="curve"/>
      <point x="160.81818181818178" y="444.8181818181818" type="line" smooth="yes"/>
      <point x="151.18181818181816" y="403.9090909090909"/>
      <point x="175.7272727272727" y="382.45454545454544"/>
      <point x="231.7272727272727" y="382.45454545454544" type="curve" smooth="yes"/>
      <point x="255.90909090909093" y="382.45454545454544"/>
      <point x="278.9090909090909" y="387.4545454545455"/>
    </contour>
    <contour>
      <point x="7.090909090909086" y="-192.72727272727272" type="curve" smooth="yes"/>
      <point x="21.0909090909091" y="-192.72727272727272"/>
      <point x="30.636363636363637" y="-189.9090909090909"/>
      <point x="39.54545454545455" y="-181.00000000000003" type="curve"/>
      <point x="116.54545454545455" y="-114.18181818181819"/>
      <point x="182.0" y="-2.4545454545454533"/>
      <point x="210.27272727272728" y="119.18181818181819" type="curve"/>
      <point x="217.72727272727272" y="154.54545454545456"/>
      <point x="197.45454545454544" y="171.63636363636365"/>
      <point x="152.8181818181818" y="171.63636363636365" type="curve" smooth="yes"/>
      <point x="135.81818181818184" y="171.63636363636365"/>
      <point x="121.45454545454547" y="168.90909090909093"/>
      <point x="105.99999999999999" y="162.90909090909093" type="curve"/>
      <point x="71.09090909090908" y="6.909090909090914"/>
      <point x="36.090909090909086" y="-70.72727272727273"/>
      <point x="-46.18181818181818" y="-173.0909090909091" type="curve"/>
      <point x="-32.18181818181819" y="-186.1818181818182"/>
      <point x="-14.909090909090914" y="-192.72727272727272"/>
    </contour>
  </outline>
</glyph>
<glyph name="less" format="2">
  <advance width="600.0"/>
  <unicode hex="003C"/>
  <outline>
    <contour>
      <point x="77.63636363636365" y="327.7272727272727" type="curve"/>
      <point x="73.54545454545456" y="315.7272727272727"/>
      <point x="70.54545454545456" y="303.54545454545456"/>
      <point x="67.0909090909091" y="291.8181818181818" type="curve" smooth="yes"/>
      <point x="62.81818181818182" y="271.3636363636364"/>
      <point x="69.27272727272728" y="257.27272727272725"/>
      <point x="87.72727272727273" y="235.9090909090909" type="curve" smooth="yes"/>
      <point x="166.63636363636365" y="149.54545454545456"/>
      <point x="259.0" y="86.45454545454544"/>
      <point x="446.27272727272725" y="27.454545454545453" type="curve"/>
      <point x="452.72727272727275" y="34.36363636363636"/>
      <point x="458.6363636363637" y="43.36363636363637"/>
      <point x="462.4545454545455" y="55.72727272727272" type="curve" smooth="yes"/>
      <point x="472.3636363636364" y="87.72727272727273"/>
      <point x="466.0909090909091" y="103.81818181818181"/>
      <point x="446.72727272727275" y="110.54545454545455" type="curve"/>
      <point x="292.4545454545455" y="160.0909090909091"/>
      <point x="213.36363636363637" y="211.63636363636365"/>
      <point x="129.72727272727278" y="308.72727272727275" type="curve"/>
      <point x="141.0" y="258.72727272727275" type="line"/>
      <point x="158.0" y="323.2727272727273" type="line"/>
      <point x="122.00000000000001" y="272.7272727272727" type="line"/>
      <point x="259.1818181818182" y="374.1818181818182"/>
      <point x="367.6363636363636" y="433.8181818181818"/>
      <point x="573.4545454545455" y="493.2727272727273" type="curve"/>
      <point x="577.0" y="501.0909090909091"/>
      <point x="580.0" y="510.18181818181813"/>
      <point x="581.2727272727273" y="520.9999999999999" type="curve" smooth="yes"/>
      <point x="584.3636363636364" y="551.5454545454546"/>
      <point x="575.4545454545455" y="567.2727272727273"/>
      <point x="552.8181818181819" y="567.2727272727273" type="curve" smooth="yes"/>
      <point x="532.818181818182" y="567.2727272727273"/>
      <point x="505.27272727272737" y="560.8181818181819"/>
      <point x="459.09090909090907" y="543.2727272727273" type="curve" smooth="yes"/>
      <point x="309.18181818181813" y="485.9090909090909"/>
      <point x="179.63636363636363" y="411.45454545454544"/>
    </contour>
  </outline>
</glyph>
<glyph name="equal" format="2">
  <advance width="600.0"/>
  <unicode hex="003D"/>
  <outline>
    <contour>
      <point x="109.18181818181819" y="463.6363636363636" type="line"/>
      <point x="106.0909090909091" y="456.72727272727275"/>
      <point x="102.0" y="448.54545454545456"/>
      <point x="98.90909090909092" y="435.6363636363636" type="curve" smooth="yes"/>
      <point x="91.18181818181819" y="401.6363636363636"/>
      <point x="102.27272727272728" y="386.3636363636364"/>
      <point x="137.54545454545456" y="386.3636363636364" type="curve"/>
      <point x="569.3636363636364" y="386.3636363636364" type="line"/>
      <point x="574.5454545454545" y="394.1818181818182"/>
      <point x="578.9090909090909" y="403.0"/>
      <point x="582.2727272727273" y="417.3636363636363" type="curve" smooth="yes"/>
      <point x="589.7272727272727" y="449.5454545454545"/>
      <point x="577.7272727272727" y="463.6363636363636"/>
      <point x="547.3636363636365" y="463.6363636363636" type="curve" smooth="yes"/>
    </contour>
    <contour>
      <point x="48.09090909090909" y="213.63636363636363" type="line"/>
      <point x="42.81818181818182" y="204.1818181818182"/>
      <point x="37.909090909090914" y="193.27272727272728"/>
      <point x="34.545454545454554" y="179.8181818181818" type="curve" smooth="yes"/>
      <point x="27.181818181818183" y="151.27272727272725"/>
      <point x="34.0" y="136.36363636363635"/>
      <point x="60.18181818181818" y="136.36363636363635" type="curve"/>
      <point x="507.36363636363643" y="136.36363636363635" type="line"/>
      <point x="511.45454545454544" y="141.45454545454547"/>
      <point x="516.3636363636364" y="149.72727272727272"/>
      <point x="519.4545454545454" y="166.54545454545453" type="curve" smooth="yes"/>
      <point x="525.4545454545454" y="199.54545454545453"/>
      <point x="515.9090909090909" y="213.63636363636363"/>
      <point x="485.1818181818182" y="213.63636363636363" type="curve" smooth="yes"/>
    </contour>
  </outline>
</glyph>
<glyph name="greater" format="2">
  <advance width="600.0"/>
  <unicode hex="003E"/>
  <outline>
    <contour>
      <point x="537.0" y="270.0" type="curve"/>
      <point x="541.0" y="282.0"/>
      <point x="544.0" y="294.25"/>
      <point x="547.5" y="306.0" type="curve" smooth="yes"/>
      <point x="551.75" y="326.25"/>
      <point x="545.25" y="340.0"/>
      <point x="527.0" y="361.0" type="curve" smooth="yes"/>
      <point x="447.75" y="447.25"/>
      <point x="355.75" y="510.0"/>
      <point x="168.0" y="569.25" type="curve"/>
      <point x="161.75" y="562.5"/>
      <point x="156.0" y="553.75"/>
      <point x="152.25" y="541.75" type="curve" smooth="yes"/>
      <point x="142.5" y="510.75"/>
      <point x="148.75" y="495.0"/>
      <point x="167.5" y="488.5" type="curve" smooth="yes"/>
      <point x="323.5" y="438.5"/>
      <point x="403.0" y="386.75"/>
      <point x="487.5" y="288.75" type="curve"/>
      <point x="476.25" y="338.75" type="line"/>
      <point x="459.25" y="274.25" type="line"/>
      <point x="495.25" y="324.75" type="line"/>
      <point x="357.25" y="222.75"/>
      <point x="248.5" y="162.75"/>
      <point x="41.0" y="102.75" type="curve"/>
      <point x="37.5" y="95.0"/>
      <point x="34.5" y="86.0"/>
      <point x="33.25" y="75.5" type="curve" smooth="yes"/>
      <point x="30.25" y="46.0"/>
      <point x="39.0" y="31.0"/>
      <point x="61.0" y="31.0" type="curve" smooth="yes"/>
      <point x="81.0" y="31.0"/>
      <point x="108.75" y="37.5"/>
      <point x="155.0" y="55.0" type="curve" smooth="yes"/>
      <point x="305.25" y="112.25"/>
      <point x="434.5" y="186.25"/>
    </contour>
  </outline>
</glyph>
<glyph name="question" format="2">
  <advance width="600.0"/>
  <unicode hex="003F"/>
  <outline>
    <contour>
      <point x="274.09090909090907" y="0.09090909090909105" type="curve"/>
      <point x="282.72727272727275" y="22.54545454545454" type="line" smooth="yes"/>
      <point x="307.72727272727275" y="86.63636363636363"/>
      <point x="279.9090909090909" y="140.54545454545453"/>
      <point x="209.99999999999997" y="140.54545454545453" type="curve" smooth="yes"/>
      <point x="189.18181818181816" y="140.54545454545453"/>
      <point x="175.63636363636365" y="138.54545454545453"/>
      <point x="160.54545454545456" y="134.54545454545453" type="curve"/>
      <point x="155.0909090909091" y="115.72727272727273" type="line" smooth="yes"/>
      <point x="133.27272727272728" y="35.90909090909091"/>
      <point x="161.18181818181816" y="-6.636363636363636"/>
      <point x="218.27272727272725" y="-6.636363636363636" type="curve" smooth="yes"/>
      <point x="237.72727272727275" y="-6.636363636363636"/>
      <point x="257.54545454545456" y="-4.636363636363636"/>
    </contour>
    <contour>
      <point x="402.90909090909093" y="720.0" type="curve" smooth="yes"/>
      <point x="319.6363636363636" y="720.0"/>
      <point x="249.72727272727272" y="697.6363636363637"/>
      <point x="208.72727272727275" y="661.4545454545455" type="curve" smooth="yes"/>
      <point x="172.54545454545456" y="629.8181818181819"/>
      <point x="154.72727272727272" y="598.3636363636363"/>
      <point x="148.0" y="565.8181818181819" type="curve" smooth="yes"/>
      <point x="143.1818181818182" y="543.5454545454545"/>
      <point x="147.0909090909091" y="527.0909090909091"/>
      <point x="168.1818181818182" y="518.1818181818181" type="curve"/>
      <point x="174.18181818181816" y="518.1818181818181" type="line"/>
      <point x="210.2727272727273" y="597.3636363636364"/>
      <point x="284.4545454545455" y="645.2727272727274"/>
      <point x="380.63636363636357" y="645.2727272727274" type="curve" smooth="yes"/>
      <point x="431.8181818181818" y="645.2727272727274"/>
      <point x="466.2727272727272" y="639.3636363636364"/>
      <point x="487.3636363636364" y="624.9090909090909" type="curve"/>
      <point x="500.9090909090909" y="604.3636363636364"/>
      <point x="501.3636363636363" y="579.1818181818182"/>
      <point x="494.99999999999994" y="554.4545454545454" type="curve" smooth="yes"/>
      <point x="481.8181818181818" y="503.8181818181818"/>
      <point x="451.0909090909091" y="466.6363636363637"/>
      <point x="381.8181818181818" y="424.4545454545455" type="curve" smooth="yes"/>
      <point x="355.5454545454545" y="408.4545454545455" type="line" smooth="yes"/>
      <point x="280.2727272727272" y="362.81818181818187"/>
      <point x="246.1818181818182" y="330.90909090909093"/>
      <point x="230.36363636363635" y="287.99999999999994" type="curve" smooth="yes"/>
      <point x="228.63636363636363" y="283.27272727272725" type="line" smooth="yes"/>
      <point x="220.0909090909091" y="257.54545454545456"/>
      <point x="235.81818181818178" y="241.0909090909091"/>
      <point x="286.45454545454544" y="241.0909090909091" type="curve" smooth="yes"/>
      <point x="293.0" y="241.0909090909091" type="line"/>
      <point x="294.72727272727275" y="249.72727272727272" type="line" smooth="yes"/>
      <point x="302.45454545454544" y="285.4545454545455"/>
      <point x="322.8181818181818" y="310.0909090909091"/>
      <point x="395.3636363636363" y="354.6363636363636" type="curve" smooth="yes"/>
      <point x="422.8181818181818" y="371.1818181818182" type="line" smooth="yes"/>
      <point x="508.6363636363637" y="423.3636363636364"/>
      <point x="547.4545454545454" y="464.09090909090907"/>
      <point x="568.0" y="537.8181818181818" type="curve" smooth="yes"/>
      <point x="570.2727272727273" y="545.9090909090909" type="line" smooth="yes"/>
      <point x="594.2727272727273" y="631.0"/>
      <point x="549.4545454545455" y="720.0"/>
    </contour>
  </outline>
</glyph>
<glyph name="at" format="2">
  <advance width="1050.0"/>
  <unicode hex="0040"/>
  <outline>
    <contour>
      <point x="629.5" y="734.0" type="curve" smooth="yes"/>
      <point x="923.0" y="734.0"/>
      <point x="1056.75" y="567.75"/>
      <point x="1000.0" y="342.0" type="curve" smooth="yes"/>
      <point x="997.0" y="330.0" type="line" smooth="yes"/>
      <point x="955.5" y="164.25"/>
      <point x="809.75" y="38.0"/>
      <point x="677.25" y="38.0" type="curve" smooth="yes"/>
      <point x="673.25" y="38.0" type="line" smooth="yes"/>
      <point x="608.0" y="38.0"/>
      <point x="590.75" y="106.5"/>
      <point x="615.5" y="203.5" type="curve" smooth="yes"/>
      <point x="633.0" y="268.75"/>
      <point x="677.25" y="353.75"/>
      <point x="703.25" y="414.5" type="curve" smooth="yes"/>
      <point x="717.0" y="447.0"/>
      <point x="729.0" y="477.5"/>
      <point x="732.25" y="510.0" type="curve"/>
      <point x="748.0" y="510.0" type="line" smooth="yes"/>
      <point x="787.5" y="510.0"/>
      <point x="799.25" y="481.0"/>
      <point x="779.25" y="423.0" type="curve" smooth="yes"/>
      <point x="757.75" y="353.5"/>
      <point x="710.5" y="270.75"/>
      <point x="692.5" y="211.0" type="curve" smooth="yes"/>
      <point x="674.25" y="141.5"/>
      <point x="671.5" y="102.0"/>
      <point x="688.25" y="88.0" type="curve"/>
      <point x="692.75" y="88.0" type="line"/>
      <point x="798.5" y="116.5"/>
      <point x="896.75" y="207.25"/>
      <point x="927.75" y="334.0" type="curve" smooth="yes"/>
      <point x="930.75" y="347.0" type="line" smooth="yes"/>
      <point x="955.75" y="448.25"/>
      <point x="946.5" y="545.25"/>
      <point x="859.25" y="621.75" type="curve" smooth="yes"/>
      <point x="799.0" y="655.25"/>
      <point x="738.25" y="671.25"/>
      <point x="630.0" y="671.25" type="curve" smooth="yes"/>
      <point x="384.5" y="671.25"/>
      <point x="199.0" y="519.0"/>
      <point x="139.75" y="268.75" type="curve" smooth="yes"/>
      <point x="137.0" y="256.5" type="line" smooth="yes"/>
      <point x="104.0" y="116.75"/>
      <point x="133.5" y="-16.75"/>
      <point x="234.25" y="-81.5" type="curve" smooth="yes"/>
      <point x="287.75" y="-106.75"/>
      <point x="350.75" y="-116.5"/>
      <point x="441.25" y="-116.5" type="curve"/>
      <point x="541.25" y="-116.5"/>
      <point x="654.25" y="-91.25"/>
      <point x="730.5" y="-30.5" type="curve"/>
      <point x="734.5" y="-30.5" type="line"/>
      <point x="738.0" y="-31.75" type="line" smooth="yes"/>
      <point x="733.5" y="-62.25"/>
      <point x="719.75" y="-87.25"/>
      <point x="693.0" y="-108.5" type="curve" smooth="yes"/>
      <point x="640.75" y="-150.25"/>
      <point x="550.25" y="-181.0"/>
      <point x="434.0" y="-181.0" type="curve"/>
      <point x="130.25" y="-181.0"/>
      <point x="12.75" y="17.0"/>
      <point x="72.25" y="276.0" type="curve" smooth="yes"/>
      <point x="75.25" y="289.0" type="line" smooth="yes"/>
      <point x="138.75" y="564.0"/>
      <point x="347.5" y="734.0"/>
    </contour>
    <contour>
      <point x="384.25" y="31.5" type="curve"/>
      <point x="296.75" y="31.5"/>
      <point x="269.25" y="102.0"/>
      <point x="297.25" y="218.0" type="curve" smooth="yes"/>
      <point x="299.25" y="226.0" type="line" smooth="yes"/>
      <point x="340.75" y="391.5"/>
      <point x="453.25" y="519.0"/>
      <point x="582.75" y="519.0" type="curve" smooth="yes"/>
      <point x="646.5" y="519.0"/>
      <point x="685.75" y="481.0"/>
      <point x="707.5" y="437.5" type="curve"/>
      <point x="725.75" y="437.5" type="line"/>
      <point x="698.0" y="367.0" type="line"/>
      <point x="667.25" y="417.75"/>
      <point x="634.5" y="452.25"/>
      <point x="576.5" y="452.25" type="curve" smooth="yes"/>
      <point x="474.75" y="452.25"/>
      <point x="399.75" y="339.25"/>
      <point x="370.25" y="224.0" type="curve" smooth="yes"/>
      <point x="368.25" y="215.0" type="line" smooth="yes"/>
      <point x="353.0" y="154.75"/>
      <point x="354.5" y="128.5"/>
      <point x="364.0" y="107.0" type="curve" smooth="yes"/>
      <point x="440.5" y="83.0"/>
      <point x="559.25" y="142.75"/>
      <point x="663.5" y="284.0" type="curve"/>
      <point x="624.0" y="171.25" type="line"/>
      <point x="604.5" y="171.25" type="line"/>
      <point x="529.75" y="74.5"/>
      <point x="460.75" y="31.5"/>
    </contour>
  </outline>
</glyph>
<glyph name="B" format="2">
  <advance width="600.0"/>
  <unicode hex="0042"/>
  <outline>
    <contour>
      <point x="219.00000000000003" y="-10.0" type="curve"/>
      <point x="365.18181818181813" y="-10.0"/>
      <point x="466.54545454545456" y="46.0"/>
      <point x="494.0" y="157.0" type="curve" smooth="yes"/>
      <point x="497.18181818181813" y="169.72727272727275" type="line" smooth="yes"/>
      <point x="510.6363636363636" y="222.09090909090907"/>
      <point x="485.90909090909093" y="279.0909090909091"/>
      <point x="425.45454545454544" y="303.5454545454545" type="curve"/>
      <point x="425.45454545454544" y="318.6363636363636" type="line"/>
      <point x="195.81818181818184" y="319.1818181818182" type="line"/>
      <point x="195.81818181818184" y="305.9090909090909" type="line"/>
      <point x="319.09090909090907" y="305.9090909090909" type="line"/>
      <point x="388.3636363636364" y="288.99999999999994"/>
      <point x="437.00000000000006" y="245.36363636363637"/>
      <point x="420.0909090909091" y="177.54545454545456" type="curve" smooth="yes"/>
      <point x="417.3636363636364" y="166.63636363636365" type="line" smooth="yes"/>
      <point x="396.0909090909091" y="81.27272727272727"/>
      <point x="309.8181818181818" y="62.00000000000001"/>
      <point x="224.54545454545453" y="62.00000000000001" type="curve" smooth="yes"/>
      <point x="171.27272727272725" y="62.00000000000001"/>
      <point x="149.81818181818184" y="68.36363636363637"/>
      <point x="120.63636363636361" y="86.45454545454545" type="curve"/>
      <point x="131.9090909090909" y="240.63636363636363"/>
      <point x="219.36363636363637" y="394.2727272727273"/>
      <point x="251.0" y="551.1818181818184" type="curve" smooth="yes"/>
      <point x="259.7272727272727" y="601.0909090909092"/>
      <point x="255.27272727272725" y="619.5454545454545"/>
      <point x="242.8181818181818" y="633.0909090909091" type="curve"/>
      <point x="251.3636363636364" y="649.9090909090909" type="line"/>
      <point x="197.8181818181818" y="646.2727272727273" type="line"/>
      <point x="163.72727272727272" y="443.0909090909091"/>
      <point x="71.63636363636364" y="288.09090909090907"/>
      <point x="49.54545454545455" y="126.0" type="curve"/>
      <point x="42.63636363636364" y="70.81818181818181"/>
      <point x="52.363636363636374" y="52.72727272727273"/>
      <point x="66.0" y="39.09090909090909" type="curve" smooth="yes"/>
      <point x="94.54545454545456" y="10.545454545454545"/>
      <point x="134.9090909090909" y="-10.0"/>
    </contour>
    <contour>
      <point x="139.00000000000003" y="700.0" type="curve"/>
      <point x="134.36363636363637" y="691.7272727272726"/>
      <point x="130.72727272727275" y="684.4545454545455"/>
      <point x="127.36363636363637" y="669.7272727272727" type="curve" smooth="yes"/>
      <point x="120.90909090909092" y="642.1818181818184"/>
      <point x="126.36363636363636" y="625.5454545454546"/>
      <point x="147.36363636363637" y="625.5454545454546" type="curve" smooth="yes"/>
      <point x="166.98927930270003" y="625.5454545454546"/>
      <point x="257.1532770964728" y="645.5454545454546"/>
      <point x="368.1818181818182" y="645.5454545454546" type="curve" smooth="yes"/>
      <point x="437.09090909090907" y="645.5454545454546"/>
      <point x="478.99999999999994" y="638.9090909090909"/>
      <point x="512.4545454545454" y="614.9090909090909" type="curve" smooth="yes"/>
      <point x="523.6363636363636" y="589.1818181818182"/>
      <point x="523.8181818181818" y="549.9999999999999"/>
      <point x="513.4545454545454" y="510.2727272727273" type="curve" smooth="yes"/>
      <point x="509.72727272727263" y="496.090909090909" type="line" smooth="yes"/>
      <point x="483.7075552406636" y="396.3756755081364"/>
      <point x="386.53642384105456" y="336.27272727272725"/>
      <point x="247.63636363636365" y="336.27272727272725" type="curve" smooth="yes"/>
      <point x="204.36363636363637" y="336.27272727272725"/>
      <point x="191.54545454545453" y="340.99999999999994"/>
      <point x="174.72727272727275" y="349.45454545454544" type="curve"/>
      <point x="152.72727272727275" y="294.1818181818182" type="line" smooth="yes"/>
      <point x="175.63636363636363" y="299.4545454545455" type="line"/>
      <point x="187.9090909090909" y="283.0909090909091"/>
      <point x="207.1818181818182" y="273.0909090909091"/>
      <point x="245.6363636363636" y="273.0909090909091" type="curve" smooth="yes"/>
      <point x="414.1925133689727" y="273.0909090909091"/>
      <point x="550.8288436552544" y="351.3554982478818"/>
      <point x="586.3636363636364" y="489.1818181818182" type="curve" smooth="yes"/>
      <point x="589.8181818181818" y="502.7272727272727" type="line" smooth="yes"/>
      <point x="614.5454545454544" y="599.3636363636363"/>
      <point x="584.7272727272726" y="720.0"/>
      <point x="380.54545454545456" y="720.0" type="curve" smooth="yes"/>
      <point x="314.7272727272727" y="720.0"/>
      <point x="240.90909090909088" y="715.9090909090909"/>
    </contour>
  </outline>
</glyph>
<glyph name="C" format="2">
  <advance width="600.0"/>
  <unicode hex="0043"/>
  <outline>
    <contour>
      <point x="288.25" y="-20.0" type="curve" smooth="yes"/>
      <point x="359.25" y="-20.0"/>
      <point x="421.75" y="1.25"/>
      <point x="455.25" y="34.75" type="curve"/>
      <point x="479.0" y="58.5"/>
      <point x="489.75" y="78.25"/>
      <point x="496.5" y="111.25" type="curve"/>
      <point x="499.25" y="125.5"/>
      <point x="500.0" y="141.25"/>
      <point x="499.25" y="154.0" type="curve"/>
      <point x="493.25" y="154.0" type="line"/>
      <point x="442.25" y="82.5"/>
      <point x="368.25" y="52.25"/>
      <point x="291.5" y="52.25" type="curve" smooth="yes"/>
      <point x="217.5" y="52.25"/>
      <point x="171.25" y="81.25"/>
      <point x="150.0" y="108.25" type="curve"/>
      <point x="133.75" y="172.5"/>
      <point x="145.25" y="232.0"/>
      <point x="157.75" y="282.75" type="curve" smooth="yes"/>
      <point x="163.5" y="306.25" type="line" smooth="yes"/>
      <point x="222.5" y="547.0"/>
      <point x="341.5" y="650.0"/>
      <point x="457.0" y="650.0" type="curve"/>
      <point x="502.5" y="650.0"/>
      <point x="533.25" y="636.75"/>
      <point x="551.25" y="606.5" type="curve"/>
      <point x="537.25" y="651.75" type="line"/>
      <point x="538.0" y="590.5"/>
      <point x="507.75" y="554.75"/>
      <point x="490.75" y="492.75" type="curve"/>
      <point x="480.75" y="456.0"/>
      <point x="494.25" y="430.0"/>
      <point x="526.75" y="430.0" type="curve"/>
      <point x="539.0" y="430.0"/>
      <point x="548.0" y="431.75"/>
      <point x="556.5" y="435.5" type="curve"/>
      <point x="563.0" y="484.25"/>
      <point x="578.0" y="510.5"/>
      <point x="591.0" y="559.5" type="curve"/>
      <point x="604.0" y="603.75"/>
      <point x="600.25" y="652.25"/>
      <point x="569.5" y="683.0" type="curve" smooth="yes"/>
      <point x="546.5" y="706.0"/>
      <point x="510.5" y="720.0"/>
      <point x="461.75" y="720.0" type="curve"/>
      <point x="286.5" y="720.0"/>
      <point x="156.0" y="579.0"/>
      <point x="89.0" y="317.5" type="curve" smooth="yes"/>
      <point x="82.0" y="290.0" type="line" smooth="yes"/>
      <point x="39.0" y="121.5"/>
      <point x="95.75" y="-20.0"/>
    </contour>
  </outline>
</glyph>
<glyph name="D" format="2">
  <advance width="650.0"/>
  <unicode hex="0044"/>
  <outline>
    <contour>
      <point x="595.75" y="336.0" type="curve" smooth="yes"/>
      <point x="604.25" y="370.75" type="line" smooth="yes"/>
      <point x="656.5" y="584.0"/>
      <point x="600.0" y="720.0"/>
      <point x="390.0" y="720.0" type="curve"/>
      <point x="300.75" y="720.0"/>
      <point x="232.75" y="713.0"/>
      <point x="156.75" y="700.0" type="curve"/>
      <point x="151.5" y="692.0"/>
      <point x="148.0" y="684.75"/>
      <point x="145.0" y="672.25" type="curve"/>
      <point x="138.25" y="644.0"/>
      <point x="144.25" y="627.75"/>
      <point x="163.25" y="627.75" type="curve" smooth="yes"/>
      <point x="182.75" y="627.75"/>
      <point x="258.5" y="647.75"/>
      <point x="350.25" y="647.75" type="curve" smooth="yes"/>
      <point x="443.0" y="647.75"/>
      <point x="491.75" y="639.75"/>
      <point x="530.0" y="601.5" type="curve" smooth="yes"/>
      <point x="553.75" y="538.5"/>
      <point x="556.5" y="489.25"/>
      <point x="527.75" y="374.25" type="curve" smooth="yes"/>
      <point x="522.5" y="353.25" type="line" smooth="yes"/>
      <point x="471.0" y="147.5"/>
      <point x="343.5" y="62.5"/>
      <point x="205.5" y="62.5" type="curve" smooth="yes"/>
      <point x="167.25" y="62.5"/>
      <point x="143.75" y="64.25"/>
      <point x="119.25" y="76.0" type="curve"/>
      <point x="130.0" y="237.5"/>
      <point x="224.75" y="388.25"/>
      <point x="244.5" y="548.25" type="curve" smooth="yes"/>
      <point x="250.25" y="593.0"/>
      <point x="248.0" y="615.5"/>
      <point x="235.0" y="634.0" type="curve"/>
      <point x="245.75" y="651.25" type="line"/>
      <point x="186.0" y="647.5" type="line"/>
      <point x="173.5" y="441.75"/>
      <point x="72.75" y="289.0"/>
      <point x="48.5" y="125.75" type="curve"/>
      <point x="40.75" y="71.0"/>
      <point x="52.0" y="44.75"/>
      <point x="68.5" y="28.25" type="curve" smooth="yes"/>
      <point x="89.0" y="7.75"/>
      <point x="131.5" y="-10.0"/>
      <point x="198.25" y="-10.0" type="curve" smooth="yes"/>
      <point x="373.25" y="-10.0"/>
      <point x="538.0" y="100.25"/>
    </contour>
  </outline>
</glyph>
<glyph name="E" format="2">
  <advance width="550.0"/>
  <unicode hex="0045"/>
  <outline>
    <contour>
      <point x="156.45454545454547" y="700.0" type="line"/>
      <point x="152.63636363636365" y="693.5454545454545"/>
      <point x="149.09090909090907" y="687.090909090909"/>
      <point x="146.0" y="676.0" type="curve" smooth="yes"/>
      <point x="138.8181818181818" y="649.5454545454546"/>
      <point x="144.36363636363637" y="624.0909090909091"/>
      <point x="166.63636363636363" y="624.0909090909091" type="curve" smooth="yes"/>
      <point x="586.3636363636364" y="624.0909090909091" type="line"/>
      <point x="592.1818181818182" y="631.5454545454545"/>
      <point x="596.8181818181819" y="641.8181818181818"/>
      <point x="599.6363636363637" y="652.6363636363636" type="curve" smooth="yes"/>
      <point x="606.0909090909091" y="678.9090909090908"/>
      <point x="598.0" y="700.0"/>
      <point x="564.9999999999999" y="700.0" type="curve" smooth="yes"/>
    </contour>
    <contour>
      <point x="164.0" y="363.6363636363636" type="line"/>
      <point x="146.8181818181818" y="293.18181818181813" type="line"/>
      <point x="435.7272727272727" y="293.18181818181813" type="line"/>
      <point x="438.7272727272727" y="297.7272727272727"/>
      <point x="441.00000000000006" y="304.4545454545455"/>
      <point x="442.5454545454546" y="312.09090909090907" type="curve" smooth="yes"/>
      <point x="447.2727272727273" y="335.81818181818187"/>
      <point x="439.1818181818182" y="363.6363636363636"/>
      <point x="408.3636363636363" y="363.6363636363636" type="curve"/>
    </contour>
    <contour>
      <point x="125.0" y="0.0" type="curve" smooth="yes"/>
      <point x="433.6363636363637" y="0.0" type="line"/>
      <point x="438.00000000000006" y="7.727272727272726"/>
      <point x="441.36363636363643" y="16.818181818181817"/>
      <point x="443.72727272727275" y="27.454545454545453" type="curve" smooth="yes"/>
      <point x="450.00000000000006" y="58.90909090909091"/>
      <point x="440.2727272727273" y="75.9090909090909"/>
      <point x="409.0" y="75.9090909090909" type="curve"/>
      <point x="121.18181818181817" y="75.9090909090909" type="line"/>
      <point x="127.0909090909091" y="231.45454545454547"/>
      <point x="219.63636363636365" y="388.90909090909093"/>
      <point x="252.18181818181816" y="543.0909090909091" type="curve" smooth="yes"/>
      <point x="261.090909090909" y="586.6363636363637"/>
      <point x="256.3636363636364" y="605.7272727272727"/>
      <point x="243.81818181818176" y="619.090909090909" type="curve"/>
      <point x="261.0909090909091" y="651.3636363636364" type="line"/>
      <point x="199.27272727272728" y="645.5454545454546" type="line"/>
      <point x="172.1818181818182" y="446.0"/>
      <point x="61.72727272727272" y="270.6363636363637"/>
      <point x="48.090909090909086" y="96.18181818181819" type="curve" smooth="yes"/>
      <point x="41.72727272727273" y="23.727272727272727"/>
      <point x="75.45454545454547" y="0.0"/>
    </contour>
  </outline>
</glyph>
<glyph name="F" format="2">
  <advance width="550.0"/>
  <unicode hex="0046"/>
  <outline>
    <contour>
      <point x="144.54545454545456" y="-0.7272727272727272" type="curve"/>
      <point x="139.54545454545453" y="24.454545454545457"/>
      <point x="139.0909090909091" y="59.90909090909091"/>
      <point x="142.63636363636363" y="94.54545454545455" type="curve" smooth="yes"/>
      <point x="161.45454545454544" y="247.0909090909091"/>
      <point x="240.36363636363635" y="391.27272727272725"/>
      <point x="271.09090909090907" y="539.3636363636363" type="curve" smooth="yes"/>
      <point x="280.45454545454544" y="584.4545454545455"/>
      <point x="274.9090909090909" y="605.3636363636364"/>
      <point x="265.81818181818176" y="619.8181818181818" type="curve"/>
      <point x="283.0909090909091" y="653.0909090909091" type="line"/>
      <point x="215.9090909090909" y="645.8181818181819" type="line"/>
      <point x="187.0" y="435.8181818181818"/>
      <point x="80.0" y="266.54545454545456"/>
      <point x="63.72727272727273" y="91.0" type="curve" smooth="yes"/>
      <point x="58.54545454545454" y="29.727272727272727"/>
      <point x="68.27272727272727" y="-7.272727272727273"/>
      <point x="114.63636363636364" y="-7.272727272727273" type="curve" smooth="yes"/>
      <point x="125.18181818181816" y="-7.272727272727273"/>
      <point x="136.0" y="-5.2727272727272725"/>
    </contour>
    <contour>
      <point x="157.8181818181818" y="700.0" type="line"/>
      <point x="153.1818181818182" y="693.5454545454545"/>
      <point x="149.0909090909091" y="687.090909090909"/>
      <point x="146.0" y="676.0" type="curve" smooth="yes"/>
      <point x="138.27272727272728" y="647.909090909091"/>
      <point x="147.6363636363636" y="624.0909090909091"/>
      <point x="174.8181818181818" y="624.0909090909091" type="curve"/>
      <point x="589.090909090909" y="624.0909090909091" type="line"/>
      <point x="594.9090909090909" y="631.5454545454545"/>
      <point x="599.5454545454546" y="641.8181818181819"/>
      <point x="602.3636363636365" y="652.6363636363637" type="curve" smooth="yes"/>
      <point x="608.8181818181819" y="678.9090909090909"/>
      <point x="600.7272727272727" y="700.0"/>
      <point x="567.7272727272727" y="700.0" type="curve"/>
    </contour>
    <contour>
      <point x="168.81818181818184" y="313.6363636363636" type="line"/>
      <point x="145.81818181818184" y="237.72727272727275" type="line"/>
      <point x="452.27272727272725" y="237.72727272727275" type="line"/>
      <point x="456.09090909090907" y="243.36363636363632"/>
      <point x="459.7272727272727" y="254.45454545454544"/>
      <point x="461.5454545454545" y="263.72727272727275" type="curve"/>
      <point x="466.27272727272725" y="288.5454545454545"/>
      <point x="459.8181818181818" y="313.6363636363636"/>
      <point x="424.3636363636364" y="313.6363636363636" type="curve"/>
    </contour>
  </outline>
</glyph>
<glyph name="G" format="2">
  <advance width="650.0"/>
  <unicode hex="0047"/>
  <outline>
    <contour>
      <point x="337.5" y="313.75" type="line"/>
      <point x="334.0" y="308.5"/>
      <point x="331.75" y="301.0"/>
      <point x="330.25" y="293.25" type="curve" smooth="yes"/>
      <point x="324.75" y="265.75"/>
      <point x="334.75" y="244.0"/>
      <point x="393.5" y="244.0" type="curve"/>
      <point x="599.25" y="244.0" type="line"/>
      <point x="603.0" y="259.0" type="line" smooth="yes"/>
      <point x="613.0" y="299.0"/>
      <point x="603.5" y="313.75"/>
      <point x="575.5" y="313.75" type="curve" smooth="yes"/>
    </contour>
    <contour>
      <point x="490.75" y="720.0" type="curve" smooth="yes"/>
      <point x="300.25" y="720.0"/>
      <point x="144.25" y="552.5"/>
      <point x="75.5" y="285.5" type="curve" smooth="yes"/>
      <point x="69.0" y="260.25" type="line" smooth="yes"/>
      <point x="28.0" y="101.0"/>
      <point x="102.25" y="-20.0"/>
      <point x="265.25" y="-20.0" type="curve" smooth="yes"/>
      <point x="345.75" y="-20.0"/>
      <point x="421.25" y="3.0"/>
      <point x="466.75" y="46.75" type="curve" smooth="yes"/>
      <point x="501.0" y="79.25"/>
      <point x="526.25" y="120.5"/>
      <point x="538.25" y="173.5" type="curve" smooth="yes"/>
      <point x="543.5" y="199.0"/>
      <point x="540.0" y="226.0"/>
      <point x="531.25" y="239.0" type="curve"/>
      <point x="546.0" y="270.75" type="line"/>
      <point x="488.0" y="270.75" type="line"/>
      <point x="489.25" y="249.75"/>
      <point x="489.25" y="225.25"/>
      <point x="482.25" y="197.75" type="curve"/>
      <point x="456.75" y="106.5"/>
      <point x="378.0" y="53.75"/>
      <point x="274.75" y="53.75" type="curve" smooth="yes"/>
      <point x="186.5" y="53.75"/>
      <point x="142.5" y="91.5"/>
      <point x="133.25" y="172.25" type="curve" smooth="yes"/>
      <point x="134.25" y="202.75"/>
      <point x="138.5" y="237.0"/>
      <point x="147.75" y="273.25" type="curve" smooth="yes"/>
      <point x="152.0" y="290.5" type="line" smooth="yes"/>
      <point x="198.75" y="480.25"/>
      <point x="326.75" y="648.5"/>
      <point x="479.5" y="648.5" type="curve" smooth="yes"/>
      <point x="531.0" y="648.5"/>
      <point x="566.0" y="636.75"/>
      <point x="582.25" y="605.25" type="curve"/>
      <point x="575.25" y="654.0" type="line"/>
      <point x="578.0" y="599.25"/>
      <point x="547.25" y="564.75"/>
      <point x="530.25" y="503.25" type="curve" smooth="yes"/>
      <point x="520.75" y="468.5"/>
      <point x="531.75" y="444.0"/>
      <point x="566.75" y="444.0" type="curve" smooth="yes"/>
      <point x="577.75" y="444.0"/>
      <point x="585.75" y="445.75"/>
      <point x="593.5" y="449.25" type="curve"/>
      <point x="600.0" y="498.75"/>
      <point x="614.5" y="522.5"/>
      <point x="625.75" y="569.75" type="curve" smooth="yes"/>
      <point x="637.5" y="612.25"/>
      <point x="636.25" y="654.25"/>
      <point x="607.0" y="683.5" type="curve" smooth="yes"/>
      <point x="581.75" y="708.75"/>
      <point x="540.0" y="720.0"/>
    </contour>
  </outline>
</glyph>
<glyph name="H" format="2">
  <advance width="650.0"/>
  <unicode hex="0048"/>
  <outline>
    <contour>
      <point x="201.0" y="704.5" type="curve"/>
      <point x="202.75" y="669.75"/>
      <point x="198.0" y="629.25"/>
      <point x="189.5" y="590.25" type="curve" smooth="yes"/>
      <point x="153.75" y="420.0"/>
      <point x="74.75" y="283.5"/>
      <point x="51.75" y="120.0" type="curve" smooth="yes"/>
      <point x="37.75" y="26.75"/>
      <point x="49.25" y="-8.75"/>
      <point x="89.5" y="-8.75" type="curve" smooth="yes"/>
      <point x="99.5" y="-8.75"/>
      <point x="108.75" y="-6.5"/>
      <point x="117.0" y="-3.0" type="curve"/>
      <point x="117.5" y="232.0"/>
      <point x="225.5" y="395.75"/>
      <point x="263.5" y="591.75" type="curve" smooth="yes"/>
      <point x="280.25" y="677.5"/>
      <point x="270.75" y="711.0"/>
      <point x="232.5" y="711.0" type="curve" smooth="yes"/>
      <point x="221.25" y="711.0"/>
      <point x="212.25" y="709.0"/>
    </contour>
    <contour>
      <point x="51.5" y="323.75" type="line"/>
      <point x="47.5" y="308.5" type="line" smooth="yes"/>
      <point x="39.75" y="276.75"/>
      <point x="47.25" y="250.0"/>
      <point x="74.5" y="250.0" type="curve"/>
      <point x="490.0" y="250.0" type="line"/>
      <point x="497.0" y="308.0" type="line"/>
      <point x="477.5" y="303.25" type="line"/>
      <point x="464.0" y="317.5"/>
      <point x="449.0" y="323.75"/>
      <point x="421.0" y="323.75" type="curve"/>
    </contour>
    <contour>
      <point x="508.5" y="-3.0" type="curve"/>
      <point x="503.25" y="32.0"/>
      <point x="504.25" y="71.0"/>
      <point x="510.75" y="111.0" type="curve" smooth="yes"/>
      <point x="537.5" y="279.0"/>
      <point x="608.75" y="406.5"/>
      <point x="645.5" y="574.25" type="curve" smooth="yes"/>
      <point x="664.5" y="660.75"/>
      <point x="659.5" y="709.5"/>
      <point x="614.0" y="709.5" type="curve" smooth="yes"/>
      <point x="602.5" y="709.5"/>
      <point x="593.75" y="707.5"/>
      <point x="582.75" y="704.0" type="curve"/>
      <point x="585.5" y="518.0"/>
      <point x="455.75" y="299.25"/>
      <point x="433.0" y="97.75" type="curve" smooth="yes"/>
      <point x="424.5" y="21.75"/>
      <point x="443.75" y="-9.5"/>
      <point x="476.25" y="-9.5" type="curve" smooth="yes"/>
      <point x="488.75" y="-9.5"/>
      <point x="499.75" y="-7.25"/>
    </contour>
  </outline>
</glyph>
<glyph name="I" format="2">
  <advance width="500.0"/>
  <unicode hex="0049"/>
  <outline>
    <contour>
      <point x="238.75" y="54.25" type="line"/>
      <point x="252.25" y="236.75"/>
      <point x="331.0" y="369.75"/>
      <point x="370.0" y="538.0" type="curve"/>
      <point x="381.5" y="586.5"/>
      <point x="376.75" y="604.75"/>
      <point x="363.5" y="621.25" type="curve"/>
      <point x="381.25" y="653.25" type="line"/>
      <point x="318.75" y="645.75" type="line"/>
      <point x="292.75" y="466.75"/>
      <point x="208.5" y="325.75"/>
      <point x="180.75" y="159.75" type="curve"/>
      <point x="172.25" y="111.75"/>
      <point x="178.75" y="96.0"/>
      <point x="192.5" y="79.5" type="curve"/>
      <point x="177.0" y="47.5" type="line"/>
    </contour>
    <contour>
      <point x="366.5" y="0.0" type="line"/>
      <point x="370.75" y="6.0"/>
      <point x="374.5" y="13.5"/>
      <point x="377.25" y="23.75" type="curve" smooth="yes"/>
      <point x="384.75" y="50.5"/>
      <point x="373.75" y="73.75"/>
      <point x="334.25" y="73.75" type="curve" smooth="yes"/>
      <point x="19.25" y="73.75" type="line"/>
      <point x="15.5" y="66.75"/>
      <point x="11.0" y="56.0"/>
      <point x="8.75" y="46.25" type="curve"/>
      <point x="2.0" y="18.5"/>
      <point x="9.75" y="0.0"/>
      <point x="39.75" y="0.0" type="curve" smooth="yes"/>
    </contour>
    <contour>
      <point x="176.5" y="700.0" type="line"/>
      <point x="172.25" y="694.0"/>
      <point x="168.5" y="686.5"/>
      <point x="165.75" y="676.25" type="curve"/>
      <point x="158.25" y="649.5"/>
      <point x="169.5" y="626.25"/>
      <point x="209.0" y="626.25" type="curve" smooth="yes"/>
      <point x="524.5" y="626.25" type="line"/>
      <point x="528.25" y="633.25"/>
      <point x="532.75" y="644.0"/>
      <point x="535.0" y="653.75" type="curve" smooth="yes"/>
      <point x="541.75" y="681.5"/>
      <point x="534.0" y="700.0"/>
      <point x="504.0" y="700.0" type="curve" smooth="yes"/>
    </contour>
  </outline>
</glyph>
<glyph name="J" format="2">
  <advance width="500.0"/>
  <unicode hex="004A"/>
  <outline>
    <contour>
      <point x="155.54545454545456" y="55.63636363636364" type="curve" smooth="yes"/>
      <point x="89.00000000000003" y="55.63636363636364"/>
      <point x="55.72727272727273" y="71.0909090909091"/>
      <point x="14.909090909090903" y="104.81818181818181" type="curve"/>
      <point x="10.363636363636367" y="104.81818181818181" type="line"/>
      <point x="4.72727272727273" y="96.81818181818183"/>
      <point x="0.0909090909090926" y="89.0909090909091"/>
      <point x="-3.5454545454545414" y="75.27272727272727" type="curve"/>
      <point x="-9.727272727272727" y="51.81818181818181"/>
      <point x="-5.090909090909088" y="32.72727272727273"/>
      <point x="10.545454545454549" y="18.545454545454547" type="curve"/>
      <point x="39.00000000000001" y="-7.0"/>
      <point x="83.45454545454547" y="-20.0"/>
      <point x="149.27272727272728" y="-20.0" type="curve" smooth="yes"/>
      <point x="271.90909090909093" y="-20.0"/>
      <point x="353.0" y="31.909090909090907"/>
      <point x="396.72727272727275" y="154.45454545454544" type="curve"/>
      <point x="452.81818181818187" y="311.18181818181824"/>
      <point x="463.00000000000006" y="491.5454545454545"/>
      <point x="527.5454545454545" y="661.2727272727274" type="curve"/>
      <point x="539.0" y="691.0909090909091"/>
      <point x="519.7272727272727" y="710.0"/>
      <point x="469.99999999999994" y="710.0" type="curve" smooth="yes"/>
      <point x="373.45454545454544" y="710.0"/>
      <point x="302.45454545454544" y="707.4545454545455"/>
      <point x="186.27272727272725" y="700.0" type="curve"/>
      <point x="181.90909090909088" y="692.2727272727273"/>
      <point x="177.99999999999997" y="681.3636363636364"/>
      <point x="175.90909090909088" y="668.9090909090909" type="curve" smooth="yes"/>
      <point x="171.45454545454544" y="639.9090909090909"/>
      <point x="180.45454545454547" y="619.2727272727273"/>
      <point x="209.7272727272727" y="619.2727272727273" type="curve" smooth="yes"/>
      <point x="269.54545454545456" y="619.2727272727273"/>
      <point x="317.81818181818187" y="634.0"/>
      <point x="469.90909090909093" y="644.7272727272727" type="curve"/>
      <point x="424.6363636363636" y="652.4545454545454" type="line"/>
      <point x="452.36363636363643" y="623.0" type="line"/>
      <point x="449.90909090909093" y="661.6363636363636" type="line"/>
      <point x="381.9090909090909" y="473.09090909090907"/>
      <point x="374.72727272727275" y="345.1818181818182"/>
      <point x="332.0" y="202.54545454545456" type="curve"/>
      <point x="314.72727272727275" y="144.54545454545453"/>
      <point x="297.9090909090909" y="118.0909090909091"/>
      <point x="272.4545454545455" y="85.18181818181819" type="curve" smooth="yes"/>
      <point x="237.4545454545454" y="64.72727272727273"/>
      <point x="203.99999999999997" y="55.63636363636364"/>
    </contour>
  </outline>
</glyph>
<glyph name="L" format="2">
  <advance width="550.0"/>
  <unicode hex="004C"/>
  <outline>
    <contour>
      <point x="115.5" y="0.0" type="curve" smooth="yes"/>
      <point x="410.25" y="0.0" type="line"/>
      <point x="427.5" y="34.5"/>
      <point x="425.0" y="73.75"/>
      <point x="392.25" y="73.75" type="curve" smooth="yes"/>
      <point x="111.0" y="73.75" type="line"/>
      <point x="120.25" y="246.0"/>
      <point x="219.0" y="416.5"/>
      <point x="253.25" y="595.0" type="curve" smooth="yes"/>
      <point x="269.25" y="674.0"/>
      <point x="262.5" y="707.25"/>
      <point x="221.5" y="707.25" type="curve" smooth="yes"/>
      <point x="210.25" y="707.25"/>
      <point x="200.25" y="705.5"/>
      <point x="188.75" y="700.75" type="curve"/>
      <point x="190.25" y="666.5"/>
      <point x="187.0" y="629.5"/>
      <point x="179.0" y="590.75" type="curve"/>
      <point x="144.0" y="429.5"/>
      <point x="70.0" y="296.5"/>
      <point x="43.5" y="134.0" type="curve" smooth="yes"/>
      <point x="30.75" y="56.25"/>
      <point x="56.25" y="0.0"/>
    </contour>
    <contour>
      <point x="423.25" y="186.5" type="curve"/>
      <point x="405.25" y="90.75"/>
      <point x="358.0" y="31.5"/>
      <point x="347.75" y="-3.5" type="curve"/>
      <point x="341.75" y="-23.25"/>
      <point x="356.25" y="-31.0"/>
      <point x="402.0" y="-31.0" type="curve"/>
      <point x="439.0" y="20.0"/>
      <point x="469.25" y="78.5"/>
      <point x="485.5" y="141.5" type="curve" smooth="yes"/>
      <point x="492.0" y="166.5"/>
      <point x="478.75" y="188.0"/>
      <point x="445.5" y="188.0" type="curve" smooth="yes"/>
      <point x="437.5" y="188.0"/>
      <point x="429.5" y="187.5"/>
    </contour>
  </outline>
</glyph>
<glyph name="M" format="2">
  <advance width="800.0"/>
  <unicode hex="004D"/>
  <outline>
    <contour>
      <point x="94.5" y="-3.75" type="curve"/>
      <point x="94.25" y="59.75"/>
      <point x="106.75" y="119.25"/>
      <point x="126.75" y="197.0" type="curve" smooth="yes"/>
      <point x="159.25" y="322.0"/>
      <point x="232.0" y="468.25"/>
      <point x="269.0" y="622.75" type="curve"/>
      <point x="248.0" y="584.75" type="line"/>
      <point x="284.75" y="589.75" type="line"/>
      <point x="267.25" y="624.0" type="line"/>
      <point x="255.5" y="414.5"/>
      <point x="285.5" y="251.5"/>
      <point x="327.75" y="147.5" type="curve" smooth="yes"/>
      <point x="336.5" y="124.5"/>
      <point x="345.0" y="113.5"/>
      <point x="369.75" y="113.5" type="curve" smooth="yes"/>
      <point x="375.25" y="113.5"/>
      <point x="380.0" y="113.75"/>
      <point x="385.25" y="115.25" type="curve"/>
      <point x="469.5" y="195.25"/>
      <point x="624.75" y="432.25"/>
      <point x="699.0" y="621.0" type="curve"/>
      <point x="662.25" y="590.5" type="line"/>
      <point x="707.0" y="584.5" type="line"/>
      <point x="692.75" y="610.25" type="line"/>
      <point x="682.0" y="481.25"/>
      <point x="658.0" y="372.75"/>
      <point x="631.5" y="267.5" type="curve"/>
      <point x="610.5" y="183.25"/>
      <point x="596.25" y="123.5"/>
      <point x="591.5" y="74.5" type="curve"/>
      <point x="586.25" y="18.5"/>
      <point x="601.5" y="-9.5"/>
      <point x="637.75" y="-9.5" type="curve"/>
      <point x="650.75" y="-9.5"/>
      <point x="663.5" y="-6.5"/>
      <point x="672.0" y="-3.75" type="curve"/>
      <point x="667.25" y="30.0"/>
      <point x="669.5" y="71.0"/>
      <point x="675.75" y="109.5" type="curve" smooth="yes"/>
      <point x="698.25" y="252.5"/>
      <point x="750.0" y="421.0"/>
      <point x="766.5" y="605.25" type="curve"/>
      <point x="774.5" y="685.0"/>
      <point x="755.75" y="709.5"/>
      <point x="704.75" y="709.5" type="curve" smooth="yes"/>
      <point x="688.0" y="709.5"/>
      <point x="673.75" y="706.75"/>
      <point x="658.25" y="702.25" type="curve"/>
      <point x="606.0" y="544.5"/>
      <point x="469.0" y="315.75"/>
      <point x="364.0" y="200.75" type="curve"/>
      <point x="405.25" y="221.25" type="line"/>
      <point x="360.0" y="227.25" type="line"/>
      <point x="387.5" y="195.75" type="line"/>
      <point x="342.25" y="326.0"/>
      <point x="330.75" y="495.0"/>
      <point x="337.5" y="626.75" type="curve"/>
      <point x="339.75" y="679.75"/>
      <point x="322.25" y="709.5"/>
      <point x="259.5" y="709.5" type="curve"/>
      <point x="234.0" y="709.5"/>
      <point x="219.75" y="706.75"/>
      <point x="203.0" y="702.25" type="curve"/>
      <point x="203.75" y="668.25"/>
      <point x="197.5" y="631.25"/>
      <point x="186.0" y="591.5" type="curve" smooth="yes"/>
      <point x="138.75" y="420.0"/>
      <point x="57.25" y="275.75"/>
      <point x="31.5" y="122.25" type="curve" smooth="yes"/>
      <point x="15.25" y="24.5"/>
      <point x="30.0" y="-9.5"/>
      <point x="63.25" y="-9.5" type="curve"/>
      <point x="74.5" y="-9.5"/>
      <point x="86.0" y="-7.25"/>
    </contour>
  </outline>
</glyph>
<glyph name="O" format="2">
  <advance width="650.0"/>
  <unicode hex="004F"/>
  <outline>
    <contour>
      <point x="426.75" y="720.0" type="curve"/>
      <point x="265.25" y="720.0"/>
      <point x="155.0" y="608.5"/>
      <point x="91.25" y="347.25" type="curve" smooth="yes"/>
      <point x="84.25" y="318.5" type="line" smooth="yes"/>
      <point x="32.5" y="106.75"/>
      <point x="106.5" y="-20.0"/>
      <point x="262.25" y="-20.0" type="curve" smooth="yes"/>
      <point x="420.75" y="-20.0"/>
      <point x="532.0" y="71.75"/>
      <point x="593.0" y="315.5" type="curve" smooth="yes"/>
      <point x="600.0" y="343.5" type="line" smooth="yes"/>
      <point x="661.75" y="588.5"/>
      <point x="605.25" y="720.0"/>
    </contour>
    <contour>
      <point x="157.0" y="310.25" type="curve" smooth="yes"/>
      <point x="162.25" y="333.75" type="line" smooth="yes"/>
      <point x="214.75" y="568.0"/>
      <point x="308.25" y="644.25"/>
      <point x="422.75" y="644.25" type="curve" smooth="yes"/>
      <point x="453.25" y="644.25"/>
      <point x="485.0" y="638.0"/>
      <point x="505.5" y="630.75" type="curve" smooth="yes"/>
      <point x="562.25" y="581.0"/>
      <point x="562.75" y="489.5"/>
      <point x="526.75" y="344.5" type="curve" smooth="yes"/>
      <point x="521.5" y="323.25" type="line" smooth="yes"/>
      <point x="472.75" y="126.5"/>
      <point x="383.5" y="50.75"/>
      <point x="268.25" y="50.75" type="curve" smooth="yes"/>
      <point x="240.0" y="50.75"/>
      <point x="210.75" y="56.25"/>
      <point x="185.0" y="67.0" type="curve" smooth="yes"/>
      <point x="140.0" y="115.5"/>
      <point x="132.75" y="201.75"/>
    </contour>
  </outline>
</glyph>
<glyph name="P" format="2">
  <advance width="600.0"/>
  <unicode hex="0050"/>
  <outline>
    <contour>
      <point x="127.0" y="0.0" type="curve"/>
      <point x="122.0" y="25.0"/>
      <point x="121.5" y="59.75"/>
      <point x="125.0" y="94.5" type="curve" smooth="yes"/>
      <point x="144.0" y="249.5"/>
      <point x="222.5" y="396.0"/>
      <point x="254.0" y="546.5" type="curve" smooth="yes"/>
      <point x="263.5" y="591.75"/>
      <point x="261.5" y="621.0"/>
      <point x="249.75" y="636.0" type="curve"/>
      <point x="267.0" y="668.0" type="line"/>
      <point x="202.0" y="656.0" type="line"/>
      <point x="172.25" y="445.5"/>
      <point x="64.5" y="266.25"/>
      <point x="48.5" y="90.25" type="curve"/>
      <point x="43.5" y="29.25"/>
      <point x="52.75" y="-6.5"/>
      <point x="98.0" y="-6.5" type="curve" smooth="yes"/>
      <point x="108.25" y="-6.5"/>
      <point x="118.75" y="-4.5"/>
    </contour>
    <contour>
      <point x="139.75" y="700.0" type="curve"/>
      <point x="135.5" y="692.0"/>
      <point x="132.5" y="684.75"/>
      <point x="129.5" y="672.25" type="curve"/>
      <point x="122.75" y="644.0"/>
      <point x="128.75" y="627.75"/>
      <point x="147.75" y="627.75" type="curve" smooth="yes"/>
      <point x="172.573506027475" y="627.75"/>
      <point x="249.6405040051" y="648.5"/>
      <point x="367.75" y="648.5" type="curve" smooth="yes"/>
      <point x="439.25" y="648.5"/>
      <point x="476.75" y="637.75"/>
      <point x="510.5" y="609.5" type="curve" smooth="yes"/>
      <point x="524.5" y="566.75"/>
      <point x="518.5" y="523.25"/>
      <point x="510.5" y="492.0" type="curve" smooth="yes"/>
      <point x="505.75" y="474.0" type="line" smooth="yes"/>
      <point x="470.25" y="333.0"/>
      <point x="370.75" y="258.0"/>
      <point x="234.25" y="258.0" type="curve" smooth="yes"/>
      <point x="190.25" y="258.0"/>
      <point x="171.5" y="263.25"/>
      <point x="153.5" y="271.75" type="curve"/>
      <point x="135.0" y="215.0" type="line"/>
      <point x="157.25" y="221.5" type="line"/>
      <point x="170.75" y="203.25"/>
      <point x="198.14606741572499" y="189.25"/>
      <point x="238.25" y="189.25" type="curve" smooth="yes"/>
      <point x="399.25" y="189.25"/>
      <point x="534.5" y="281.75"/>
      <point x="579.25" y="461.25" type="curve" smooth="yes"/>
      <point x="583.75" y="478.5" type="line" smooth="yes"/>
      <point x="610.0" y="580.5"/>
      <point x="588.5" y="720.0"/>
      <point x="382.25" y="720.0" type="curve"/>
      <point x="315.5" y="720.0"/>
      <point x="243.75" y="716.25"/>
    </contour>
  </outline>
</glyph>
<glyph name="Q" format="2">
  <advance width="650.0"/>
  <unicode hex="0051"/>
  <outline>
    <contour>
      <point x="403.25" y="49.75" type="curve"/>
      <point x="347.75" y="16.5" type="line"/>
      <point x="350.5" y="-20.0"/>
      <point x="356.75" y="-51.75"/>
      <point x="370.75" y="-85.75" type="curve" smooth="yes"/>
      <point x="394.25" y="-138.5"/>
      <point x="423.0" y="-162.25"/>
      <point x="465.5" y="-162.25" type="curve" smooth="yes"/>
      <point x="489.5" y="-162.25"/>
      <point x="506.0" y="-155.75"/>
      <point x="517.5" y="-144.25" type="curve" smooth="yes"/>
      <point x="528.5" y="-133.25"/>
      <point x="535.0" y="-120.75"/>
      <point x="540.25" y="-103.25" type="curve" smooth="yes"/>
      <point x="544.75" y="-89.5"/>
      <point x="547.0" y="-74.25"/>
      <point x="547.0" y="-62.25" type="curve"/>
      <point x="542.5" y="-62.25" type="line"/>
      <point x="529.75" y="-72.25"/>
      <point x="514.0" y="-78.25"/>
      <point x="496.25" y="-78.25" type="curve" smooth="yes"/>
      <point x="467.25" y="-78.25"/>
      <point x="456.0" y="-68.75"/>
      <point x="441.25" y="-39.75" type="curve"/>
      <point x="427.5" y="-12.5"/>
      <point x="414.75" y="19.5"/>
    </contour>
    <contour>
      <point x="426.75" y="720.0" type="curve"/>
      <point x="265.25" y="720.0"/>
      <point x="155.0" y="608.5"/>
      <point x="91.25" y="347.25" type="curve" smooth="yes"/>
      <point x="84.25" y="318.5" type="line" smooth="yes"/>
      <point x="32.5" y="106.75"/>
      <point x="106.5" y="-20.0"/>
      <point x="262.25" y="-20.0" type="curve" smooth="yes"/>
      <point x="420.75" y="-20.0"/>
      <point x="532.0" y="71.75"/>
      <point x="593.0" y="315.5" type="curve" smooth="yes"/>
      <point x="600.0" y="343.5" type="line" smooth="yes"/>
      <point x="661.75" y="588.5"/>
      <point x="605.25" y="720.0"/>
    </contour>
    <contour>
      <point x="157.0" y="310.25" type="curve" smooth="yes"/>
      <point x="162.25" y="333.75" type="line" smooth="yes"/>
      <point x="214.75" y="568.0"/>
      <point x="308.25" y="644.25"/>
      <point x="422.75" y="644.25" type="curve" smooth="yes"/>
      <point x="453.25" y="644.25"/>
      <point x="485.0" y="638.0"/>
      <point x="505.5" y="630.75" type="curve" smooth="yes"/>
      <point x="562.25" y="581.0"/>
      <point x="562.75" y="489.5"/>
      <point x="526.75" y="344.5" type="curve" smooth="yes"/>
      <point x="521.5" y="323.25" type="line" smooth="yes"/>
      <point x="472.75" y="126.5"/>
      <point x="383.5" y="50.75"/>
      <point x="268.25" y="50.75" type="curve" smooth="yes"/>
      <point x="240.0" y="50.75"/>
      <point x="210.75" y="56.25"/>
      <point x="185.0" y="67.0" type="curve" smooth="yes"/>
      <point x="140.0" y="115.5"/>
      <point x="132.75" y="201.75"/>
    </contour>
  </outline>
</glyph>
<glyph name="R" format="2">
  <advance width="600.0"/>
  <unicode hex="0052"/>
  <outline>
    <contour>
      <point x="348.0909090909091" y="253.1818181818182" type="curve"/>
      <point x="282.90909090909093" y="227.0" type="line"/>
      <point x="292.0" y="160.54545454545453"/>
      <point x="304.6363636363637" y="108.63636363636364"/>
      <point x="331.8181818181818" y="55.81818181818182" type="curve" smooth="yes"/>
      <point x="355.8181818181818" y="8.909090909090908"/>
      <point x="384.8181818181818" y="-12.727272727272727"/>
      <point x="429.8181818181818" y="-12.727272727272727" type="curve" smooth="yes"/>
      <point x="450.90909090909093" y="-12.727272727272727"/>
      <point x="465.3636363636363" y="-6.909090909090909"/>
      <point x="476.27272727272725" y="4.0" type="curve" smooth="yes"/>
      <point x="486.0" y="13.727272727272728"/>
      <point x="492.72727272727275" y="26.636363636363637"/>
      <point x="497.3636363636364" y="45.45454545454545" type="curve" smooth="yes"/>
      <point x="500.4545454545455" y="58.0"/>
      <point x="502.00000000000006" y="70.45454545454545"/>
      <point x="501.27272727272725" y="82.72727272727272" type="curve"/>
      <point x="496.7272727272727" y="82.72727272727272" type="line"/>
      <point x="483.99999999999994" y="72.0909090909091"/>
      <point x="466.90909090909093" y="65.45454545454544"/>
      <point x="450.63636363636357" y="65.45454545454544" type="curve" smooth="yes"/>
      <point x="426.00000000000006" y="65.45454545454544"/>
      <point x="408.0" y="79.45454545454545"/>
      <point x="393.3636363636364" y="109.45454545454545" type="curve"/>
      <point x="368.8181818181818" y="155.8181818181818"/>
      <point x="357.8181818181818" y="195.1818181818182"/>
    </contour>
    <contour>
      <point x="139.54545454545456" y="700.0" type="curve"/>
      <point x="135.18181818181816" y="691.4545454545454"/>
      <point x="131.81818181818184" y="683.9090909090909"/>
      <point x="129.0" y="671.3636363636363" type="curve"/>
      <point x="121.99999999999999" y="642.4545454545455"/>
      <point x="127.99999999999997" y="625.5454545454545"/>
      <point x="147.36363636363637" y="625.5454545454545" type="curve" smooth="yes"/>
      <point x="167.8236111507273" y="625.5454545454545"/>
      <point x="262.18181818181824" y="645.5454545454545"/>
      <point x="364.63636363636357" y="645.5454545454545" type="curve"/>
      <point x="432.90909090909093" y="645.5454545454545"/>
      <point x="471.9090909090909" y="633.5454545454546"/>
      <point x="507.3636363636364" y="608.5454545454545" type="curve" smooth="yes"/>
      <point x="517.8181818181819" y="576.8181818181819"/>
      <point x="517.2727272727273" y="542.2727272727273"/>
      <point x="506.1818181818182" y="495.7272727272727" type="curve" smooth="yes"/>
      <point x="502.1818181818182" y="479.27272727272725" type="line" smooth="yes"/>
      <point x="466.6363636363636" y="330.99999999999994"/>
      <point x="342.90909090909093" y="269.6363636363636"/>
      <point x="229.27272727272725" y="269.6363636363636" type="curve"/>
      <point x="185.4545454545455" y="269.6363636363636"/>
      <point x="168.4545454545454" y="273.3636363636364"/>
      <point x="149.99999999999997" y="283.45454545454544" type="curve"/>
      <point x="129.7272727272727" y="219.36363636363637" type="line" smooth="yes"/>
      <point x="159.72727272727275" y="226.45454545454544" type="line"/>
      <point x="177.00000000000003" y="208.45454545454544"/>
      <point x="201.5454545454546" y="199.54545454545453"/>
      <point x="234.72727272727272" y="199.54545454545453" type="curve" smooth="yes"/>
      <point x="396.45454545454544" y="199.54545454545453"/>
      <point x="537.0000000000001" y="299.6363636363636"/>
      <point x="579.4545454545455" y="470.6363636363637" type="curve" smooth="yes"/>
      <point x="585.3636363636365" y="494.2727272727272" type="line" smooth="yes"/>
      <point x="610.0909090909091" y="592.4545454545455"/>
      <point x="584.4545454545455" y="720.0"/>
      <point x="378.6363636363636" y="720.0" type="curve"/>
      <point x="312.81818181818176" y="720.0"/>
      <point x="241.45454545454544" y="715.9090909090909"/>
    </contour>
    <contour>
      <point x="126.99999999999999" y="0.0" type="curve"/>
      <point x="122.0" y="25.181818181818183"/>
      <point x="121.54545454545455" y="59.90909090909091"/>
      <point x="125.09090909090911" y="94.54545454545455" type="curve"/>
      <point x="144.1818181818182" y="248.72727272727278"/>
      <point x="222.36363636363637" y="394.5454545454545"/>
      <point x="253.3636363636364" y="544.2727272727271" type="curve"/>
      <point x="262.71299031977276" y="589.2493771035545"/>
      <point x="260.5454545454545" y="618.4545454545454"/>
      <point x="248.54545454545453" y="633.6363636363636" type="curve" smooth="yes"/>
      <point x="265.8181818181818" y="666.0" type="line"/>
      <point x="201.0" y="653.8181818181818" type="line"/>
      <point x="171.36363636363637" y="443.8181818181818"/>
      <point x="64.36363636363636" y="266.5454545454545"/>
      <point x="48.09090909090909" y="91.0" type="curve" smooth="yes"/>
      <point x="42.90909090909091" y="29.727272727272727"/>
      <point x="50.727272727272734" y="-6.545454545454546"/>
      <point x="97.0909090909091" y="-6.545454545454546" type="curve" smooth="yes"/>
      <point x="107.63636363636365" y="-6.545454545454546"/>
      <point x="118.45454545454545" y="-4.545454545454545"/>
    </contour>
  </outline>
</glyph>
<glyph name="T" format="2">
  <advance width="600.0"/>
  <unicode hex="0054"/>
  <outline>
    <contour>
      <point x="156.54545454545456" y="700.0" type="line"/>
      <point x="152.72727272727275" y="694.9090909090909"/>
      <point x="149.90909090909093" y="687.5454545454545"/>
      <point x="147.3636363636364" y="679.090909090909" type="curve" smooth="yes"/>
      <point x="137.9985611392" y="642.7522999345455"/>
      <point x="163.18181818181822" y="625.5454545454545"/>
      <point x="197.36363636363635" y="625.5454545454545" type="curve" smooth="yes"/>
      <point x="639.2727272727273" y="625.5454545454545" type="line"/>
      <point x="643.7272727272727" y="632.5454545454545"/>
      <point x="647.9090909090909" y="641.6363636363636"/>
      <point x="650.7272727272727" y="651.5454545454546" type="curve" smooth="yes"/>
      <point x="657.6363636363636" y="681.3636363636364"/>
      <point x="649.0909090909091" y="700.0"/>
      <point x="623.1818181818182" y="700.0" type="curve"/>
    </contour>
    <contour>
      <point x="291.18181818181813" y="-1.1102230246251565e-16" type="curve"/>
      <point x="286.1818181818182" y="25.18181818181818"/>
      <point x="286.45454545454544" y="59.909090909090914"/>
      <point x="291.45454545454544" y="94.54545454545455" type="curve"/>
      <point x="313.90909090909093" y="247.09090909090907"/>
      <point x="388.45454545454544" y="391.27272727272725"/>
      <point x="419.18181818181813" y="539.3636363636363" type="curve"/>
      <point x="428.54545454545456" y="584.4545454545454"/>
      <point x="423.0" y="606.8181818181819"/>
      <point x="413.9090909090909" y="621.2727272727271" type="curve" smooth="yes"/>
      <point x="431.1818181818182" y="653.0909090909091" type="line"/>
      <point x="364.0" y="645.8181818181819" type="line"/>
      <point x="335.0909090909091" y="435.8181818181818"/>
      <point x="232.45454545454544" y="266.5454545454546"/>
      <point x="211.81818181818184" y="91.0" type="curve" smooth="yes"/>
      <point x="205.1818181818182" y="29.72727272727273"/>
      <point x="214.1818181818182" y="-6.545454545454545"/>
      <point x="260.5454545454545" y="-6.545454545454545" type="curve" smooth="yes"/>
      <point x="271.09090909090907" y="-6.545454545454545"/>
      <point x="282.6363636363637" y="-4.545454545454546"/>
    </contour>
  </outline>
</glyph>
<glyph name="U" format="2">
  <advance width="650.0"/>
  <unicode hex="0055"/>
  <outline>
    <contour>
      <point x="509.27272727272725" y="-2.909090909090909" type="curve"/>
      <point x="504.18181818181824" y="30.72727272727273"/>
      <point x="504.0909090909092" y="70.09090909090908"/>
      <point x="510.3636363636364" y="108.54545454545455" type="curve" smooth="yes"/>
      <point x="536.1818181818182" y="272.90909090909093"/>
      <point x="609.7272727272727" y="405.1818181818182"/>
      <point x="646.2727272727274" y="577.1818181818181" type="curve" smooth="yes"/>
      <point x="666.3636363636365" y="673.9090909090909"/>
      <point x="653.4545454545455" y="709.4545454545455"/>
      <point x="611.2727272727274" y="709.4545454545455" type="curve" smooth="yes"/>
      <point x="599.7272727272727" y="709.4545454545455"/>
      <point x="591.0909090909091" y="707.1818181818181"/>
      <point x="579.6363636363637" y="703.9090909090909" type="curve"/>
      <point x="581.2727272727274" y="520.909090909091"/>
      <point x="461.99999999999994" y="310.45454545454544"/>
      <point x="438.99999999999994" y="118.63636363636364" type="curve" smooth="yes"/>
      <point x="426.3636363636363" y="19.72727272727273"/>
      <point x="445.0" y="-10.0"/>
      <point x="480.27272727272725" y="-10.0" type="curve" smooth="yes"/>
      <point x="490.99999999999994" y="-10.0"/>
      <point x="499.45454545454544" y="-8.0"/>
    </contour>
    <contour>
      <point x="169.72727272727275" y="-17.272727272727273" type="curve" smooth="yes"/>
      <point x="267.0" y="-17.272727272727273"/>
      <point x="363.18181818181813" y="27.45454545454545"/>
      <point x="435.1818181818182" y="130.8181818181818" type="curve"/>
      <point x="459.0909090909091" y="125.72727272727272" type="line"/>
      <point x="492.72727272727275" y="281.3636363636364" type="line"/>
      <point x="383.81818181818187" y="114.45454545454545"/>
      <point x="278.6363636363636" y="65.45454545454545"/>
      <point x="191.45454545454547" y="65.45454545454545" type="curve" smooth="yes"/>
      <point x="135.54545454545456" y="65.45454545454545"/>
      <point x="116.00000000000001" y="87.63636363636364"/>
      <point x="115.72727272727275" y="144.63636363636363" type="curve"/>
      <point x="164.1818181818182" y="306.4545454545454"/>
      <point x="221.63636363636363" y="420.6363636363637"/>
      <point x="252.54545454545453" y="563.2727272727273" type="curve"/>
      <point x="275.6363636363636" y="670.2727272727273"/>
      <point x="261.54545454545456" y="708.7272727272727"/>
      <point x="218.72727272727272" y="708.7272727272727" type="curve"/>
      <point x="206.9090909090909" y="708.7272727272727"/>
      <point x="196.54545454545453" y="707.4545454545455"/>
      <point x="183.8181818181818" y="703.3636363636364" type="curve"/>
      <point x="185.72727272727275" y="669.0"/>
      <point x="183.36363636363637" y="628.6363636363636"/>
      <point x="172.1818181818182" y="573.0" type="curve"/>
      <point x="145.45454545454544" y="443.1818181818182"/>
      <point x="73.54545454545455" y="302.45454545454544"/>
      <point x="47.81818181818182" y="157.0909090909091" type="curve"/>
      <point x="31.727272727272723" y="66.45454545454545"/>
      <point x="68.0" y="-17.272727272727273"/>
    </contour>
  </outline>
</glyph>
<glyph name="V" format="2">
  <advance width="650.0"/>
  <unicode hex="0056"/>
  <outline>
    <contour>
      <point x="191.0" y="705.0" type="curve"/>
      <point x="181.75" y="705.0"/>
      <point x="171.75" y="703.75"/>
      <point x="161.5" y="700.0" type="curve"/>
      <point x="162.5" y="670.0"/>
      <point x="161.25" y="646.75"/>
      <point x="144.75" y="570.75" type="curve" smooth="yes"/>
      <point x="97.25" y="355.25"/>
      <point x="119.25" y="157.25"/>
      <point x="187.5" y="43.0" type="curve" smooth="yes"/>
      <point x="216.0" y="-4.75"/>
      <point x="235.5" y="-9.5"/>
      <point x="265.5" y="-9.5" type="curve"/>
      <point x="276.5" y="-9.5"/>
      <point x="287.5" y="-7.5"/>
      <point x="298.5" y="-4.5" type="curve"/>
      <point x="475.25" y="120.25"/>
      <point x="617.75" y="379.25"/>
      <point x="677.5" y="625.0" type="curve"/>
      <point x="692.0" y="683.5"/>
      <point x="675.75" y="704.25"/>
      <point x="638.75" y="704.25" type="curve"/>
      <point x="629.0" y="704.25"/>
      <point x="619.75" y="703.0"/>
      <point x="608.0" y="700.0" type="curve"/>
      <point x="558.5" y="403.75"/>
      <point x="417.0" y="176.75"/>
      <point x="254.0" y="48.25" type="curve"/>
      <point x="283.75" y="60.0" type="line"/>
      <point x="251.0" y="64.75" type="line"/>
      <point x="271.5" y="49.25" type="line"/>
      <point x="190.75" y="167.75"/>
      <point x="171.75" y="358.5"/>
      <point x="228.25" y="585.25" type="curve"/>
      <point x="251.0" y="677.5"/>
      <point x="228.0" y="705.0"/>
    </contour>
  </outline>
</glyph>
<glyph name="W" format="2">
  <advance width="900.0"/>
  <unicode hex="0057"/>
  <outline>
    <contour>
      <point x="161.0" y="703.75" type="curve"/>
      <point x="163.75" y="674.0"/>
      <point x="157.75" y="639.25"/>
      <point x="147.0" y="593.0" type="curve" smooth="yes"/>
      <point x="73.25" y="283.25"/>
      <point x="93.75" y="116.0"/>
      <point x="148.25" y="19.0" type="curve"/>
      <point x="160.5" y="-1.75"/>
      <point x="181.5" y="-10.0"/>
      <point x="200.25" y="-10.0" type="curve"/>
      <point x="212.5" y="-10.0"/>
      <point x="221.0" y="-8.5"/>
      <point x="231.25" y="-4.25" type="curve"/>
      <point x="310.25" y="79.0"/>
      <point x="448.25" y="303.25"/>
      <point x="493.25" y="446.5" type="curve"/>
      <point x="463.5" y="415.5" type="line"/>
      <point x="504.5" y="409.75" type="line"/>
      <point x="493.25" y="450.25" type="line"/>
      <point x="473.75" y="301.5"/>
      <point x="489.5" y="125.25"/>
      <point x="524.25" y="20.5" type="curve" smooth="yes"/>
      <point x="534.0" y="-2.0"/>
      <point x="548.0" y="-10.0"/>
      <point x="573.75" y="-10.0" type="curve" smooth="yes"/>
      <point x="587.75" y="-10.0"/>
      <point x="599.75" y="-7.75"/>
      <point x="608.75" y="-4.25" type="curve"/>
      <point x="740.5" y="122.25"/>
      <point x="840.25" y="298.5"/>
      <point x="934.75" y="619.75" type="curve"/>
      <point x="952.75" y="683.0"/>
      <point x="940.5" y="710.25"/>
      <point x="905.0" y="710.25" type="curve"/>
      <point x="893.5" y="710.25"/>
      <point x="883.75" y="708.25"/>
      <point x="872.75" y="703.75" type="curve"/>
      <point x="791.25" y="369.0"/>
      <point x="689.5" y="187.75"/>
      <point x="567.25" y="55.75" type="curve"/>
      <point x="605.25" y="72.25" type="line"/>
      <point x="557.5" y="80.5" type="line"/>
      <point x="587.25" y="52.75" type="line"/>
      <point x="545.0" y="152.5"/>
      <point x="544.5" y="336.25"/>
      <point x="570.0" y="547.25" type="curve" smooth="yes"/>
      <point x="575.5" y="593.5"/>
      <point x="557.0" y="613.75"/>
      <point x="519.5" y="613.75" type="curve"/>
      <point x="488.25" y="613.75" type="line"/>
      <point x="416.75" y="389.5"/>
      <point x="312.75" y="197.5"/>
      <point x="185.25" y="48.75" type="curve"/>
      <point x="238.0" y="71.5" type="line"/>
      <point x="180.25" y="79.75" type="line"/>
      <point x="210.25" y="52.75" type="line"/>
      <point x="159.25" y="167.5"/>
      <point x="159.5" y="329.25"/>
      <point x="225.5" y="601.0" type="curve" smooth="yes"/>
      <point x="242.25" y="669.75"/>
      <point x="237.5" y="709.5"/>
      <point x="199.25" y="709.5" type="curve" smooth="yes"/>
      <point x="183.5" y="709.5"/>
      <point x="172.25" y="707.25"/>
    </contour>
  </outline>
</glyph>
<glyph name="X" format="2">
  <advance width="650.0"/>
  <unicode hex="0058"/>
  <outline>
    <contour>
      <point x="498.8181818181818" y="-7.090909090909091" type="curve" smooth="yes"/>
      <point x="513.3636363636363" y="-7.090909090909091"/>
      <point x="530.1818181818181" y="-4.545454545454545"/>
      <point x="543.1818181818181" y="0.0" type="curve"/>
      <point x="479.81818181818187" y="75.45454545454545"/>
      <point x="396.99999999999994" y="207.09090909090907"/>
      <point x="348.2727272727273" y="325.27272727272725" type="curve"/>
      <point x="334.7272727272727" y="362.1818181818182" type="line"/>
      <point x="282.54545454545456" y="477.72727272727275"/>
      <point x="248.81818181818184" y="583.7272727272729"/>
      <point x="236.8181818181818" y="655.9090909090909" type="curve" smooth="yes"/>
      <point x="230.36363636363635" y="696.4545454545454"/>
      <point x="216.00000000000003" y="708.0"/>
      <point x="179.72727272727272" y="708.0" type="curve" smooth="yes"/>
      <point x="166.36363636363637" y="708.0"/>
      <point x="154.8181818181818" y="706.7272727272727"/>
      <point x="141.63636363636365" y="703.6363636363636" type="curve"/>
      <point x="162.0909090909091" y="583.9090909090909"/>
      <point x="213.18181818181816" y="449.9090909090909"/>
      <point x="270.72727272727275" y="317.90909090909093" type="curve"/>
      <point x="282.5454545454545" y="288.0" type="line"/>
      <point x="331.0" y="181.00000000000003"/>
      <point x="399.7272727272727" y="72.45454545454545"/>
      <point x="441.8181818181818" y="19.090909090909093" type="curve" smooth="yes"/>
      <point x="455.18181818181824" y="0.09090909090909055"/>
      <point x="466.3636363636364" y="-7.090909090909091"/>
    </contour>
    <contour>
      <point x="669.1818181818181" y="705.0909090909091" type="curve"/>
      <point x="650.0909090909091" y="705.0909090909091"/>
      <point x="640.090909090909" y="703.8181818181819"/>
      <point x="627.0" y="700.0" type="curve"/>
      <point x="555.2727272727274" y="567.5454545454545"/>
      <point x="454.0" y="458.0"/>
      <point x="341.99999999999994" y="360.90909090909093" type="curve"/>
      <point x="311.4545454545455" y="364.54545454545456" type="line"/>
      <point x="350.5454545454545" y="282.8181818181818" type="line"/>
      <point x="501.09090909090907" y="399.7272727272728"/>
      <point x="605.8181818181818" y="507.0909090909091"/>
      <point x="684.9090909090909" y="634.6363636363636" type="curve"/>
      <point x="712.1818181818181" y="680.1818181818182"/>
      <point x="706.909090909091" y="705.0909090909091"/>
    </contour>
    <contour>
      <point x="9.90909090909091" y="-5.090909090909092" type="curve" smooth="yes"/>
      <point x="23.45454545454545" y="-5.090909090909092"/>
      <point x="36.63636363636364" y="-2.8181818181818183"/>
      <point x="47.63636363636364" y="0.0" type="curve"/>
      <point x="105.90909090909093" y="86.9090909090909"/>
      <point x="205.0" y="182.09090909090907"/>
      <point x="292.8181818181818" y="252.90909090909088" type="curve"/>
      <point x="322.2727272727273" y="248.54545454545453" type="line"/>
      <point x="277.8181818181818" y="327.6363636363636" type="line"/>
      <point x="151.72727272727272" y="232.81818181818178"/>
      <point x="45.45454545454546" y="135.0909090909091"/>
      <point x="-18.818181818181813" y="53.27272727272727" type="curve"/>
      <point x="-48.09090909090909" y="15.636363636363637"/>
      <point x="-28.090909090909093" y="-5.090909090909092"/>
    </contour>
  </outline>
</glyph>
<glyph name="Y" format="2">
  <advance width="600.0"/>
  <unicode hex="0059"/>
  <outline>
    <contour>
      <point x="286.75" y="0.0" type="curve"/>
      <point x="279.75" y="33.0"/>
      <point x="282.75" y="68.0"/>
      <point x="291.0" y="106.25" type="curve"/>
      <point x="302.0" y="156.5"/>
      <point x="313.5" y="199.0"/>
      <point x="331.75" y="248.5" type="curve"/>
      <point x="260.25" y="249.75" type="line"/>
      <point x="235.5" y="187.0"/>
      <point x="217.0" y="126.25"/>
      <point x="206.75" y="61.75" type="curve"/>
      <point x="200.0" y="21.5"/>
      <point x="208.25" y="-5.75"/>
      <point x="256.0" y="-5.75" type="curve" smooth="yes"/>
      <point x="267.25" y="-5.75"/>
      <point x="277.0" y="-3.5"/>
    </contour>
    <contour>
      <point x="155.25" y="700.0" type="curve"/>
      <point x="131.5" y="446.75"/>
      <point x="161.25" y="350.5"/>
      <point x="249.0" y="234.25" type="curve"/>
      <point x="259.25" y="220.25"/>
      <point x="273.5" y="218.5"/>
      <point x="310.25" y="214.75" type="curve"/>
      <point x="470.5" y="338.25"/>
      <point x="574.75" y="463.75"/>
      <point x="650.75" y="659.25" type="curve"/>
      <point x="662.0" y="690.75"/>
      <point x="649.25" y="705.75"/>
      <point x="617.75" y="705.75" type="curve"/>
      <point x="601.75" y="705.75"/>
      <point x="592.0" y="703.5"/>
      <point x="581.25" y="699.75" type="curve"/>
      <point x="511.25" y="509.25"/>
      <point x="428.25" y="402.0"/>
      <point x="282.5" y="274.25" type="curve"/>
      <point x="325.75" y="288.5" type="line"/>
      <point x="272.0" y="295.0" type="line"/>
      <point x="304.5" y="272.5" type="line"/>
      <point x="219.5" y="403.75"/>
      <point x="210.0" y="480.0"/>
      <point x="226.75" y="669.0" type="curve"/>
      <point x="230.25" y="696.25"/>
      <point x="212.0" y="705.75"/>
      <point x="191.0" y="705.75" type="curve" smooth="yes"/>
      <point x="176.5" y="705.75"/>
      <point x="166.0" y="703.75"/>
    </contour>
  </outline>
</glyph>
<glyph name="bracketleft" format="2">
  <advance width="572.7272727272727"/>
  <unicode hex="005B"/>
  <outline>
    <contour>
      <point x="346.3636363636364" y="-161.0" type="line"/>
      <point x="350.5454545454545" y="-153.45454545454544"/>
      <point x="354.1818181818182" y="-146.36363636363637"/>
      <point x="357.27272727272725" y="-134.27272727272728" type="curve" smooth="yes"/>
      <point x="366.27272727272725" y="-100.27272727272728"/>
      <point x="359.09090909090907" y="-86.81818181818181"/>
      <point x="336.1818181818182" y="-86.81818181818181" type="curve"/>
      <point x="141.8181818181818" y="-86.81818181818181" type="line"/>
      <point x="161.54545454545456" y="164.00000000000003"/>
      <point x="296.0909090909091" y="413.8181818181818"/>
      <point x="328.1818181818182" y="685.8181818181818" type="curve"/>
      <point x="557.5454545454546" y="685.8181818181818" type="line"/>
      <point x="562.4545454545456" y="693.2727272727274"/>
      <point x="566.8181818181818" y="702.8181818181818"/>
      <point x="569.9090909090909" y="713.6363636363636" type="curve" smooth="yes"/>
      <point x="576.1818181818181" y="738.5454545454545"/>
      <point x="571.9090909090909" y="760.0"/>
      <point x="549.7272727272727" y="760.0" type="curve"/>
      <point x="305.0" y="760.0" type="line" smooth="yes"/>
      <point x="283.0" y="760.0"/>
      <point x="266.90909090909093" y="758.7272727272727"/>
      <point x="254.18181818181816" y="755.1818181818181" type="curve"/>
      <point x="254.18181818181822" y="721.3636363636364"/>
      <point x="252.63636363636363" y="691.6363636363635"/>
      <point x="245.4545454545455" y="647.2727272727274" type="curve" smooth="yes"/>
      <point x="204.54545454545453" y="391.6363636363636"/>
      <point x="88.81818181818181" y="173.45454545454544"/>
      <point x="58.81818181818181" y="-97.36363636363635" type="curve" smooth="yes"/>
      <point x="55.72727272727273" y="-127.54545454545453"/>
      <point x="69.81818181818181" y="-161.0"/>
      <point x="94.54545454545455" y="-161.0" type="curve" smooth="yes"/>
    </contour>
  </outline>
</glyph>
<glyph name="backslash" format="2">
  <advance width="600.0"/>
  <unicode hex="005C"/>
  <outline>
    <contour>
      <point x="202.6147644676" y="750.25" type="curve"/>
      <point x="199.967437560725" y="429.75"/>
      <point x="241.6977230065" y="146.75"/>
      <point x="327.24310338915" y="-99.0" type="curve" smooth="yes"/>
      <point x="337.3036005855" y="-127.75"/>
      <point x="355.99038654245" y="-138.0"/>
      <point x="384.99038654245" y="-138.0" type="curve" smooth="yes"/>
      <point x="402.24038654245" y="-138.0"/>
      <point x="415.740595530675" y="-135.0"/>
      <point x="431.24108316977504" y="-128.0" type="curve"/>
      <point x="416.68002867155" y="-107.25"/>
      <point x="407.806526420425" y="-85.75"/>
      <point x="397.55875562797496" y="-53.75" type="curve"/>
      <point x="322.1377134493" y="182.5"/>
      <point x="286.03093025475005" y="444.0"/>
      <point x="286.300644809025" y="727.0" type="curve"/>
      <point x="286.364834130325" y="751.25"/>
      <point x="266.052874016525" y="759.0"/>
      <point x="241.05287401652498" y="759.0" type="curve" smooth="yes"/>
      <point x="226.55287401652498" y="759.0"/>
      <point x="215.86518244405" y="756.25"/>
    </contour>
  </outline>
</glyph>
<glyph name="bracketright" format="2">
  <advance width="572.7272727272727"/>
  <unicode hex="005D"/>
  <outline>
    <contour>
      <point x="244.36363636363635" y="760.0" type="line"/>
      <point x="240.1818181818182" y="752.4545454545454"/>
      <point x="236.54545454545456" y="745.3636363636364"/>
      <point x="233.45454545454547" y="733.2727272727273" type="curve" smooth="yes"/>
      <point x="224.45454545454547" y="699.2727272727273"/>
      <point x="231.6363636363636" y="685.8181818181819"/>
      <point x="254.54545454545453" y="685.8181818181819" type="curve"/>
      <point x="448.9090909090909" y="685.8181818181819" type="line"/>
      <point x="429.18181818181813" y="435.0"/>
      <point x="294.63636363636357" y="185.1818181818182"/>
      <point x="262.5454545454545" y="-86.8181818181818" type="curve"/>
      <point x="33.18181818181819" y="-86.8181818181818" type="line"/>
      <point x="28.27272727272727" y="-94.27272727272725"/>
      <point x="23.90909090909091" y="-103.81818181818181"/>
      <point x="20.818181818181813" y="-114.63636363636364" type="curve" smooth="yes"/>
      <point x="14.54545454545454" y="-139.54545454545453"/>
      <point x="18.818181818181813" y="-161.0"/>
      <point x="40.99999999999999" y="-161.0" type="curve"/>
      <point x="285.7272727272727" y="-161.0" type="line" smooth="yes"/>
      <point x="307.72727272727275" y="-161.0"/>
      <point x="323.8181818181818" y="-159.72727272727272"/>
      <point x="336.5454545454545" y="-156.1818181818182" type="curve"/>
      <point x="336.5454545454545" y="-122.36363636363639"/>
      <point x="338.09090909090907" y="-92.63636363636364"/>
      <point x="345.27272727272725" y="-48.27272727272727" type="curve" smooth="yes"/>
      <point x="386.18181818181813" y="207.36363636363637"/>
      <point x="501.9090909090909" y="425.5454545454545"/>
      <point x="531.9090909090909" y="696.3636363636363" type="curve" smooth="yes"/>
      <point x="535.0" y="726.5454545454546"/>
      <point x="520.9090909090908" y="760.0"/>
      <point x="496.18181818181813" y="760.0" type="curve" smooth="yes"/>
    </contour>
  </outline>
</glyph>
<glyph name="asciicircum" format="2">
  <advance width="600.0"/>
  <unicode hex="005E"/>
  <outline>
    <contour>
      <point x="396.72727272727275" y="760.0" type="curve"/>
      <point x="307.54545454545456" y="692.1818181818181"/>
      <point x="216.72727272727275" y="600.7272727272727"/>
      <point x="139.81818181818184" y="476.45454545454544" type="curve" smooth="yes"/>
      <point x="116.8181818181818" y="438.09090909090907"/>
      <point x="105.54545454545455" y="415.09090909090907"/>
      <point x="101.81818181818181" y="399.09090909090907" type="curve" smooth="yes"/>
      <point x="98.45454545454544" y="382.0"/>
      <point x="109.54545454545455" y="370.27272727272725"/>
      <point x="139.09090909090907" y="370.27272727272725" type="curve" smooth="yes"/>
      <point x="167.8181818181818" y="370.27272727272725" type="line"/>
      <point x="239.18181818181822" y="513.9090909090909"/>
      <point x="298.8181818181818" y="591.2727272727273"/>
      <point x="428.3636363636363" y="705.2727272727273" type="curve"/>
      <point x="374.1818181818182" y="684.4545454545454" type="line"/>
      <point x="439.2727272727273" y="684.4545454545454" type="line" smooth="yes"/>
      <point x="393.8181818181818" y="704.5454545454545" type="line"/>
      <point x="461.54545454545456" y="609.3636363636363"/>
      <point x="482.1818181818182" y="538.6363636363636"/>
      <point x="483.72727272727275" y="405.27272727272725" type="curve" smooth="yes"/>
      <point x="485.6363636363636" y="379.3636363636364"/>
      <point x="501.0" y="371.0909090909091"/>
      <point x="529.7272727272726" y="371.0909090909091" type="curve" smooth="yes"/>
      <point x="542.2727272727273" y="371.0909090909091"/>
      <point x="550.8181818181819" y="373.1818181818182"/>
      <point x="559.9090909090909" y="376.90909090909093" type="curve"/>
      <point x="560.0" y="551.1818181818182"/>
      <point x="525.6363636363636" y="642.5454545454545"/>
      <point x="469.99999999999994" y="730.8181818181818" type="curve" smooth="yes"/>
      <point x="457.0" y="752.2727272727271"/>
      <point x="445.2727272727273" y="760.0"/>
      <point x="427.8181818181818" y="760.0" type="curve" smooth="yes"/>
      <point x="417.5454545454545" y="760.0"/>
      <point x="407.0" y="760.0"/>
    </contour>
  </outline>
</glyph>
<glyph name="underscore" format="2">
  <advance width="600.0"/>
  <unicode hex="005F"/>
  <outline>
    <contour>
      <point x="-30.181818181818183" y="-86.36363636363636" type="line"/>
      <point x="-32.90909090909091" y="-93.63636363636363"/>
      <point x="-34.90909090909091" y="-99.18181818181819"/>
      <point x="-36.90909090909091" y="-105.72727272727273" type="curve" smooth="yes"/>
      <point x="-48.09090909090909" y="-146.1818181818182"/>
      <point x="-40.27272727272727" y="-163.63636363636365"/>
      <point x="-5.545454545454546" y="-163.63636363636365" type="curve" smooth="yes"/>
      <point x="433.81818181818187" y="-163.63636363636365" type="line"/>
      <point x="437.54545454545456" y="-156.54545454545456"/>
      <point x="440.4545454545455" y="-148.45454545454547"/>
      <point x="443.0909090909091" y="-139.1818181818182" type="curve" smooth="yes"/>
      <point x="453.2727272727273" y="-105.18181818181817"/>
      <point x="443.6363636363637" y="-86.36363636363636"/>
      <point x="416.1818181818182" y="-86.36363636363636" type="curve" smooth="yes"/>
    </contour>
  </outline>
</glyph>
<glyph name="grave" format="2">
  <advance width="600.0"/>
  <unicode hex="0060"/>
  <outline>
    <contour>
      <point x="372.75" y="739.75" type="curve"/>
      <point x="354.0" y="744.5"/>
      <point x="339.5" y="745.25"/>
      <point x="321.75" y="744.0" type="curve" smooth="yes"/>
      <point x="292.75" y="742.5"/>
      <point x="274.0" y="732.75"/>
      <point x="271.25" y="705.0" type="curve" smooth="yes"/>
      <point x="265.0" y="631.0"/>
      <point x="291.5" y="517.25"/>
      <point x="326.75" y="463.0" type="curve" smooth="yes"/>
      <point x="336.75" y="448.5"/>
      <point x="349.5" y="438.5"/>
      <point x="367.25" y="438.5" type="curve" smooth="yes"/>
      <point x="386.0" y="438.5"/>
      <point x="398.0" y="443.0"/>
      <point x="414.25" y="453.0" type="curve"/>
      <point x="379.25" y="546.0"/>
      <point x="366.5" y="628.5"/>
    </contour>
  </outline>
</glyph>
<glyph name="a" format="2">
  <advance width="600.0"/>
  <unicode hex="0061"/>
  <outline>
    <contour>
      <point x="327.5454545454545" y="540.3636363636364" type="curve" smooth="yes"/>
      <point x="218.54545454545453" y="540.3636363636364"/>
      <point x="114.18181818181819" y="461.09090909090907"/>
      <point x="59.81818181818182" y="244.09090909090907" type="curve" smooth="yes"/>
      <point x="55.0" y="224.81818181818184" type="line" smooth="yes"/>
      <point x="24.909090909090914" y="107.09090909090908"/>
      <point x="64.72727272727272" y="-10.545454545454545"/>
      <point x="173.72727272727275" y="-10.545454545454545" type="curve" smooth="yes"/>
      <point x="245.27272727272722" y="-10.545454545454545"/>
      <point x="317.45454545454544" y="56.0"/>
      <point x="370.6363636363636" y="147.45454545454547" type="curve"/>
      <point x="391.8181818181818" y="147.45454545454547" type="line"/>
      <point x="430.27272727272725" y="294.27272727272725" type="line"/>
      <point x="327.18181818181813" y="124.27272727272727"/>
      <point x="264.6363636363636" y="66.90909090909092"/>
      <point x="189.0" y="66.90909090909092" type="curve" smooth="yes"/>
      <point x="158.27272727272728" y="66.90909090909092"/>
      <point x="137.0" y="80.27272727272727"/>
      <point x="122.27272727272725" y="101.63636363636364" type="curve" smooth="yes"/>
      <point x="117.0" y="142.63636363636363"/>
      <point x="122.00000000000001" y="184.54545454545453"/>
      <point x="134.9090909090909" y="232.63636363636365" type="curve" smooth="yes"/>
      <point x="139.1818181818182" y="248.45454545454547" type="line" smooth="yes"/>
      <point x="179.27272727272728" y="396.3636363636363"/>
      <point x="248.72727272727272" y="467.54545454545456"/>
      <point x="329.0909090909091" y="467.54545454545456" type="curve" smooth="yes"/>
      <point x="392.4545454545455" y="467.54545454545456"/>
      <point x="423.90909090909093" y="435.8181818181818"/>
      <point x="450.3636363636363" y="374.1818181818182" type="curve"/>
      <point x="470.8181818181818" y="448.90909090909093" type="line"/>
      <point x="449.7272727272727" y="448.90909090909093" type="line"/>
      <point x="427.72727272727275" y="500.0"/>
      <point x="388.0909090909091" y="540.3636363636364"/>
    </contour>
    <contour>
      <point x="461.09090909090907" y="531.2727272727274" type="curve"/>
      <point x="462.5454545454545" y="509.3636363636363"/>
      <point x="460.6363636363636" y="478.8181818181818"/>
      <point x="453.6363636363636" y="436.6363636363636" type="curve" smooth="yes"/>
      <point x="432.27272727272725" y="313.8181818181818"/>
      <point x="387.5454545454545" y="226.0909090909091"/>
      <point x="372.8181818181818" y="124.54545454545455" type="curve" smooth="yes"/>
      <point x="358.9090909090909" y="38.54545454545455"/>
      <point x="396.3636363636364" y="-8.545454545454545"/>
      <point x="442.5454545454545" y="-8.545454545454545" type="curve" smooth="yes"/>
      <point x="471.09090909090907" y="-8.545454545454545"/>
      <point x="493.09090909090907" y="1.545454545454545"/>
      <point x="512.0" y="21.0" type="curve" smooth="yes"/>
      <point x="525.6363636363636" y="35.18181818181818"/>
      <point x="537.0000000000001" y="57.90909090909091"/>
      <point x="544.0909090909092" y="83.9090909090909" type="curve" smooth="yes"/>
      <point x="550.0000000000001" y="105.36363636363637"/>
      <point x="551.5454545454546" y="119.27272727272727"/>
      <point x="552.0909090909091" y="133.36363636363637" type="curve"/>
      <point x="546.0909090909091" y="133.36363636363637" type="line"/>
      <point x="526.8181818181819" y="94.54545454545455"/>
      <point x="491.6363636363636" y="64.09090909090908"/>
      <point x="465.90909090909093" y="64.09090909090908" type="curve" smooth="yes"/>
      <point x="454.0" y="64.09090909090908"/>
      <point x="445.54545454545456" y="67.27272727272727"/>
      <point x="438.54545454545456" y="77.0909090909091" type="curve" smooth="yes"/>
      <point x="453.72727272727275" y="201.72727272727272"/>
      <point x="506.90909090909105" y="302.9090909090909"/>
      <point x="527.4545454545456" y="428.6363636363637" type="curve" smooth="yes"/>
      <point x="542.5454545454547" y="506.7272727272728"/>
      <point x="525.909090909091" y="535.6363636363637"/>
      <point x="487.00000000000006" y="535.6363636363637" type="curve" smooth="yes"/>
      <point x="476.90909090909093" y="535.6363636363637"/>
      <point x="468.9090909090909" y="534.3636363636365"/>
    </contour>
  </outline>
</glyph>
<glyph name="b" format="2">
  <advance width="600.0"/>
  <unicode hex="0062"/>
  <outline>
    <contour>
      <point x="105.18181818181819" y="-1.4545454545454546" type="curve" smooth="yes"/>
      <point x="107.90909090909092" y="42.36363636363637"/>
      <point x="114.36363636363636" y="84.63636363636364"/>
      <point x="123.0909090909091" y="126.36363636363635" type="curve"/>
      <point x="160.36363636363637" y="297.27272727272725"/>
      <point x="239.27272727272728" y="448.09090909090907"/>
      <point x="273.72727272727275" y="643.7272727272727" type="curve"/>
      <point x="289.54545454545456" y="725.4545454545455"/>
      <point x="266.6363636363636" y="756.5454545454546"/>
      <point x="229.63636363636365" y="756.5454545454546" type="curve"/>
      <point x="216.63636363636363" y="756.5454545454546"/>
      <point x="206.63636363636363" y="755.2727272727273"/>
      <point x="194.45454545454544" y="750.0" type="curve"/>
      <point x="204.27272727272728" y="725.909090909091"/>
      <point x="202.0" y="698.2727272727273"/>
      <point x="195.72727272727272" y="656.8181818181819" type="curve"/>
      <point x="162.8181818181818" y="446.8181818181818"/>
      <point x="68.81818181818183" y="279.27272727272725"/>
      <point x="36.63636363636363" y="75.0" type="curve" smooth="yes"/>
      <point x="28.545454545454543" y="27.181818181818187"/>
      <point x="48.27272727272727" y="-4.454545454545454"/>
      <point x="86.90909090909092" y="-4.454545454545454" type="curve" smooth="yes"/>
      <point x="93.00000000000001" y="-4.454545454545454"/>
      <point x="99.36363636363637" y="-3.454545454545454"/>
    </contour>
    <contour>
      <point x="100.36363636363637" y="77.0" type="line"/>
      <point x="120.81818181818183" y="80.81818181818183" type="line"/>
      <point x="142.36363636363635" y="38.72727272727273"/>
      <point x="190.0" y="-10.545454545454545"/>
      <point x="258.4545454545455" y="-10.545454545454545" type="curve" smooth="yes"/>
      <point x="388.27272727272725" y="-10.545454545454545"/>
      <point x="483.1818181818182" y="73.45454545454545"/>
      <point x="541.8181818181819" y="305.81818181818187" type="curve" smooth="yes"/>
      <point x="547.3636363636365" y="327.72727272727275" type="line" smooth="yes"/>
      <point x="578.8181818181819" y="451.4545454545455"/>
      <point x="536.2727272727271" y="540.3636363636364"/>
      <point x="435.7272727272727" y="540.3636363636364" type="curve" smooth="yes"/>
      <point x="356.72727272727275" y="540.3636363636364"/>
      <point x="273.18181818181824" y="478.54545454545456"/>
      <point x="209.9090909090909" y="387.45454545454544" type="curve"/>
      <point x="188.54545454545456" y="397.45454545454544" type="line"/>
      <point x="134.72727272727275" y="218.8181818181818" type="line"/>
      <point x="248.72727272727275" y="396.3636363636364"/>
      <point x="336.8181818181818" y="462.9090909090909"/>
      <point x="418.81818181818187" y="462.9090909090909" type="curve" smooth="yes"/>
      <point x="447.3636363636364" y="462.9090909090909"/>
      <point x="469.3636363636363" y="451.7272727272727"/>
      <point x="480.909090909091" y="425.27272727272725" type="curve" smooth="yes"/>
      <point x="481.9090909090909" y="388.09090909090907"/>
      <point x="476.6363636363637" y="355.1818181818182"/>
      <point x="466.0909090909091" y="316.1818181818182" type="curve" smooth="yes"/>
      <point x="462.0909090909091" y="300.45454545454544" type="line" smooth="yes"/>
      <point x="419.5454545454546" y="143.36363636363637"/>
      <point x="355.5454545454545" y="62.27272727272727"/>
      <point x="255.36363636363637" y="62.27272727272727" type="curve" smooth="yes"/>
      <point x="186.9090909090909" y="62.27272727272727"/>
      <point x="151.81818181818178" y="88.63636363636363"/>
      <point x="120.27272727272728" y="156.09090909090912" type="curve"/>
    </contour>
  </outline>
</glyph>
<glyph name="c" format="2">
  <advance width="500.0"/>
  <unicode hex="0063"/>
  <outline>
    <contour>
      <point x="369.25" y="540.0" type="curve" smooth="yes"/>
      <point x="222.25" y="540.0"/>
      <point x="112.0" y="446.25"/>
      <point x="62.0" y="253.5" type="curve" smooth="yes"/>
      <point x="57.25" y="235.25" type="line" smooth="yes"/>
      <point x="15.519692178825" y="74.881916673975"/>
      <point x="96.497047289825" y="-10.5"/>
      <point x="227.25" y="-10.5" type="curve" smooth="yes"/>
      <point x="296.25" y="-10.5"/>
      <point x="343.5" y="5.25"/>
      <point x="370.25" y="27.0" type="curve" smooth="yes"/>
      <point x="388.5" y="41.75"/>
      <point x="397.5" y="56.5"/>
      <point x="406.0" y="91.25" type="curve" smooth="yes"/>
      <point x="408.75" y="103.25"/>
      <point x="410.0" y="116.75"/>
      <point x="410.0" y="125.25" type="curve"/>
      <point x="404.0" y="125.25" type="line"/>
      <point x="356.25" y="85.75"/>
      <point x="312.75" y="63.25"/>
      <point x="244.25" y="63.25" type="curve" smooth="yes"/>
      <point x="204.75" y="63.25"/>
      <point x="176.75" y="69.5"/>
      <point x="149.0" y="87.0" type="curve" smooth="yes"/>
      <point x="123.0" y="120.25"/>
      <point x="116.75" y="169.5"/>
      <point x="130.0" y="222.75" type="curve" smooth="yes"/>
      <point x="133.75" y="237.75" type="line" smooth="yes"/>
      <point x="167.75" y="373.75"/>
      <point x="247.5" y="464.0"/>
      <point x="356.25" y="464.0" type="curve" smooth="yes"/>
      <point x="413.0" y="464.0"/>
      <point x="442.25" y="451.5"/>
      <point x="471.0" y="417.0" type="curve"/>
      <point x="477.0" y="417.0" type="line"/>
      <point x="485.25" y="428.5"/>
      <point x="489.5" y="438.75"/>
      <point x="493.25" y="454.25" type="curve"/>
      <point x="498.75" y="477.75"/>
      <point x="497.0" y="488.25"/>
      <point x="488.0" y="500.5" type="curve" smooth="yes"/>
      <point x="471.5" y="522.75"/>
      <point x="428.0" y="540.0"/>
    </contour>
  </outline>
</glyph>
<glyph name="d" format="2">
  <advance width="600.0"/>
  <unicode hex="0064"/>
  <outline>
    <contour>
      <point x="327.8181818181818" y="540.3636363636364" type="curve" smooth="yes"/>
      <point x="211.27272727272725" y="540.3636363636364"/>
      <point x="116.27272727272728" y="468.4545454545454"/>
      <point x="59.27272727272727" y="242.45454545454544" type="curve" smooth="yes"/>
      <point x="54.45454545454545" y="223.45454545454547" type="line" smooth="yes"/>
      <point x="23.27272727272727" y="100.45454545454545"/>
      <point x="67.99999999999999" y="-10.545454545454545"/>
      <point x="173.1818181818182" y="-10.545454545454545" type="curve" smooth="yes"/>
      <point x="246.81818181818178" y="-10.545454545454545"/>
      <point x="313.09090909090907" y="54.00000000000001"/>
      <point x="366.72727272727275" y="146.0909090909091" type="curve"/>
      <point x="394.27272727272725" y="146.0909090909091" type="line"/>
      <point x="423.6363636363636" y="287.0" type="line"/>
      <point x="321.27272727272725" y="124.72727272727272"/>
      <point x="262.6363636363636" y="66.90909090909092"/>
      <point x="190.0909090909091" y="66.90909090909092" type="curve" smooth="yes"/>
      <point x="158.0" y="66.90909090909092"/>
      <point x="135.0909090909091" y="82.72727272727272"/>
      <point x="119.45454545454544" y="109.00000000000001" type="curve" smooth="yes"/>
      <point x="116.45454545454545" y="149.8181818181818"/>
      <point x="124.54545454545456" y="195.45454545454544"/>
      <point x="134.0909090909091" y="230.72727272727275" type="curve" smooth="yes"/>
      <point x="138.36363636363637" y="246.27272727272728" type="line" smooth="yes"/>
      <point x="179.54545454545456" y="398.8181818181818"/>
      <point x="245.00000000000003" y="467.5454545454545"/>
      <point x="339.3636363636364" y="467.5454545454545" type="curve" smooth="yes"/>
      <point x="396.90909090909093" y="467.5454545454545"/>
      <point x="433.0" y="440.90909090909093"/>
      <point x="459.45454545454544" y="388.72727272727275" type="curve"/>
      <point x="487.72727272727275" y="458.72727272727275" type="line"/>
      <point x="460.8181818181818" y="458.72727272727275" type="line"/>
      <point x="438.54545454545456" y="499.6363636363636"/>
      <point x="393.5454545454546" y="540.3636363636364"/>
    </contour>
    <contour>
      <point x="517.1818181818181" y="750.0" type="curve"/>
      <point x="526.9999999999999" y="725.909090909091"/>
      <point x="525.7272727272727" y="700.4545454545455"/>
      <point x="518.4545454545454" y="656.8181818181819" type="curve" smooth="yes"/>
      <point x="485.27272727272725" y="466.3636363636363"/>
      <point x="400.5454545454545" y="314.9090909090909"/>
      <point x="370.0" y="125.45454545454547" type="curve" smooth="yes"/>
      <point x="355.81818181818176" y="37.45454545454545"/>
      <point x="394.45454545454544" y="-8.545454545454545"/>
      <point x="444.7272727272727" y="-8.545454545454545" type="curve" smooth="yes"/>
      <point x="470.5454545454545" y="-8.545454545454545"/>
      <point x="493.3636363636363" y="0.7272727272727266"/>
      <point x="510.54545454545456" y="19.545454545454547" type="curve" smooth="yes"/>
      <point x="525.6363636363637" y="35.72727272727272"/>
      <point x="536.7272727272729" y="55.18181818181819"/>
      <point x="544.0909090909091" y="81.18181818181819" type="curve"/>
      <point x="550.5454545454546" y="104.54545454545456"/>
      <point x="551.8181818181819" y="118.45454545454547"/>
      <point x="552.0909090909091" y="133.36363636363635" type="curve"/>
      <point x="546.090909090909" y="133.36363636363635" type="line"/>
      <point x="528.5454545454545" y="98.9090909090909"/>
      <point x="492.72727272727275" y="63.81818181818182"/>
      <point x="466.72727272727275" y="63.81818181818182" type="curve" smooth="yes"/>
      <point x="459.1818181818182" y="63.81818181818182"/>
      <point x="452.5454545454545" y="65.27272727272728"/>
      <point x="447.6363636363636" y="70.63636363636363" type="curve" smooth="yes"/>
      <point x="445.4545454545455" y="98.0909090909091"/>
      <point x="446.90909090909093" y="123.9090909090909"/>
      <point x="452.09090909090907" y="151.0" type="curve" smooth="yes"/>
      <point x="480.2727272727273" y="312.1818181818182"/>
      <point x="564.1818181818184" y="464.72727272727275"/>
      <point x="596.6363636363637" y="651.0000000000001" type="curve" smooth="yes"/>
      <point x="612.4545454545455" y="728.3636363636364"/>
      <point x="589.3636363636364" y="756.5454545454546"/>
      <point x="552.3636363636366" y="756.5454545454546" type="curve" smooth="yes"/>
      <point x="539.3636363636364" y="756.5454545454546"/>
      <point x="529.3636363636363" y="755.2727272727273"/>
    </contour>
  </outline>
</glyph>
<glyph name="e" format="2">
  <advance width="600.0"/>
  <unicode hex="0065"/>
  <outline>
    <contour>
      <point x="383.90909090909093" y="540.3636363636364" type="curve" smooth="yes"/>
      <point x="252.27272727272728" y="540.3636363636364"/>
      <point x="124.81818181818181" y="459.54545454545456"/>
      <point x="78.0" y="275.09090909090907" type="curve" smooth="yes"/>
      <point x="74.27272727272728" y="260.45454545454544" type="line" smooth="yes"/>
      <point x="32.63636363636363" y="100.45454545454547"/>
      <point x="122.9090909090909" y="-10.545454545454545"/>
      <point x="286.6363636363637" y="-10.545454545454545" type="curve" smooth="yes"/>
      <point x="385.9090909090909" y="-10.545454545454545"/>
      <point x="431.0909090909091" y="6.181818181818182"/>
      <point x="466.72727272727275" y="38.81818181818183" type="curve" smooth="yes"/>
      <point x="485.0" y="55.45454545454545"/>
      <point x="494.0909090909091" y="72.0"/>
      <point x="500.81818181818187" y="99.09090909090908" type="curve" smooth="yes"/>
      <point x="503.3636363636364" y="110.72727272727273"/>
      <point x="504.90909090909093" y="120.81818181818183"/>
      <point x="504.4545454545455" y="134.63636363636363" type="curve"/>
      <point x="498.4545454545455" y="134.63636363636363" type="line"/>
      <point x="435.4545454545454" y="84.54545454545455"/>
      <point x="386.00000000000006" y="60.81818181818182"/>
      <point x="289.27272727272725" y="60.81818181818182" type="curve" smooth="yes"/>
      <point x="239.8181818181818" y="60.81818181818182"/>
      <point x="203.54545454545456" y="68.18181818181819"/>
      <point x="165.81818181818178" y="86.45454545454545" type="curve" smooth="yes"/>
      <point x="139.18181818181816" y="123.36363636363636"/>
      <point x="131.9090909090909" y="179.63636363636365"/>
      <point x="147.0" y="235.9090909090909" type="curve" smooth="yes"/>
      <point x="150.45454545454547" y="249.00000000000003" type="line" smooth="yes"/>
      <point x="188.0" y="391.6363636363636"/>
      <point x="279.3636363636364" y="469.45454545454544"/>
      <point x="380.18181818181824" y="469.45454545454544" type="curve" smooth="yes"/>
      <point x="410.90909090909093" y="469.45454545454544"/>
      <point x="435.27272727272725" y="463.8181818181818"/>
      <point x="461.54545454545456" y="453.5454545454545" type="curve" smooth="yes"/>
      <point x="478.2727272727273" y="432.8181818181818"/>
      <point x="485.0" y="403.54545454545456"/>
      <point x="473.45454545454544" y="358.2727272727273" type="curve" smooth="yes"/>
      <point x="458.27272727272725" y="298.81818181818187"/>
      <point x="400.3636363636363" y="260.18181818181824"/>
      <point x="281.7272727272727" y="260.18181818181824" type="curve" smooth="yes"/>
      <point x="216.81818181818187" y="260.18181818181824"/>
      <point x="177.0909090909091" y="268.72727272727275"/>
      <point x="142.27272727272728" y="289.18181818181824" type="curve"/>
      <point x="122.63636363636365" y="234.63636363636363" type="line"/>
      <point x="152.0909090909091" y="234.63636363636363" type="line"/>
      <point x="176.36363636363637" y="217.45454545454544"/>
      <point x="231.27272727272728" y="203.36363636363637"/>
      <point x="299.6363636363637" y="203.36363636363637" type="curve" smooth="yes"/>
      <point x="442.27272727272725" y="203.36363636363637"/>
      <point x="526.2727272727273" y="257.1818181818182"/>
      <point x="549.3636363636364" y="348.27272727272725" type="curve"/>
      <point x="551.3636363636363" y="356.27272727272725" type="line" smooth="yes"/>
      <point x="572.3636363636364" y="442.27272727272725"/>
      <point x="515.5454545454546" y="540.3636363636364"/>
    </contour>
  </outline>
</glyph>
<glyph name="f" format="2">
  <advance width="400.0"/>
  <unicode hex="0066"/>
  <outline>
    <contour>
      <point x="109.9090909090909" y="521.6363636363635" type="line"/>
      <point x="106.45454545454545" y="516.7272727272727"/>
      <point x="104.36363636363637" y="511.36363636363626"/>
      <point x="102.27272727272728" y="504.5454545454545" type="curve" smooth="yes"/>
      <point x="94.03850452741818" y="473.2449272004364"/>
      <point x="105.36363636363636" y="447.09090909090907"/>
      <point x="144.1818181818182" y="447.09090909090907" type="curve"/>
      <point x="411.0" y="447.09090909090907" type="line"/>
      <point x="413.90909090909093" y="453.63636363636357"/>
      <point x="416.8181818181818" y="462.2727272727273"/>
      <point x="418.90909090909093" y="470.1818181818182" type="curve" smooth="yes"/>
      <point x="425.81818181818187" y="500.3636363636363"/>
      <point x="420.09090909090907" y="521.6363636363635"/>
      <point x="390.0909090909091" y="521.6363636363635" type="curve"/>
    </contour>
    <contour>
      <point x="182.0" y="67.81818181818181" type="curve" smooth="yes"/>
      <point x="217.36363636363637" y="194.9090909090909"/>
      <point x="250.72727272727272" y="353.45454545454544"/>
      <point x="289.6363636363636" y="512.1818181818181" type="curve" smooth="yes"/>
      <point x="307.7272727272727" y="579.5454545454545"/>
      <point x="319.0637505390546" y="627.3417052384729"/>
      <point x="345.3636363636364" y="663.1818181818182" type="curve" smooth="yes"/>
      <point x="373.1818181818182" y="680.8181818181818"/>
      <point x="397.1818181818182" y="686.4545454545455"/>
      <point x="432.99999999999994" y="686.4545454545455" type="curve" smooth="yes"/>
      <point x="462.1818181818182" y="686.4545454545455"/>
      <point x="488.9090909090909" y="680.6363636363636"/>
      <point x="506.54545454545456" y="668.0" type="curve"/>
      <point x="511.0909090909092" y="668.0" type="line"/>
      <point x="517.2727272727273" y="676.2727272727271"/>
      <point x="522.1818181818181" y="686.4545454545455"/>
      <point x="525.0" y="696.8181818181819" type="curve" smooth="yes"/>
      <point x="530.090909090909" y="716.3636363636364"/>
      <point x="530.0" y="732.9090909090909"/>
      <point x="521.5454545454545" y="741.3636363636363" type="curve" smooth="yes"/>
      <point x="512.0" y="751.6363636363636"/>
      <point x="487.5454545454545" y="761.2727272727273"/>
      <point x="446.81818181818187" y="761.2727272727273" type="curve" smooth="yes"/>
      <point x="346.9090909090909" y="761.2727272727273"/>
      <point x="264.27272727272725" y="707.0000000000001"/>
      <point x="230.90909090909093" y="581.1818181818182" type="curve" smooth="yes"/>
      <point x="185.63636363636365" y="406.72727272727275"/>
      <point x="156.72727272727272" y="267.3636363636364"/>
      <point x="109.81818181818181" y="98.0" type="curve" smooth="yes"/>
      <point x="95.54545454545455" y="49.454545454545446"/>
      <point x="79.54545454545453" y="27.454545454545453"/>
      <point x="57.18181818181817" y="0.0" type="curve"/>
      <point x="67.45454545454547" y="-6.909090909090909"/>
      <point x="76.81818181818184" y="-9.727272727272728"/>
      <point x="93.0909090909091" y="-9.727272727272728" type="curve" smooth="yes"/>
      <point x="137.36363636363635" y="-9.727272727272728"/>
      <point x="165.36363636363637" y="12.0"/>
    </contour>
  </outline>
</glyph>
<glyph name="g" format="2">
  <advance width="600.0"/>
  <unicode hex="0067"/>
  <outline>
    <contour>
      <point x="327.5454545454545" y="540.3636363636364" type="curve" smooth="yes"/>
      <point x="219.0909090909091" y="540.3636363636364"/>
      <point x="114.18181818181817" y="464.09090909090907"/>
      <point x="61.18181818181817" y="252.27272727272725" type="curve" smooth="yes"/>
      <point x="56.36363636363637" y="233.0" type="line" smooth="yes"/>
      <point x="29.181818181818187" y="125.45454545454545"/>
      <point x="66.09090909090908" y="22.181818181818183"/>
      <point x="179.45454545454547" y="22.181818181818183" type="curve" smooth="yes"/>
      <point x="263.9090909090909" y="22.181818181818183"/>
      <point x="349.9090909090909" y="87.8181818181818"/>
      <point x="404.1818181818182" y="178.1818181818182" type="curve"/>
      <point x="430.72727272727275" y="178.1818181818182" type="line"/>
      <point x="463.3636363636363" y="321.8181818181818" type="line"/>
      <point x="357.8181818181818" y="146.9090909090909"/>
      <point x="276.2727272727273" y="101.0"/>
      <point x="192.54545454545453" y="101.0" type="curve" smooth="yes"/>
      <point x="161.0909090909091" y="101.0"/>
      <point x="139.36363636363637" y="111.18181818181819"/>
      <point x="123.90909090909088" y="128.1818181818182" type="curve" smooth="yes"/>
      <point x="119.63636363636363" y="164.0"/>
      <point x="123.9090909090909" y="195.0909090909091"/>
      <point x="136.27272727272728" y="240.81818181818184" type="curve" smooth="yes"/>
      <point x="140.54545454545456" y="256.6363636363636" type="line" smooth="yes"/>
      <point x="179.27272727272728" y="399.9090909090909"/>
      <point x="249.5454545454546" y="467.5454545454545"/>
      <point x="329.09090909090907" y="467.5454545454545" type="curve" smooth="yes"/>
      <point x="403.72727272727275" y="467.5454545454545"/>
      <point x="447.54545454545456" y="441.9090909090909"/>
      <point x="477.1818181818182" y="380.0" type="curve"/>
      <point x="498.18181818181813" y="452.54545454545456" type="line"/>
      <point x="475.54545454545456" y="452.54545454545456" type="line"/>
      <point x="448.1818181818182" y="504.3636363636364"/>
      <point x="399.3636363636363" y="540.3636363636364"/>
    </contour>
    <contour>
      <point x="512.3636363636363" y="531.4545454545456" type="curve"/>
      <point x="496.27272727272725" y="495.18181818181813"/>
      <point x="482.27272727272725" y="455.90909090909093"/>
      <point x="471.0" y="419.45454545454544" type="curve" smooth="yes"/>
      <point x="428.0909090909091" y="275.36363636363643"/>
      <point x="406.72727272727275" y="133.36363636363635"/>
      <point x="364.1818181818182" y="20.545454545454543" type="curve" smooth="yes"/>
      <point x="344.54545454545456" y="-32.36363636363636"/>
      <point x="327.90909090909093" y="-65.81818181818181"/>
      <point x="307.5454545454545" y="-94.45454545454545" type="curve" smooth="yes"/>
      <point x="268.0909090909091" y="-123.54545454545455"/>
      <point x="223.27272727272725" y="-135.54545454545453"/>
      <point x="166.63636363636363" y="-135.54545454545453" type="curve" smooth="yes"/>
      <point x="101.81818181818181" y="-135.54545454545453"/>
      <point x="63.54545454545454" y="-125.0"/>
      <point x="25.181818181818173" y="-97.09090909090908" type="curve"/>
      <point x="19.181818181818183" y="-97.09090909090908" type="line"/>
      <point x="13.909090909090912" y="-103.99999999999999"/>
      <point x="9.909090909090914" y="-112.36363636363633"/>
      <point x="7.363636363636368" y="-122.72727272727273" type="curve" smooth="yes"/>
      <point x="2.4545454545454586" y="-143.54545454545456"/>
      <point x="4.909090909090914" y="-159.36363636363637"/>
      <point x="12.909090909090914" y="-170.45454545454547" type="curve" smooth="yes"/>
      <point x="27.909090909090914" y="-190.72727272727275"/>
      <point x="71.63636363636365" y="-210.0"/>
      <point x="139.0" y="-210.0" type="curve" smooth="yes"/>
      <point x="293.45454545454544" y="-210.0"/>
      <point x="379.5454545454546" y="-148.72727272727275"/>
      <point x="436.1818181818182" y="-3.363636363636365" type="curve" smooth="yes"/>
      <point x="490.45454545454555" y="135.36363636363637"/>
      <point x="506.72727272727275" y="314.00000000000006"/>
      <point x="570.5454545454546" y="471.2727272727273" type="curve" smooth="yes"/>
      <point x="585.6363636363636" y="509.00000000000006"/>
      <point x="562.0909090909091" y="534.7272727272729"/>
      <point x="532.7272727272727" y="534.7272727272729" type="curve" smooth="yes"/>
      <point x="525.5454545454546" y="534.7272727272729"/>
      <point x="518.9090909090909" y="533.4545454545456"/>
    </contour>
  </outline>
</glyph>
<glyph name="h" format="2">
  <advance width="600.0"/>
  <unicode hex="0068"/>
  <outline>
    <contour>
      <point x="195.0" y="750.0" type="curve"/>
      <point x="204.8181818181818" y="725.909090909091"/>
      <point x="203.27272727272728" y="700.4545454545454"/>
      <point x="196.27272727272725" y="656.8181818181818" type="curve" smooth="yes"/>
      <point x="163.36363636363637" y="446.8181818181818"/>
      <point x="67.45454545454547" y="279.27272727272725"/>
      <point x="35.27272727272728" y="75.00000000000001" type="curve" smooth="yes"/>
      <point x="27.181818181818187" y="27.181818181818183"/>
      <point x="47.18181818181819" y="-4.454545454545454"/>
      <point x="86.63636363636364" y="-4.454545454545454" type="curve" smooth="yes"/>
      <point x="92.72727272727275" y="-4.454545454545454"/>
      <point x="99.09090909090911" y="-3.454545454545454"/>
      <point x="104.90909090909092" y="-1.4545454545454546" type="curve"/>
      <point x="118.00000000000001" y="220.1818181818182"/>
      <point x="233.81818181818184" y="410.72727272727275"/>
      <point x="276.09090909090907" y="651.0" type="curve" smooth="yes"/>
      <point x="291.90909090909093" y="728.3636363636363"/>
      <point x="268.0" y="756.5454545454546"/>
      <point x="230.1818181818182" y="756.5454545454546" type="curve" smooth="yes"/>
      <point x="217.1818181818182" y="756.5454545454546"/>
      <point x="207.18181818181816" y="755.2727272727273"/>
    </contour>
    <contour>
      <point x="425.0" y="540.2727272727273" type="curve" smooth="yes"/>
      <point x="350.9090909090909" y="540.2727272727273"/>
      <point x="263.6363636363636" y="460.63636363636357"/>
      <point x="201.18181818181822" y="358.4545454545455" type="curve"/>
      <point x="176.0909090909091" y="358.4545454545455" type="line"/>
      <point x="134.27272727272728" y="199.7272727272727" type="line"/>
      <point x="221.36363636363637" y="346.8181818181818"/>
      <point x="321.9090909090909" y="461.1818181818182"/>
      <point x="402.6363636363636" y="461.1818181818182" type="curve" smooth="yes"/>
      <point x="441.72727272727275" y="461.1818181818182"/>
      <point x="458.9090909090909" y="440.18181818181813"/>
      <point x="463.81818181818176" y="395.27272727272725" type="curve" smooth="yes"/>
      <point x="420.7272727272727" y="280.18181818181824"/>
      <point x="383.9090909090908" y="207.0909090909091"/>
      <point x="370.3636363636363" y="123.1818181818182" type="curve" smooth="yes"/>
      <point x="356.81818181818176" y="40.36363636363636"/>
      <point x="400.27272727272725" y="-8.545454545454545"/>
      <point x="444.72727272727275" y="-8.545454545454545" type="curve" smooth="yes"/>
      <point x="470.81818181818176" y="-8.545454545454545"/>
      <point x="493.81818181818187" y="3.0"/>
      <point x="510.5454545454546" y="20.272727272727273" type="curve" smooth="yes"/>
      <point x="526.9090909090909" y="37.18181818181818"/>
      <point x="536.7272727272727" y="54.45454545454545"/>
      <point x="544.0909090909091" y="81.18181818181819" type="curve" smooth="yes"/>
      <point x="550.5454545454545" y="104.54545454545455"/>
      <point x="551.8181818181819" y="118.45454545454545"/>
      <point x="552.0909090909091" y="133.36363636363637" type="curve"/>
      <point x="546.0909090909091" y="133.36363636363637" type="line"/>
      <point x="530.5454545454546" y="99.18181818181817"/>
      <point x="492.4545454545455" y="63.81818181818182"/>
      <point x="466.4545454545454" y="63.81818181818181" type="curve" smooth="yes"/>
      <point x="460.72727272727275" y="63.81818181818181"/>
      <point x="455.0" y="64.81818181818181"/>
      <point x="450.00000000000006" y="67.27272727272728" type="curve" smooth="yes"/>
      <point x="448.81818181818187" y="85.18181818181817"/>
      <point x="451.5454545454546" y="106.72727272727273"/>
      <point x="455.7272727272728" y="133.0909090909091" type="curve" smooth="yes"/>
      <point x="471.6363636363637" y="226.0"/>
      <point x="509.81818181818187" y="300.54545454545456"/>
      <point x="526.4545454545455" y="386.45454545454544" type="curve" smooth="yes"/>
      <point x="539.6363636363636" y="456.45454545454544"/>
      <point x="510.0" y="540.2727272727273"/>
    </contour>
  </outline>
</glyph>
<glyph name="i" format="2">
  <advance width="350.0"/>
  <unicode hex="0069"/>
  <outline>
    <contour>
      <point x="117.0" y="113.5" type="curve"/>
      <point x="103.75" y="31.5"/>
      <point x="122.0" y="-6.0"/>
      <point x="162.75" y="-6.0" type="curve" smooth="yes"/>
      <point x="176.25" y="-6.0"/>
      <point x="188.5" y="-3.75"/>
      <point x="197.75" y="0.0" type="curve"/>
      <point x="188.75" y="43.5"/>
      <point x="191.0" y="82.0"/>
      <point x="199.5" y="131.5" type="curve"/>
      <point x="219.5" y="242.5"/>
      <point x="278.25" y="366.5"/>
      <point x="293.5" y="478.25" type="curve" smooth="yes"/>
      <point x="298.5" y="511.25"/>
      <point x="267.75" y="539.5"/>
      <point x="232.0" y="539.5" type="curve" smooth="yes"/>
      <point x="195.25" y="539.5"/>
      <point x="144.25" y="535.25"/>
      <point x="108.75" y="530.25" type="curve"/>
      <point x="102.75" y="520.25"/>
      <point x="99.75" y="513.0"/>
      <point x="97.0" y="502.25" type="curve" smooth="yes"/>
      <point x="89.5" y="470.25"/>
      <point x="95.5" y="454.5"/>
      <point x="119.25" y="454.5" type="curve" smooth="yes"/>
      <point x="138.25" y="454.5"/>
      <point x="172.75" y="462.75"/>
      <point x="213.75" y="477.75" type="curve"/>
      <point x="218.0" y="473.25" type="line"/>
      <point x="192.75" y="345.5"/>
      <point x="140.5" y="255.25"/>
    </contour>
    <contour>
      <point x="264.0" y="753.25" type="curve"/>
      <point x="256.75" y="725.75" type="line" smooth="yes"/>
      <point x="243.5" y="674.0"/>
      <point x="260.75" y="650.5"/>
      <point x="305.5" y="650.5" type="curve" smooth="yes"/>
      <point x="321.0" y="650.5"/>
      <point x="337.75" y="651.75"/>
      <point x="351.0" y="654.25" type="curve"/>
      <point x="358.75" y="685.25" type="line" smooth="yes"/>
      <point x="369.5" y="728.75"/>
      <point x="352.583333333325" y="757.75"/>
      <point x="309.0" y="757.75" type="curve" smooth="yes"/>
      <point x="293.53125" y="757.75"/>
      <point x="278.04473596975" y="756.622267072275"/>
    </contour>
  </outline>
</glyph>
<glyph name="j" format="2">
  <advance width="350.0"/>
  <unicode hex="006A"/>
  <outline>
    <contour>
      <point x="261.90909090909093" y="539.8181818181819" type="curve" smooth="yes"/>
      <point x="215.8181818181818" y="539.8181818181819"/>
      <point x="151.72727272727275" y="533.6363636363637"/>
      <point x="116.27272727272727" y="529.8181818181819" type="curve"/>
      <point x="109.54545454545455" y="520.1818181818181"/>
      <point x="105.36363636363636" y="510.3636363636364"/>
      <point x="102.27272727272728" y="497.6363636363636" type="curve" smooth="yes"/>
      <point x="96.36363636363637" y="471.4545454545454"/>
      <point x="103.99999999999999" y="455.0"/>
      <point x="121.18181818181817" y="455.0" type="curve" smooth="yes"/>
      <point x="146.8181818181818" y="455.0"/>
      <point x="178.9090909090909" y="462.3636363636364"/>
      <point x="231.72727272727272" y="472.09090909090907" type="curve"/>
      <point x="236.0" y="467.3636363636364" type="line"/>
      <point x="180.63636363636365" y="302.45454545454544"/>
      <point x="144.36363636363637" y="106.81818181818184"/>
      <point x="107.0909090909091" y="-31.99999999999998" type="curve" smooth="yes"/>
      <point x="92.54545454545455" y="-90.0909090909091"/>
      <point x="75.81818181818181" y="-126.45454545454547"/>
      <point x="55.63636363636364" y="-152.72727272727272" type="curve"/>
      <point x="35.36363636363635" y="-170.54545454545456"/>
      <point x="12.545454545454549" y="-176.90909090909088"/>
      <point x="-19.000000000000004" y="-176.90909090909088" type="curve" smooth="yes"/>
      <point x="-47.81818181818182" y="-176.90909090909088"/>
      <point x="-65.72727272727272" y="-171.90909090909088"/>
      <point x="-86.0" y="-154.1818181818182" type="curve"/>
      <point x="-91.45454545454545" y="-154.1818181818182" type="line"/>
      <point x="-95.27272727272727" y="-161.0909090909091"/>
      <point x="-98.54545454545455" y="-169.45454545454544"/>
      <point x="-101.81818181818181" y="-179.8181818181818" type="curve" smooth="yes"/>
      <point x="-107.45454545454545" y="-199.9090909090909"/>
      <point x="-103.72727272727272" y="-218.54545454545453"/>
      <point x="-96.36363636363636" y="-227.8181818181818" type="curve" smooth="yes"/>
      <point x="-82.63636363636363" y="-244.00000000000003"/>
      <point x="-51.81818181818181" y="-252.09090909090912"/>
      <point x="-17.909090909090914" y="-251.36363636363637" type="curve" smooth="yes"/>
      <point x="57.90909090909092" y="-249.90909090909093"/>
      <point x="118.63636363636364" y="-220.27272727272728"/>
      <point x="174.9090909090909" y="-66.0909090909091" type="curve" smooth="yes"/>
      <point x="230.36363636363637" y="83.81818181818181"/>
      <point x="254.3636363636364" y="309.6363636363636"/>
      <point x="322.27272727272725" y="482.90909090909093" type="curve" smooth="yes"/>
      <point x="333.3636363636364" y="511.36363636363643"/>
      <point x="307.3636363636364" y="539.8181818181819"/>
    </contour>
    <contour>
      <point x="278.0" y="745.2727272727273" type="curve"/>
      <point x="270.54545454545456" y="717.0909090909091" type="line" smooth="yes"/>
      <point x="257.09090909090907" y="664.7272727272727"/>
      <point x="274.72727272727275" y="641.0"/>
      <point x="320.72727272727275" y="641.0" type="curve" smooth="yes"/>
      <point x="336.54545454545456" y="641.0"/>
      <point x="353.8181818181818" y="642.2727272727273"/>
      <point x="367.5454545454546" y="644.8181818181819" type="curve"/>
      <point x="375.4545454545455" y="676.4545454545454" type="line" smooth="yes"/>
      <point x="386.3636363636364" y="720.6363636363635"/>
      <point x="368.9999999999909" y="749.8181818181818"/>
      <point x="324.3636363636363" y="749.8181818181818" type="curve" smooth="yes"/>
      <point x="308.57954545454544" y="749.8181818181818"/>
      <point x="292.50334833063636" y="748.678836806118"/>
    </contour>
  </outline>
</glyph>
